<svg xmlns="http://www.w3.org/2000/svg" xmlns:xlink="http://www.w3.org/1999/xlink" width="500" zoomAndPan="magnify" viewBox="0 0 375 374.999991" height="500" preserveAspectRatio="xMidYMid meet" version="1.0"><defs><clipPath id="id1"><path d="M 37.5 1 L 333 1 L 333 374 L 37.5 374 Z M 37.5 1 " clip-rule="nonzero"/></clipPath></defs><g clip-path="url(#id1)"><path fill="#00527a" d="M 135.660156 276.691406 C 140.828125 273.164062 146.386719 270.183594 152.261719 267.804688 L 152.261719 333.398438 L 135.660156 333.398438 Z M 185.257812 1.054688 L 37.519531 258.460938 L 107.214844 258.460938 L 106.191406 258.460938 L 110.390625 283.421875 L 110.425781 283.421875 C 113.339844 253.28125 127.453125 231.808594 144.339844 222.414062 C 144.339844 190.082031 148.628906 148.480469 185.207031 103.773438 L 185.242188 103.828125 L 185.277344 103.773438 C 221.855469 148.480469 226.140625 190.082031 226.140625 222.414062 C 243.027344 231.808594 257.144531 253.296875 260.054688 283.421875 L 260.089844 283.421875 L 264.289062 258.460938 L 263.265625 258.460938 L 332.964844 258.460938 L 185.222656 1.054688 Z M 185.257812 205.261719 C 195.933594 205.261719 204.632812 196.570312 204.632812 185.90625 C 204.632812 175.238281 195.933594 166.550781 185.257812 166.550781 C 174.582031 166.550781 165.882812 175.238281 165.882812 185.90625 C 165.882812 196.570312 174.582031 205.261719 185.257812 205.261719 Z M 218.238281 267.804688 C 224.113281 270.183594 229.6875 273.164062 234.859375 276.691406 L 234.859375 333.398438 L 218.238281 333.398438 Z M 185.257812 261.421875 C 188.0625 261.421875 190.835938 261.546875 193.570312 261.8125 L 193.570312 373.960938 L 176.964844 373.960938 L 176.964844 261.8125 C 179.699219 261.566406 182.472656 261.421875 185.257812 261.421875 Z M 185.257812 261.421875 " fill-opacity="1" fill-rule="evenodd"/></g></svg>