<svg xmlns="http://www.w3.org/2000/svg" width="468" height="528" fill="none"><path fill="#000" fill-rule="evenodd" d="M24.215 245.932c-3.793 1.973-6.421 4.836-7.194 9.116 3.409-2.239 5.385-5.615 7.194-9.116Zm21.263 107.914c3.051 1.802 5.884 1.201 7.636-1.432.99-1.488.954-2.407-.138-3.474-1.19-1.162-2.243-1.245-3.694-.125-1.67 1.289-2.855 2.976-3.804 5.031Zm-3.332-84.257c-.202.306-.393.497-.474.727-1.058 3.033-2.195 6.044-3.128 9.116-1.477 4.864.56 7.74 4.382 10.314 1.06.715 2.196.612 3.132-.225.636-.568 1.284-1.246 1.616-2.011 1.529-3.494 2.943-7.038 4.406-10.56.502-1.208.177-2.227-.724-3.075-2.597-2.446-5.595-4.023-9.21-4.286ZM2.528 163.426c1.35 1.36 2.595 2.557 3.778 3.815 3.042 3.238 5.95 6.61 9.127 9.706 1.526 1.485 3.45 2.647 5.36 3.631 2.052 1.057 4.243.918 6.193-.49 3.863-2.792 4.387-4.973 1.992-9.103-3.33-5.738-7.925-10.348-13.194-14.314-.552-.415-1.195-.711-1.806-1.044-1.103-.603-2.245-.524-3.228.15-3.085 2.119-5.882 4.555-8.222 7.649Zm95.011 351.21.38.031c.15-.3.362-.583.439-.9 2.157-8.881 4.572-17.71 6.387-26.66 3.08-15.188 5.849-30.442 7.706-45.837 1.219-10.111 2.351-20.235 3.335-30.372.597-6.15.913-12.333 1.222-18.506.618-12.286.392-24.573-.415-36.838-.595-9.036-1.542-18.048-2.323-27.072-.774-8.936-1.624-17.868-2.286-26.813a8980.992 8980.992 0 0 1-3.969-56.293c-.445-6.606-.718-13.225-.949-19.841-.314-8.976-.123-17.95.674-26.897.709-7.978 1.5-15.949 2.351-23.912.713-6.665 1.471-13.327 2.378-19.968 1.214-8.885 2.688-17.735 3.87-26.624 1.103-8.282 2.109-16.585 2.892-24.903.479-5.107.607-10.26.62-15.392.012-4.54-1.737-8.515-5.01-11.692-.904-.878-2.101-1.766-3.285-1.98-2.717-.491-5.507-.57-8.501-.836-.477 2.207-.937 4.136-1.305 6.081-1.814 9.579-3.89 19.119-5.337 28.754-2.107 14.043-2.91 28.23-3.812 42.397-.992 15.573-1.47 31.165-1.021 46.763.402 13.932 1.002 27.86 1.713 41.779.252 4.942 1.064 9.856 1.687 14.775.095.748.322 1.462-.586 1.691-.912.23-1.21-.561-1.371-1.234-.326-1.35-.704-2.712-.803-4.089-.539-7.467-1.052-14.936-1.468-22.41-.335-6-.604-12.008-.748-18.016-.254-10.62-.698-21.25-.496-31.865.243-12.622.962-25.241 1.712-37.848.523-8.774 1.292-17.542 2.234-26.284 1.206-11.177 3.569-22.169 5.814-33.171.466-2.283.918-4.57 1.391-6.931-2.02-.608-4.058-.814-5.558-.011-2.415 1.29-4.924 2.848-6.183 5.45-1.344 2.773-3.324 5.283-3.718 8.498-.073.602-.52 1.44-1.013 1.648-1.081.458-1.275 1.34-1.57 2.236-7.425 22.572-11.79 45.67-11.829 69.493-.023 15.523.951 31 2.871 46.398 1.68 13.474 3.48 26.94 5.603 40.35 2.49 15.729 5.552 31.368 8.058 47.095 2.37 14.872 4.553 29.777 6.415 44.718 1.626 13.045 2.907 26.143 3.936 39.247.92 11.721 1.396 23.48 1.878 35.229 1.042 25.361.258 50.704-.976 76.038-.397 8.172-.692 16.35-1.034 24.524Zm6.208-443.723c2.109.208 4.167.519 6.233.588 3.321.113 5.753 1.702 7.767 4.193 3.28 4.057 4.62 8.783 4.472 13.876-.169 5.742-.495 11.488-1.029 17.206-.622 6.672-1.469 13.325-2.354 19.969-1.045 7.85-2.287 15.675-3.342 23.524-1.043 7.763-2.036 15.535-2.906 23.318-.872 7.789-1.717 15.585-2.287 23.4-.514 7.03-.987 14.094-.85 21.132.225 11.665.868 23.324 1.494 34.977.607 11.305 1.27 22.61 2.168 33.895 1.174 14.756 2.574 29.495 3.933 44.238 1.672 18.136 3.102 36.285 2.649 54.523-.285 11.497-.959 22.972-2.359 34.394-1.27 10.371-2.396 20.762-3.823 31.111-1.009 7.327-2.261 14.629-3.68 21.888-2.135 10.931-4.451 21.828-6.815 32.711-.98 4.503-2.335 8.921-3.431 13.401-.715 2.919.005 3.814 3.098 4.205 1.345.17 1.652.655 1.136 1.885-.201.477-.48.93-.77 1.363-1.074 1.598-1.464 1.651-3.09.491-.209-.15-.432-.278-.624-.401l-1.57.646c-.218-.117-.344-.142-.363-.201-.703-2.266-3.281-3.766-2.859-6.431.247-1.545-.153-2.74-1.026-3.878-4.88-6.358-9.756-12.716-14.661-19.052-6.987-9.023-14.257-17.839-20.937-27.082-9.468-13.101-16.37-27.512-20.285-43.265-3.136-12.618-3.998-25.412-3.086-38.368.646-9.159 2.067-18.161 4.803-26.933a64.902 64.902 0 0 1 2.353-6.364c.456-1.057.265-1.723-.43-2.564-6.04-7.295-8.946-15.817-9.777-25.154-.83-9.302-.019-18.46 2.69-27.386 1.106-3.638 2.786-7.103 4.352-11.014-.065-.095-.353-.616-.728-1.063-2.41-2.876-2.778-6.143-1.68-9.587.925-2.901 2.062-5.733 3.092-8.602.2-.555.559-1.17.468-1.693-.277-1.601.633-1.876 1.808-1.704 1.633.237 3.24.65 4.859.973.416.081.844.103 1.305.158.837-1.458 1.637-2.846 2.464-4.286 1.155 1.054 1.155 1.054-.37 5.487.951.778 1.977 1.563 2.942 2.417 1.732 1.53 2.422 3.461 1.606 5.654-1.303 3.502-2.761 6.949-4.161 10.416-.097.241-.246.462-.382.685-2.367 3.89-4.592 4.67-9.186 3.038-.595 1.062-1.28 2.142-1.828 3.289-2.467 5.159-3.808 10.657-4.557 16.286-1.004 7.548-1.15 15.109.374 22.626 1.156 5.7 3.32 10.986 6.61 15.794.394.574.822 1.126 1.266 1.662.215.262.5.466.926.852.553-.749 1.016-1.452 1.555-2.09.843-.994 1.646-2.051 2.628-2.894 2.453-2.104 4.528-2.054 6.72.003 2.15 2.017 2.35 4.262.608 6.768-2.046 2.944-5.57 4.106-8.97 2.953-.488-.165-.967-.352-1.698-.619-.41.899-.842 1.726-1.174 2.592-2.731 7.116-4.205 14.538-5.268 22.049-1.015 7.177-1.29 14.399-1.1 21.642.504 19.19 5.697 37.072 14.975 53.824 4.955 8.945 10.848 17.248 17.208 25.231 7.655 9.608 15.343 19.191 23.02 28.782.262.328.56.628 1.27.792-.26-1.01-.493-2.03-.79-3.029-4.79-16.106-9.572-32.212-14.389-48.309-3.785-12.651-6.107-25.537-6.852-38.743-.58-10.309.069-20.545 1.007-30.785 1.407-15.346 3.62-30.635 3.577-46.089-.053-18.989-2.081-37.73-7.623-55.971-3.705-12.2-9.031-23.6-17.48-33.296-2.444-2.805-5.219-5.375-8.098-7.74-3.186-2.617-7.04-3.694-11.192-3.713-1.942-.008-3.11.744-4.16 2.467-1.99 3.254-4.277 6.339-6.62 9.357-.758.975-1.986 1.732-3.154 2.213-1.959.805-3.318-.26-3.14-2.345.082-.933.37-1.89.76-2.744 2.04-4.464 5.334-7.753 9.83-9.668 1.513-.644 2.374-1.553 3.02-2.966 3.14-6.887 4.897-14.136 5.736-21.622 1.045-9.338.773-18.616-1.505-27.773-.755-3.034-1.71-6.008-3.595-8.679-.44.125-.782.168-1.07.312-4.246 2.116-8.172 1.318-11.7-1.527-1.957-1.577-3.686-3.448-5.422-5.278-3.058-3.223-6.044-6.512-9.058-9.776-1.536-1.665-1.68-2.065-.135-3.728 2.245-2.416 4.587-4.769 7.102-6.895 3.082-2.607 5.726-2.722 8.97-.098 3.371 2.725 6.514 5.767 9.511 8.905 1.784 1.868 3.28 4.081 4.576 6.329 1.948 3.381 2.927 6.875-.758 9.664 0 .421-.066.629.01.755 3.863 6.556 5.09 13.809 5.7 21.246.82 10-.07 19.835-2.724 29.497-.69 2.512-1.702 4.935-2.578 7.394-.288.806-.61 1.598-1.022 2.67.852.069 1.497.179 2.14.167 4.836-.085 9.04 1.626 12.794 4.538 5.366 4.162 9.542 9.393 13.312 14.982 7.465 11.067 11.91 23.4 14.924 36.274 3.77 16.103 5.365 32.471 5.172 48.997-.119 10.11-1.083 20.168-2.145 30.222-1.289 12.212-2.694 24.426-2.624 36.737.088 15.695 2.49 31.039 7.049 46.06 4.575 15.078 9.081 30.176 13.622 45.264.242.807.514 1.605 1.185 2.359.145-1.865.348-3.727.427-5.593 1.165-27.338 2.42-54.675 1.636-82.049-.477-16.634-1.22-33.259-2.93-49.819-1.547-14.983-3.016-29.981-4.956-44.915-1.636-12.598-3.833-25.127-5.9-37.666-3.13-18.983-6.652-37.906-9.454-56.936-1.965-13.341-3.094-26.809-4.44-40.237-1.29-12.851-1.404-25.749-.89-38.644.648-16.263 3.501-32.188 7.999-47.802 2.093-7.272 4.652-14.409 6.99-21.61.386-1.187 1.056-2.075 2.026-2.927a40.338 40.338 0 0 0 4.865-5.077c1.398-1.742 3.197-2.321 5.242-2.48 1.3-.102 2.612-.1 3.92-.085 1.055.01 1.58-.455 1.764-1.491.288-1.628.67-3.238 1.001-4.856.141-.695.24-1.536 1.171-1.417 1.116.142.935 1.118.82 1.862-.228 1.46-.579 2.902-.841 4.358-.073.408-.009.841-.009 1.473Z" clip-rule="evenodd"/><path fill="#2761F3" fill-rule="evenodd" d="m240.711 522.017 53.105-.681 1.323-3.027 3.097 2.081 17.629-.227 17.535-.658h56.615c-5.037-6.916-12.123-12.193-21.256-15.828-9.133-3.636-17.685-8.141-25.656-13.515l1.747-16.096-29.487 1.843-15.873 2.509-16.97-2.547c1.429 13.943 1.429 21.963 0 24.062-1.429 2.098-15.326 8.622-41.693 19.572l-.116 2.512ZM209.107 85.067l21.048-14.394 11.19 17.048 21.269-19.93c12.592-9.639 19.66-14.458 21.202-14.458 1.543 0 4.747.73 9.612 2.19 10.266 9.081 18.457 13.17 24.575 12.268 6.117-.903 10.112-2.49 11.982-4.762 2.875-4.945 5.141-7.797 6.8-8.557 2.488-1.14 8.603-2.161 10.964-2.161 2.361 0 13.252 4.61 16.101 7.664 1.899 2.036 11.459 10.724 28.678 26.065l17.443-24.52 17.097 11.131-19.991 35.949c-4.838 8.167-8.694 12.617-11.569 13.348-2.875.732-6.903-.455-12.084-3.56l-21.081-16.913-3.023 16.913-6.73 31.831-75.438 1.264c-3.773-13.292-5.66-20.318-5.66-21.079 0-.76-1.199-8.633-3.595-23.617l-18.688 14.064c-3.685 2.407-6.986 3.611-9.903 3.611-2.917 0-8.678-5.599-17.283-16.795l-12.916-22.6Z" clip-rule="evenodd"/><path fill="#fff" fill-rule="evenodd" d="M277.476 152.573h74.603v5.167c2.422 5.544 3.908 9.37 4.457 11.478.548 2.109 1.849 22.646 3.901 61.612l5.169 95.283 5.801 62.086 3.351 36.07-54.437 1.703-10.19.142-60.129-.142-3.842-3.436 3.842-42.211c3.221-44.982 5.9-78.719 8.038-101.211 2.138-22.492 4.272-39.407 6.404-50.744 3.391-28.42 5.372-43.675 5.94-45.766.569-2.091 3.37-11.24 8.402-27.447l-1.31-2.584Z" clip-rule="evenodd"/><path fill="#000" fill-rule="evenodd" d="M462.168 51.063c-3.152-.82-6.271-1.766-9.546-2.708 4.148.141 8.179.174 11.962 1.82l-.013.826c-.803.032-1.657.257-2.403.062Zm-15.517 2.509c-4.766.057-8.721 2.019-12.369 4.943-1.89 1.515-3.233 3.373-4.332 5.516-1.07 2.09-2.339 4.077-3.605 6.253-4.396-2.542-8.525-4.928-12.881-7.445.616-.91 1.106-1.718 1.678-2.459a541.175 541.175 0 0 1 6.158-7.873c1.44-1.796 3.233-2.821 5.64-2.748 3.824.115 7.663-.099 11.478.129 6.073.361 12.135.958 18.196 1.497.833.074 1.643.389 2.463.593l.033.543c-1.025.211-2.043.544-3.079.612-3.122.208-6.251.401-9.38.439Zm-39.477 14.415 3.217-4.495 16.794 9.522-3.324 5.85-16.687-10.877Zm-3.343 45.114c-1.6 2.294-3.363 4.506-5.286 6.526-2.653 2.791-5.893 3.784-9.493 1.944-2.236-1.143-4.529-2.318-6.459-3.904-6.088-5.001-12.013-10.207-18.009-15.324-.646-.55-1.344-1.035-2.401-1.843-1.756 5.756-2.095 11.403-3.519 16.794-1.462 5.535-3.01 11.052-4.261 16.638-1.226 5.481-2.124 11.036-3.179 16.623H323.15c-.095-.8-.231-1.468-.244-2.139-.22-11.649-.33-23.303-.662-34.95-.327-11.468-.894-22.929-1.319-34.393-.087-2.342-.012-4.688-.012-7.528 2.281 1.417 4.175 2.606 6.081 3.773 3.167 1.94 3.147 1.913 5.756-.831 4.227-4.448 8.487-8.862 12.728-13.295.362-.379.707-.779 1.024-1.198.744-.988.522-1.826-.491-2.43-1.478-.879-2.983-1.708-4.762-2.72 2.184-1.157 4.131-1.212 6.119-1.012 5.388.538 10.014 2.947 14.195 6.231a73.996 73.996 0 0 1 7.418 6.664c5.198 5.363 10.59 10.482 16.511 15.028 1.994 1.53 3.805 3.303 5.785 5.041-.718 1.14-1.397 2.057-1.888 3.066-.223.456-.313 1.342-.048 1.606.658.655 1.254.092 1.691-.519 2.049-2.855 4.126-5.69 6.129-8.579 2.654-3.826 5.25-7.696 7.87-11.548.246-.362.48-.73.804-1.222 5.742 3.73 11.213 7.28 16.623 10.793-.081.56-.049.848-.162 1.053-5.912 10.7-11.466 21.614-18.465 31.655Zm-46.352 67.646c.45 14.12.669 28.249 1.298 42.36.514 11.55 1.462 23.079 2.264 34.613.728 10.478 1.401 20.961 2.312 31.423 1.202 13.798 2.432 27.598 3.982 41.36 1.552 13.76 3.62 68.328 5.227 82.083.447 3.819.069 7.739.069 11.856h-51.394c-.068-1.557-.188-3.124-.194-4.691-.073-16.953.021-74.776-.237-91.724-.185-12.09-.861-24.169-1.274-36.256-.235-6.882-.324-13.77-.583-20.652-.332-8.82-.789-17.635-1.157-26.454-.347-8.307-.417-16.634 1.467-24.77 1.029-4.445 2.613-8.779 4.204-13.065 2.276-6.129 3.462-12.348 2.804-18.922-.369-3.683-.408-7.398-.597-11.1a36.496 36.496 0 0 0-.086-1.322c-.066-.726-.148-1.52-1.123-1.431-.986.089-.889.923-.856 1.623.212 4.494.347 8.995.681 13.479a35.402 35.402 0 0 1-1.941 14.577c-.879 2.493-1.702 5.007-2.679 7.459-2.711 6.817-3.802 13.96-3.89 21.229-.083 6.881.193 13.77.406 20.651.3 9.707.657 19.413 1.047 29.116.339 8.468.874 16.929 1.11 25.4.285 10.236.406 20.48.493 30.72.125 14.747.152 70.364.218 85.11.003.437-.036.871-.055 1.336-2.097 1.327-4.346 1.294-6.558.871-.929-.178-1.614-.153-2.447.28-.65.338-1.479.459-2.226.449-11.148-.181-22.3-.322-33.446-.631-8.358-.23-16.71-.679-25.064-1.05-2.498-.11-2.776-.539-2.533-3.102.821-8.695 4.718-87.648 5.836-97.996.816-7.543 1.643-15.085 2.331-22.64 1.306-14.32 2.227-28.683 3.839-42.969 1.803-15.947 4.123-31.839 6.365-47.734 1.316-9.341 2.892-18.645 4.397-27.957 1.148-7.103 3.757-13.758 6.206-20.459.389-1.066.818-2.115 1.228-3.168 11.217 0 22.359.067 33.5-.018 12.55-.095 25.101-.254 37.648-.556 2.616-.063 3.883.961 4.984 3.222 2.995 6.158 4.209 12.686 4.424 19.45Zm-41.088 280.995c.167-3.195.259-6.156.487-9.105.574-7.38 1.233-14.755 1.809-22.135.248-3.174.695-3.709 4.011-3.823 5.306-.181 10.616-.306 15.924-.424 2.071-.047 4.144-.007 6.694-.007l-4.091 35.494h-24.834Zm28.515 16.356c-.303 3.423-.53 6.86-1.032 10.254-.418 2.825.752 4.653 3.054 5.813a209.912 209.912 0 0 0 10.181 4.777c8.011 3.513 15.456 8.094 23.013 12.46 3.441 1.99 6.296 4.699 8.511 8.074.202.303.371.619.54.935-18.274.125-36.474-.147-54.627-.671-.175-.566-.363-1.126-.618-1.652-.223-.46-.837-.726-1.272-1.08-.293.397-.731.756-.843 1.201-.121.467-.193.952-.246 1.439-4.716-.144-9.429-.299-14.14-.473a159.543 159.543 0 0 1-.287-3.207c-.332-4.31-.58-8.627-.914-12.938-.151-1.931-.313-3.873-.663-5.774-.863-4.715.242-9.306.744-13.932.209-1.915.664-3.804 1.053-5.954 9.245.711 18.344-.394 27.559-2.282 0 1.113.071 2.068-.013 3.01Zm21.511 45.754c-9.138-.282-18.285-.307-27.426-.44-1.036-.014-2.07-.002-3.19-.002-.28-.782-.52-1.437-.746-2.085 4.811.17 9.621.324 14.433.417 12.927.25 25.856.314 38.784.464.553.007 1.108.023 1.66.054.246.829.409 1.72.453 2.74-1.088 0-2.098.047-3.104-.008-6.955-.38-13.905-.927-20.864-1.14Zm-48.833-3.105c1.099.022 2.2.035 3.298.071 3.526.116 7.05.246 10.576.375-.027.839 0 1.71 0 2.818-4.598.642-8.976-.311-13.551-.035-.108-1.105-.217-2.174-.323-3.229Zm-19.944-1.524c-.472-1.041-1.479-1.028-1.931.024-.279.65-.519 1.316-.749 1.987-17.856.621-35.666.926-53.448 1.035.272-1.09 1.013-1.751 2.514-2.515 1.553-.792 3.152-1.498 4.761-2.166 8.051-3.345 16.141-6.594 24.15-10.036 2.551-1.096 4.957-2.581 7.323-4.064 3.68-2.305 5.115-5.667 4.798-10.105-.382-5.344-.338-10.719-.488-16.494 10.136 2.207 20.19 3.101 30.548.287-.086 1.138-.105 1.9-.206 2.65-.545 4.108-1.129 8.21-1.652 12.322-.109.868-.084 1.768-.01 2.643.633 7.382 1.285 14.76 1.944 22.139.101 1.15.288 2.296.38 3.445a1390 1390 0 0 1-17.252.739 14.46 14.46 0 0 0-.682-1.891Zm3.008 4.97c-1.027.001-1.56-.501-1.848-1.388 5.199-.17 10.401-.343 15.6-.502.379-.012.76-.02 1.14-.024-.112.64-.309 1.279-.436 1.912-4.902 0-9.678-.004-14.456.002Zm-8.538.872c-4.005.105-8.006.336-12.01.432-6.706.16-13.413.353-20.118.342-5.748-.011-11.493-.287-17.241-.457-.421-.013-.838-.124-1.23-.184a17.143 17.143 0 0 1-.115-1.31c.715-.017 1.43-.037 2.146-.045 10.031-.095 20.064-.072 30.092-.302 6.919-.161 13.837-.369 20.755-.593l-.175.531c-.347 1.03-.959 1.554-2.104 1.586Zm-3.524-49.751c-.393-2.957-.795-5.982-1.237-9.325l25.404-.919c.53 2.06.351 6.344-.43 10.384-5.118 2.163-18.805 1.796-23.737-.14Zm52.274-11.279c.667 1.877.604 7.441-.233 8.658-.5.728-1.384 1.526-2.186 1.641-7.492 1.069-15.003 2.038-22.573.716-.329-.056-.644-.198-1.177-.367.239-3.592.475-7.141.71-10.648h25.459Zm-54.017-35.882c7.309.09 14.617.236 21.925.247 2.053.003 4.106-.403 6.162-.582.58-.05 1.17.043 2.055.085-.279 3.921-.532 7.678-.816 11.432-.484 6.414-.987 12.826-1.481 19.238-.055.703-.059 1.413-.156 2.109-.247 1.794-.501 2.075-2.294 2.222-2.512.207-5.029.379-7.548.478-4.781.188-9.564.319-14.347.46-1.027.031-2.056.006-3.382.006-1.4-11.89-2.835-23.558-3.844-35.697 1.494 0 2.611-.011 3.726.002Zm60.636-275.421c2.644.018 2.876.327 2.565 3.382-23.713.266-47.449.928-71.399.653-.106-1.116-.186-1.724-.214-2.334-.014-.338.055-.679.111-1.291 1.669-.139 3.288-.332 4.915-.403 16.634-.734 33.271.087 49.907-.04 4.705-.036 9.41.001 14.115.033Zm-78.331-44.288c-.07-.435-.076-.892-.217-1.302-.321-.943-.985-1.22-1.83-.687-.511.324-.921.806-1.394 1.196-4.526 3.729-8.931 7.627-13.634 11.111-2.635 1.953-5.694 3.382-8.698 4.741-2.731 1.234-5.49.653-7.969-.982-1.088-.717-2.156-1.52-3.068-2.45-4.786-4.877-14.514-19.086-17.529-25.542 6.557-4.667 13.143-9.357 19.912-14.177 1.966 2.989 3.824 5.844 5.715 8.676 1.02 1.527 2.06 3.042 3.179 4.493.239.305.865.304 1.313.444.115-.457.409-.965.3-1.359-.181-.663-.606-1.261-.953-1.873-1.136-2.014-1.129-2.662.412-4.445a63.834 63.834 0 0 1 3.982-4.203c8.663-8.342 17.732-16.196 27.491-23.206 2.792-2.006 5.731-3.744 9.26-3.972 1.163-.074 2.341.094 3.511.152l.17.53c-1.02.92-2.022 1.859-3.065 2.751-1.332 1.137-2.743 2.182-4.031 3.366-1.425 1.309-1.262 2.102.466 2.905 7.229 3.356 14.028 7.454 20.451 12.195.986.727 1.922 1.522 2.868 2.302 1.614 1.332 1.947 1.385 3.541-.062 1.816-1.649 3.531-3.408 5.303-5.107 1.183-1.136 2.387-2.248 3.856-3.629 1.84 26.898 1.797 53.388 2.414 80.207-14.479.263-28.747-.93-43.142.642-.305-.813-.61-1.512-.834-2.238-2.16-7.005-3.531-14.193-4.74-21.413-1.064-6.346-2.031-12.708-3.04-19.064Zm-39.209-35.779 3.74 5.875-19.788 14.117c-1.867-1.648-2.437-3.815-3.695-5.649l19.743-14.343Zm-32.275-4.023c-2.058-1.98-4.717-3.03-7.544-3.332-4.067-.434-8.159-.64-12.23-1.048-2.677-.27-5.339-.695-7.996-1.126-.62-.1-1.192-.508-2.377-1.04 1.222-.508 1.868-.92 2.562-1.04 1.542-.265 3.108-.524 4.666-.537 8.62-.07 17.24-.143 25.859-.061 5.747.053 11.49.41 17.237.538 3.081.068 5.517.869 6.99 3.992.961 2.04 2.514 3.793 3.971 5.919-6.59 4.823-12.713 9.764-19.726 14.134-1.271-2.313-2.538-4.39-3.582-6.573-1.866-3.902-4.809-6.916-7.83-9.826ZM183.47 58.421c-1.9 0-3.8-.064-5.696.015-2.513.106-5.037.196-7.521.547-1.228.173-2.52.72-3.525 1.457-1.201.883-2.149.84-3.501-.034 3.205-2.861 13.397-3.905 20.243-1.985Zm21.964-11.954c5.245 3.315 8.988 8.007 13.687 12.286-3.265.419-5.837.452-7.783-2.24-1.531-2.12-3.363-4.012-4.931-6.106-.753-1.006-1.451-2.18-.973-3.94Zm109.63 22.529c.254.044.501.13 1.107.29-2.619 3.201-5.52 5.84-8.597 8.605-7.254-5.897-15.123-10.665-23.782-15.016l8.139-6.93c3.005 2.194 6.11 4.15 8.854 6.535 4.17 3.624 8.966 5.59 14.279 6.516Zm17.45-7.454c1.006-1.695 2.502-3.115 3.882-4.554 1-1.044 2.222-1.247 3.562-.463 1.424.833 2.901 1.568 4.649 2.502L330.138 74.5c-3.009-1.198-6.512-3.508-7.798-5.064.08-.135.141-.367.246-.388 4.465-.942 7.599-3.581 9.928-7.506Zm97.276-14.71c.986-1.633 6.201-4.487 9.842-5.28-2.465 3.21-6.573 5.354-9.842 5.28Zm32.112.433c-5.254-1.019-10.559-1.046-15.887-.76-2.818.151-5.653.026-8.644.026 1.495-1.385 2.962-2.591 4.223-3.987.501-.555.902-1.635.718-2.294-.304-1.09-1.502-1.125-2.454-.916-1.181.258-2.42.532-3.455 1.123-4.846 2.767-9.686 5.555-14.408 8.533-1.657 1.045-3 2.536-4.114 4.322-1.76 2.819-3.956 5.357-5.989 8.041-.741-.155-1.389-.292-2.269-.478-5.636 8.073-11.25 16.114-16.937 24.256-.573-.38-.954-.575-1.27-.848-7.892-6.81-16.039-13.319-23.145-21.036a39.69 39.69 0 0 0-12.208-8.985c-4.332-2.06-8.853-3.353-13.668-2.188-5.015 1.213-9.215 3.705-11.725 8.51-1.681 3.218-4.142 5.578-7.717 6.193-7.234 1.245-13.835-.585-19.753-4.9-2.677-1.952-5.216-4.097-7.857-6.103-3.545-2.693-7.531-3.682-11.845-2.604-1.921.479-3.818 1.26-5.557 2.218-1.978 1.09-3.83 2.453-5.634 3.835-10.648 8.155-20.974 16.686-29.958 26.759-.166.186-.433.278-.873.551-.517-.67-1.082-1.307-1.538-2.016-2.849-4.44-5.553-8.984-8.539-13.326-3.12-4.536-5.687-9.475-10.013-13.14-4.339-3.677-8.367-7.732-12.562-11.587-.702-.645-1.497-1.262-2.357-1.642-2.093-.923-3.55.153-3.2 2.426.196 1.276.628 2.608 1.301 3.694 1.06 1.706 2.4 3.235 3.649 4.819.677.858 1.408 1.674 2.352 2.79-1.535 0-2.578.1-3.595-.018-5.358-.62-10.714-1.259-16.061-1.961-7.272-.956-14.559-1.827-21.871-.716-2.192.332-4.384 1.134-6.391 2.112-2.018.983-1.954 3.117-.052 4.396.558.375 1.269.527 1.924.737.492.157 1.103.104 1.495.383 3.398 2.431 7.364 2.48 11.255 2.824 4.164.367 8.339.623 12.5 1.031 2.479.243 4.795 1.186 6.628 2.87 2.91 2.67 5.489 5.646 7.43 9.17a839.246 839.246 0 0 0 9.63 16.994c4.788 8.222 9.877 16.249 16.136 23.422 1.535 1.761 3.39 3.315 5.325 4.617 2.656 1.789 5.681 2.282 8.753 1.138 2.032-.758 4.066-1.598 5.945-2.677 5.412-3.107 10.085-7.237 14.789-11.31.774-.671 1.567-1.32 2.323-1.956.314.292.525.391.55.527.274 1.471.551 2.941.762 4.421 1.882 13.106 4 26.158 8.109 38.788.223.68.146 1.579-.092 2.27-.717 2.072-1.602 4.083-2.388 6.132-3.383 8.826-6.021 17.85-7.318 27.26-1.12 8.126-2.466 16.22-3.584 24.347-2.069 15.028-4.307 30.042-5.986 45.117-1.61 14.465-2.554 29.006-3.885 43.504-.692 7.557-1.563 15.095-2.397 22.637-.758 6.839-5.283 92.656-5.789 98.281-.188 2.072.356 2.917 2.298 3.523.572.178 1.193.245 1.795.267 5.834.226 11.671.41 17.503.652 4.266.175 8.53.412 12.794.645.591.032 1.175.202 1.73.301l5.425 46.573c-.332.051-.585.144-.829.122-2.563-.232-3.255.5-2.96 3.103.139 1.226.269 2.457.313 3.69.154 4.41.257 8.823.406 13.234.088 2.6-.913 4.671-2.999 6.113-1.723 1.191-3.473 2.419-5.373 3.251-8.548 3.741-17.157 7.343-25.738 11.006-2.165.925-4.357 1.797-6.453 2.86-2.897 1.468-3.334 3.827-3.258 6.677.044 1.55 1.18 2.473 2.753 2.518 5.66.168 11.323.479 16.983.439 10.63-.075 21.259-.37 31.888-.541 2.551-.041 4.655-.641 5.306-3.549.022-.099.254-.148.57-.32.494 2.746 2.495 2.897 4.702 2.881 9.477-.066 18.954-.069 28.432-.1 1.504-.005 2.892-.313 3.543-1.499 1.05.28 1.85.614 2.673.683 1.211.102 2.438.032 3.657.005 13.958-.31 27.882.258 41.799 1.33 3.527.271 7.089.041 10.875.041.12-2.95-.622-5.686-2.195-8.19-2.288-3.648-5.375-6.492-9.016-8.686a248.828 248.828 0 0 0-10.47-5.977 423.287 423.287 0 0 0-12.801-6.587c-3.129-1.549-6.371-2.861-9.492-4.427-2.788-1.403-2.965-2.104-2.623-5.284.455-4.208.765-8.431 1.134-12.649.031-.35.069-.709.031-1.056-.102-.932-.558-1.448-1.566-1.277-.811.138-1.627.243-2.43.36.084-15.756 2.406-30.99 4.354-46.702 1.102 0 1.962-.013 2.822.002 6.71.116 13.42.246 20.13.35 1.219.02 2.449.028 3.658-.112 1.479-.172 1.69-.628 1.478-2.122a94.344 94.344 0 0 1-.648-5.754c-.171-2.199-.097-4.425-.375-6.607-1.579-12.43-3.291-65.713-4.835-78.146-1.066-8.581-2.054-17.175-2.86-25.783-.732-7.82-1.143-15.671-1.748-23.504-.932-12.054-2.108-24.094-2.816-36.163-.916-15.597-1.484-31.218-2.179-46.829-.397-8.907-.664-17.821-1.151-26.723-.324-5.93-2.357-11.408-5.346-16.447-1.28-2.156-1.644-4.158-.989-6.496a79.017 79.017 0 0 0 1.265-5.126c1.434-6.814 2.577-13.704 4.323-20.434 1.639-6.318 3.409-12.589 4.443-19.047.157-.986.459-1.947.779-3.273 1.445 1.158 2.55 1.996 3.601 2.898 4.855 4.165 9.689 8.356 14.542 12.523 2.776 2.38 5.917 4.08 9.508 4.729 1.15.208 2.541.267 3.555-.201 3.338-1.538 6.608-3.373 8.708-6.54 3.791-5.714 7.551-11.461 11.028-17.372 4.323-7.354 8.355-14.883 12.495-22.346.93-1.675 1.8-3.385 2.667-5.025l-1.336-1.449c1.423-2.538 2.676-5.07 4.195-7.428 3.115-4.837 7.41-7.897 13.251-8.315 2.258-.161 4.532-.352 6.789-.267 4.456.17 8.536-1.412 12.721-2.535.328-.088.638-.293.92-.497 1.614-1.176 1.573-2.866-.207-3.727-1.243-.602-2.606-1.029-3.961-1.29Z" clip-rule="evenodd"/><path fill="#000" fill-rule="evenodd" d="M315.771 94.967c.06.393.481.731.868 1.254.425-.461.954-.926.906-.998-.291-.437-.712-.785-1.09-1.163-.246.305-.724.646-.684.907ZM316.817 132.383c.388-.62.845-1.028.801-1.37-.044-.341-.586-.618-.911-.924-.304.355-.804.687-.85 1.074-.036.3.498.667.96 1.22ZM317.649 122.422c.012-.269-.583-.843-.748-.788-.408.134-.967.525-1.004.864-.036.332.5.727.975 1.339.376-.637.76-1.018.777-1.415ZM315.892 139.906c-.02.295.397.621.624.932l1.259-.948c-.515-.368-.843-.785-1.127-.755-.293.031-.735.479-.756.771ZM317.287 104.161c-.582-.298-.993-.682-1.236-.592-.372.136-.626.598-.93.922.296.226.648.686.876.628.403-.099.728-.513 1.29-.958ZM316.843 77.414c-.104-.319-.414-.57-.642-.847-.232.212-.602.396-.654.647-.047.216.268.51.518.928.365-.33.816-.61.778-.728ZM316.52 84.453c-.248.086-.405.435-.602.671.238.187.468.51.717.525.293.019.601-.23 1.377-.568-.993-.44-1.298-.697-1.492-.628ZM317.109 113.229c-.225.072-.503.462-.483.69.019.215.377.526.619.561.292.041.618-.163 1.326-.386-.987-.606-1.282-.922-1.462-.865ZM213.339 88.28c.242.272.466.739.729.762.308.028.65-.33 1.191-.646-.473-.387-.771-.816-1.041-.8-.306.018-.587.439-.879.684ZM422.224 73.98c-.051-.323-.471-.788-.76-.812-.296-.025-.628.411-.944.646l.984 1.335c.36-.551.762-.896.72-1.17Z" clip-rule="evenodd"/><path fill="#000" fill-rule="evenodd" d="M294.593 28.496c-2.583 1.168-3.942 1.27-5.308 1.715-11.951 3.895-28.559-4.684-31.489 9.93.359-3.244 1.942-7.002 8.3-9.828 2.882-1.28 7.095-1.08 11.557-.866 5.692.274 11.577.555 15.869-2.04 1.684-1.017 3.008-2.47 4.062-4.045-.065.376-.094.78-.078 1.21.007.192.032.373.054.559-.55 1.45-1.661 2.774-2.967 3.365Zm-41.967 33.632c-16.457 5.268-20.575 17.72-16.037 28.255-.807-.957-1.657-2.223-2.548-3.802-7.088-12.577 8.855-22.49 17.422-27.818.473-.293.924-.574 1.352-.842 3.642-2.288 5.029-4.86 5.443-7.395.567 4.325.278 9.71-5.632 11.601Zm46.418-41.26c-.024.018-.048.034-.071.053.035-.075.072-.148.107-.224l-.036.17Zm36.541 11.304c-2.259-3.353-2.55-7.02-2.362-11.02l.006-.075a66.78 66.78 0 0 0 .185-1.783c.515-3.68 1.702-8.27-.217-12.368-1.173-2.08-2.887-3.636-5.06-4.741-3.261-1.659-10.57-3.707-17.298-.482-1.963.861-3.652 2.032-5.011 3.56-1.939 2.18-3.527 5.356-4.726 8.564l-.135-.02c-.002.017-.051.323-.152.811a51.181 51.181 0 0 0-1.394 4.624c-.294.738-.641 1.501-1.042 2.263a3.76 3.76 0 0 0-.557.993c-1.096 1.819-2.543 3.53-4.441 4.677-4.222 2.55-10.064 2.271-15.715 2-4.495-.215-8.74-.419-11.681.89-7.38 3.278-8.446 7.807-8.552 11.386-.009.325.009.67.037 1.023a29.732 29.732 0 0 0-.132 2.528c-.004.791.434 2.458.764 4.466-.193 2.794-1.403 5.691-5.432 8.222-.427.268-.878.549-1.351.843-8.644 5.374-24.731 15.377-17.513 28.182 1.102 1.958 2.152 3.437 3.147 4.458 5.892 12.363 23.799 21.713 47.603 12.898 16.84-6.995 25.925-26.683 24.085-42.176-1.281-10.771-4.465-13.905-5.476-18.316.544-3.662 1.01-7.336 1.339-11.032.238-2.685.209-2.766-2.373-4.103-1.986-1.03-3.139-3.24-2.431-4.928.241-.577.831-1.287 1.36-1.379.469-.082 1.124.55 1.598.978.306.273 1.727 1.77 2.271 2.092.25-.501.643-.98.727-1.507.019-.125.036-.25.054-.376.238-.67.472-1.392.604-1.865.792-2.842 1.462-5.737 2.504-8.487.993-2.62 3.002-2.183 5.908-2.422 2.588-.212 8.345-.893 10.075-3.477 1.011 2.514 2.281 3.201 3.324 3.733 3.325 1.697 3.217 6.152 2.95 8.095-1.053 7.67-2.323 15.307-6.322 22.147a4.05 4.05 0 0 0-.235.478c-1.051.623-2.347.612-4.212.038-2.424-.748-4.734-1.737-6.693-3.421-.561-.483-1.263-1.294-1.968-.362-.642.85.18 1.47.789 1.917 1.047.77 2.116 1.542 3.27 2.126 2.741 1.389 5.594 2.399 8.692 1.983.059.238.134.48.232.728 1.013 2.59 1.865 5.242 2.806 7.86.054.148.121.295.181.44.489 1.716.978 3.43 1.485 5.141.294.994.225 2.304 2.291 2.822-.158-1.193-.174-2.033-.389-2.817-.391-1.424-.794-2.844-1.195-4.264 3.274-2.116 5.658-4.765 6.986-8.561.638-1.828 3.009-8.554-1.208-12.984Z" clip-rule="evenodd"/><path fill="#000" fill-rule="evenodd" d="m323.188 17.827 1.664 6.587-2.428.244.764-6.831Z" clip-rule="evenodd"/><path fill="#000" fill-rule="evenodd" d="m323.192 17.892-.754 6.752 2.4-.24-1.646-6.512Zm-.768 6.777a.013.013 0 0 1-.008-.004c-.003-.002-.004-.005-.003-.01l.763-6.83c0-.004.005-.008.011-.01.005.002.01.005.012.01l1.665 6.586c0 .004 0 .007-.003.01-.002.002-.005.005-.008.005l-2.427.243h-.002ZM319.251 12.527s.474 1.964.112 2.463c-1.745-.15-5.537.565-7.803 2.919.33-2.944 7.691-5.382 7.691-5.382Z" clip-rule="evenodd"/><path fill="#000" fill-rule="evenodd" d="M319.244 12.542a29.15 29.15 0 0 0-3.708 1.582c-1.092.568-1.976 1.143-2.627 1.71-.798.697-1.247 1.384-1.333 2.043 1.268-1.306 2.916-2.013 4.077-2.378 1.016-.318 2.522-.621 3.704-.522.333-.476-.075-2.268-.113-2.435Zm-7.684 5.38-.005-.002a.015.015 0 0 1-.007-.012c.077-.674.529-1.378 1.346-2.09.652-.57 1.538-1.147 2.631-1.714a28.755 28.755 0 0 1 3.723-1.587.01.01 0 0 1 .01 0 .011.011 0 0 1 .005.007c.001.005.119.497.191 1.045.098.738.071 1.219-.082 1.428-.002.003-.006.004-.011.004-1.181-.102-2.686.202-3.7.52-1.167.366-2.825 1.079-4.093 2.396a.009.009 0 0 1-.008.005ZM325.327 11.999s-.433 1.682-.129 2.116c1.612.147 4.065 1.085 5.685 2.236-.368-1.77-5.556-4.352-5.556-4.352Z" clip-rule="evenodd"/><path fill="#000" fill-rule="evenodd" d="M325.205 14.104c1.653.154 4.078 1.105 5.659 2.22-.402-1.7-5.243-4.163-5.53-4.308-.04.161-.406 1.678-.129 2.088Zm5.678 2.259a.022.022 0 0 1-.008-.002c-1.579-1.123-4.02-2.083-5.678-2.234-.003 0-.007-.001-.009-.005-.127-.181-.144-.595-.051-1.229.07-.47.178-.892.179-.896a.013.013 0 0 1 .005-.008c.003-.001.008-.001.011.001.013.005 1.313.655 2.641 1.511 1.227.793 2.73 1.93 2.921 2.849.001.003-.001.007-.005.01l-.006.003ZM323.103 29.02a.23.23 0 0 1-.211-.139c-.006-.013-.557-1.241-1.77-1.666-.807-.284-1.731-.158-2.751.374a.231.231 0 1 1-.214-.41c1.14-.594 2.19-.728 3.122-.399 1.405.496 2.01 1.858 2.035 1.916a.23.23 0 0 1-.211.323ZM317.744 21.48c-.604.036-1.206-.076-1.767-.26.207.06.428.094.659.094 1.148 0 2.082-.819 2.082-1.826 0-.405-.315-.89-.614-1.226 1.471.137 2.762.902 3.24 1.216-.427.506-1.755 1.888-3.6 2.001Zm-3.133-2.493a2.74 2.74 0 0 0-.056.501c0 .732.493 1.362 1.202 1.653-1.084-.4-1.98-1.047-2.362-1.348.222-.19.636-.507 1.216-.806Zm7.206.258c-.077-.059-1.923-1.438-4.091-1.465-2.977-.036-4.776 1.785-4.851 1.862a.234.234 0 0 0-.065.17.237.237 0 0 0 .078.165c.095.082 2.259 1.972 4.619 1.972.088 0 .176-.002.265-.008 2.475-.153 4.029-2.287 4.094-2.377a.23.23 0 0 0-.049-.319ZM327.902 21.014c-.529.038-1.06-.091-1.546-.295.084.016.169.027.255.027.924 0 1.676-.752 1.676-1.675 0-.404-.142-.784-.398-1.083.103-.006.207-.01.313-.01 1.167 0 2.233.822 2.608 1.145-.332.461-1.411 1.783-2.908 1.891Zm-3.49-1.57c.121-.104.303-.25.537-.409a2.117 2.117 0 0 0 .704 1.327 7.825 7.825 0 0 1-1.241-.918Zm6.866-.521c-.059-.058-1.44-1.408-3.076-1.408-2.532 0-4.224 1.692-4.294 1.763a.232.232 0 0 0-.001.324c.021.02.5.51 1.23.986.911.594 1.775.896 2.574.896.076 0 .151-.004.224-.01 2.046-.146 3.323-2.18 3.376-2.266a.232.232 0 0 0-.033-.285Z" clip-rule="evenodd"/></svg>