<svg xmlns="http://www.w3.org/2000/svg" width="379" height="528" fill="none"><path fill="#90CAF9" fill-rule="evenodd" d="M378.423 525.327c-17.98-166.316-50.986-261.78-99.019-286.393-72.048-36.92-151.712-24.23-170.524-7.058C90.069 249.047 0 431.112 0 484.922v40.405h378.423Z" clip-rule="evenodd"/><path fill="#2761F3" fill-rule="evenodd" d="m60.534 420.589 71.972-.449s1.358-4.809-2.438-13.756c-1.499-3.535-4.436-6.382-5.196-10.49-1.806-9.771 1.637-21.717 2.768-26.975-43.59 14.967-40.891.545-53.438 3.762.698 4.198 1.837 13.777-1.436 23.88-5.788 6.849-12.232 24.028-12.232 24.028ZM242.368 416.354l80.284-.501s-.479-6.986-6.952-14.237c-4.513-5.056-8.233-5.849-8.994-9.957-1.806-9.771-23.842-33.12-22.711-38.377-43.589 14.966-43.496 9.211-56.043 12.428.698 4.197 14.416 50.644 14.416 50.644Z" clip-rule="evenodd"/><path fill="#fff" fill-rule="evenodd" d="M75.938 371.265s10.729 4.488 21.018 4.485c10.289-.004 28.787-7.103 28.787-7.103v-12.045s11.803-2.139 12.905-3.132c1.104-.992 2.206-14.054 2.206-14.054h-3.75l-4.126-97.017s8.558-4.743 10.258-5.073c1.7-.332 12.838-4.191 18.796-4.523 5.956-.331 11.03.11 13.346 0 2.316-.11 15.404 5.404 15.404 5.404l7.979 30.554 20.405 78.092-3.092 1.212v5.956l.556 5.233 2.536.614 4.965-1.655 1.873 5.441h6.619l46.071-9.592v-11.12l16.358-5.796-.702-11.03-3.535-.661-17.711-40.04-14.169-39.775-15.723-30.485-11.692-17.096s-13.126-12.133-18.641-11.14c-5.514.992-26.453 13.126-26.453 13.126s-11.638 7.067-23.567 7.169c-11.93.101-17.63-1.892-17.63-1.892s-24.166-10.623-32.066-10.664c-11.272-.06-23.597 4.614-23.597 4.614s-6.508 4.996-7.942 8.675c-1.434 3.679-5.686 23.974-5.686 23.974l-1.594 24.596-1.323 18.641-3.971 63.422-1.876.11-1.693 2.647-.843 12.794 2.096 1.545 8.162 1.656 1.042 13.933Z" clip-rule="evenodd"/><path fill="#2761F3" fill-rule="evenodd" d="M56.198 156.633S68.531 87.981 79.45 84.01c10.919-3.97 43.402-18.486 43.402-18.486s13.162 24.138 34.327 18.854c13.232-3.304 19.232-20.64 19.232-20.64s29.384-5.063 36.873-.972c2.032 1.109 10.098 21.137 15.882 36.862 3.766 10.242-10.023 29.431-9.426 32.675 1.864 10.133-8.75 12.357-8.75 12.357s1.257 41.307-.219 42.181c-26.842 15.899-57.987 25.178-65.058 18.066-2.388-2.402-12.956-27.826-12.956-27.826s-35.143-14.679-36.166-10.97c-1.024 3.711-40.393-9.478-40.393-9.478Z" clip-rule="evenodd"/><path fill="#000" fill-rule="evenodd" d="M131.465 209.425c.139-.051.279-.103.418-.156l-.284-1.051-.623.21.489.997Zm1.925 3.896c-.935 1.502-1.525 3.033-.635 5.164 1.13-1.927 1.733-3.437.635-5.164ZM322.235 35.756c-3.027-2.478-9.209-3.206-12.726-1.829 2.159.259 4.31.803 6.426.686 2.081-.116 3.62 2.278 6.3 1.143ZM91.617 197.336c3.703-1.277 7.554-1.905 11.159-3.467-3.092-.146-6.13-.04-9.162.117-2.333.124-2.497.395-1.997 3.35Zm119.372-52.675c5.074-1.633 6.211-3.05 5.934-7.285-1.81.689-3.538 1.291-5.208 2.026-.431.188-.939.786-.957 1.216-.053 1.245.123 2.5.231 4.043Zm4.97 18.159c-.371-3.129-.753-5.845-1.001-8.573-.256-2.829-.383-5.669-.571-8.585-3.127 1.012-3.301 1.15-3.07 3.733.249 2.794.598 5.583 1.025 8.354.323 2.102 1.504 3.682 3.617 5.071Zm38.154 225.518c2.04-1.116 3.654-1.99 5.257-2.884 1.551-.861 3.13-1.683 4.626-2.632 1.472-.932 3.377-1.301 4.439-3.072-4.665-.654-13.948-.248-16.153.757l1.831 7.831ZM72.767 396.56c.562-.071.883-.019 1.072-.151 2.984-2.105 5.983-4.192 8.89-6.398.449-.34.75-1.309.632-1.886-.809-3.947-1.727-7.871-2.667-11.789-.145-.607-.437-1.422-.908-1.665-1.623-.838-3.197-1.921-5.584-1.99.989 8.077-.087 15.925-1.435 23.879Zm52.064-2.253 2.809-25.388c-3.958 1.78-7.355 3.275-10.71 4.857-.422.2-.84.831-.9 1.307-.487 3.895-.909 7.8-1.305 11.706-.141 1.394.637 2.176 1.856 2.813 2.151 1.124 4.201 2.442 6.3 3.665.616.358 1.257.671 1.95 1.04Zm130.728 11.883.514.194c1.274-1.889 2.464-3.842 3.849-5.646 1.425-1.853 2.937-3.666 4.604-5.301 1.599-1.57 3.335-3.063 5.218-4.266 1.961-1.253 4.118-2.254 6.287-3.119 2.118-.848 4.361-1.385 6.728-2.112-.547-1.312-.927-2.263-1.339-3.198-1.606-3.637-2.265-4.052-6.157-3.393-1.171.199-2.338.69-3.391 1.26a1161.08 1161.08 0 0 0-14.777 8.176c-2.751 1.544-2.606 1.559-2.312 4.666.342 3.63.426 7.284.628 10.927.033.604.097 1.208.148 1.812Zm-12.99 10.616c-.595 3.932-.363 4.194 3.067 5.001 2.621.615 4.986-.299 7.441-.853 1.034-.232 2.444-.561 3.173-.078 2.837 1.878 5.788 2.093 8.873 1.144 1.579-.485 2.888-.213 4.313.458 2.098.987 4.463 1.419 6.571.54 2.223-.927 4.344-.783 6.597-.712 1.442.043 3.105-.122 4.307-.82 1.888-1.096 3.618-1.888 5.786-1.042.416.161.93.079 1.4.093 4.26.122 8.519-1.196 12.782-.008.172.048.385.034.559-.018 2.343-.698 4.599-.241 6.896.349.952.245 2.039-.004 3.062-.067a97.087 97.087 0 0 0 3.885-.309c1.008-.105 2.066-.131 2.991-.487.424-.166.843-1.072.773-1.573-.06-.423-.778-.908-1.297-1.073-.6-.191-1.301-.075-1.958-.074-6.103.005-12.206-.002-18.309.026-9.387.044-18.773.215-28.158.136-8.256-.071-16.511-.427-24.766-.623-2.603-.062-5.209-.01-7.988-.01Zm-129.811-28.92c.065-4.582 1.449-8.616 1.135-13.145-10.532 2.386-20.834 2.806-31.667.999 1.171 4.641 1.845 8.836 3.034 13.103 9.152-2.591 18.067-2.864 27.498-.957Zm173.19-15.51c-1.483.935-2.561 1.625-3.649 2.295-.76.468-1.554 1.071-1.022 1.983.287.493 1.179.702 1.84.883.527.144 1.147-.046 1.673.099.415.116.752.514 1.469 1.043l-4.175 1.114c.699 1.647 1.329 3.077 1.914 4.525.453 1.122 1.2 1.487 2.425 1.386a39.255 39.255 0 0 1 16.072 2c.47.161 1.018.087 1.907.15-3.982-5.677-7.889-10.925-11.444-16.4-3.601-5.547-6.855-11.321-10.337-17.12-1.411.325-2.786.586-4.125.965-1.73.49-1.921.772-1.558 2.643a760.703 760.703 0 0 0 2.705 13.223c.147.693.536 1.334.767 1.886 1.922.334 3.051-2.3 5.538-.675Zm-60.732-13.288c.575 5.24.754 5.372 5.342 4.31.183-.043.361-.107.542-.153 10.354-2.635 20.756-5.015 31.329-6.638 4.795-.735 9.523-1.901 14.424-2.899.59-3.359.701-6.545.532-10.173-17.902 4.464-34.877 10.321-52.169 15.553ZM96.526 155.834c-.962-.086-1.698-.118-2.426-.222-3.792-.546-7.705-.693-11.348-1.754-6.908-2.012-13.9-3.846-20.385-7.149-3.937-2.005-4.558-1.636-6.014 2.533-.123.354-.184.732-.333 1.074-.881 2.03-.325 3.729 1.368 4.969 1.574 1.152 3.2 2.334 4.979 3.09 9.278 3.937 18.868 6.696 29.01 7.21 1.657.085 3.305.33 5.213.527.522-3.572.299-6.865-.064-10.278ZM60.738 419.777c-.07.276-.19.542-.203.812-.214 4.662.38 5.263 4.801 4.178 2.025-.496 3.579-.151 5.262 1.009.908.628 2.352 1.042 3.39.81 2.18-.486 4.245-1.484 6.427-.052.175.117.539-.094.815-.086 1.184.028 2.366.113 3.548.117 1.023.005 2.043-.083 3.064-.113 4.164-.123 8.328-.244 12.493-.348.266-.007.536.201.808.215 1.192.061 2.422.298 3.568.087 3.599-.659 7.184.325 10.772-.069 1.454-.157 2.933-.074 4.392-.181.645-.046 1.281-.436 1.913-.417 2.759.081 5.521.198 8.273.41 4.234.325 5.492-1.058 4.723-5.211-.231-1.248-.885-1.796-2.084-1.817-.939-.019-1.879-.05-2.817-.027-5.629.143-11.258.312-16.888.451-6.757.171-13.515.4-20.275.454-5.347.044-10.695-.172-16.045-.213-5.238-.041-10.477-.009-15.937-.009Zm181.516-57.055c.769.967 1.476 1.914 2.246 2.81 2.4 2.793 4.428 5.801 5.663 9.309 1.128 3.204 1.206 3.272 4.639 3.201 5.433-.114 10.864-.373 16.298-.418 2.065-.018 3.852-.574 5.563-1.629 2.036-1.254 2.028-1.234 1.541-3.579-.988-4.763-1.948-9.534-2.946-14.296-.111-.528-.393-1.02-.576-1.477-3.387-.267-29.501 4.578-32.428 6.079Zm-117.381-5.848c-16.408 2.381-32.256 1.773-48.09 1.679-.26-.002-.52.161-1.067.344.448 3.953.914 7.922 1.846 11.815.145.608.814 1.306 1.408 1.548 1.9.771 3.836 1.575 5.835 1.955 5.546 1.047 11.124 1.292 16.78.672 6.371-.698 12.54-1.838 18.489-4.418 2.952-1.281 4.575-2.744 4.413-6.085-.113-2.297.218-4.613.386-7.51Zm116.873 38.522c1.059-.75 1.644-1.265 2.315-1.62 2.071-1.095 4.193-2.099 6.262-3.198 2.083-1.107 2.214-1.359 1.813-3.519a56.098 56.098 0 0 0-1.063-4.656c-.676-2.467-.954-2.645-3.53-2.485-.833.052-1.736.35-1.924-1.154l3.559-1.28c-1.375-5.843-4.872-10.044-8.99-13.82-.409-.373-1.255-.561-1.811-.441-3.359.733-6.692 1.583-10.423 2.486.579 1.977 1.03 3.664 1.565 5.324 2.607 8.117 5.399 16.181 7.798 24.36 1.447 4.934 2.293 10.044 3.408 15.074.794 3.59 2.675 5.081 6.083 4.841 1.752-.126 3.507-.22 5.492-.342.821-.829 1.055-2.067 1.099-3.416.05-1.587.265-3.172.301-4.759.072-3.278.228-6.564.043-9.831-.096-1.7-.074-3.558-1.304-5.416-1.713.852-3.317 1.779-5.016 2.465-1.597.644-2.969 2.222-5.677 1.387ZM139.625 340.87c-.745-.04-1.048-.138-1.288-.053-1.401.493-2.852.901-4.163 1.578-3.402 1.757-7.149 2.187-10.797 3.003-7.334 1.643-14.71 2.977-22.282 2.515-1.965-.12-3.931-.281-5.88-.542-8.286-1.106-16.479-2.628-24.246-5.883-1.193-.501-2.344-1.101-3.817-1.799-.316 1.057-.697 1.901-.807 2.778a239.254 239.254 0 0 0-1.024 9.513c-.204 2.404-.019 2.824 2.413 3.309 3.296.658 6.656 1.324 9.996 1.372 12.015.175 24.047.828 36.036-.449 7.362-.784 14.705-1.746 22.042-2.736 2.584-.347 3.151-1.013 3.487-3.57.281-2.138.412-4.299.533-6.454.046-.81-.121-1.634-.203-2.582Zm77.442 18.655c1.645-.417 2.728-.645 3.785-.966 15.166-4.587 30.308-9.262 45.506-13.743 5.002-1.474 9.926-3.411 15.265-3.534.703-.015 1.395-.507 2.094-.774 1.13-.429 2.245-.903 3.394-1.271 1.697-.541 3.403-1.074 5.135-1.484 1.447-.342 2.008-1.055 1.86-2.59-.189-1.957-.103-3.939-.195-5.908-.033-.704-.236-1.399-.405-2.353-2.071.354-3.941.529-5.731 1.003a3047.77 3047.77 0 0 0-28.506 7.687c-4.7 1.293-9.367 2.706-14.038 4.096-4.674 1.389-9.284 3.025-14.015 4.167-4.739 1.143-8.908 3.845-13.728 4.69-1.024.179-1.757.789-1.618 1.937.344 2.859.751 5.71 1.197 9.043Zm-32.473-156.643c-.315-.073-.516-.19-.665-.141-.713.229-1.422.473-2.11.767-11.481 4.89-23.278 6.193-35.469 3.181-.561-.137-1.187-.017-1.929-.017.82 5.178-.665 9.633-3.074 13.702-2.092 3.532-4.637 6.811-7.146 10.076-.913 1.187-1.536 2.291-1.435 3.798.107 1.592.073 3.194.205 4.78.057.689.377 1.356.66 2.315 1.173-.61 2.066-1.088 2.97-1.542 1.757-.883 3.463-1.905 5.292-2.606 8.745-3.354 17.805-5.102 27.191-5.212 6.652-.078 13.128.48 18.951 4.135.188.118.513.015 1.09.015-2.185-11.065-5.019-21.964-4.531-33.251Zm140.249 212.531c-5.647-20.391-22.446-29.672-38.9-27.984-17.338 1.778-28.114 15.64-31.02 27.666 23.254 1.857 46.461.271 69.92.318Zm-191.258 2.14c.168-.5.306-.692.273-.847a169.685 169.685 0 0 0-1.126-4.929c-2.671-10.753-9.197-18.013-19.664-21.726-4.897-1.736-9.97-1.582-15.036-1.516-7.957.103-15.084 2.389-21.225 7.677-5.82 5.01-11.129 10.381-14.382 17.467-.521 1.137-.867 2.357-1.424 3.892 24.556 1.551 48.623.26 72.584-.018ZM62.06 160.421c-.316 1.354-.615 2.244-.725 3.156-.447 3.726-.883 7.452-1.233 11.187a136.526 136.526 0 0 0-.524 8.139c-.132 3.97 1.899 6.65 5.478 8.001 2.254.851 4.672 1.335 7.057 1.76 6.644 1.185 13.294-.019 19.942-.128 8.066-.132 16.131-.303 24.198-.343 4.061-.021 7.706 1.415 10.06 4.769 3.067 4.365 5.786 8.98 8.549 13.552 1.002 1.661 1.122 3.603.594 5.469-.661 2.339-1.507 4.626-2.229 6.947-.302.972-.661 1.975-.685 2.973-.028 1.189 1.208 1.721 2.208 1.04.378-.257.723-.621.971-1.009a717.798 717.798 0 0 0 6.149-9.737c.28-.455.316-1.062.473-1.596 1.584-5.354.087-10.449-1.617-15.406-1.676-4.873-3.873-9.563-5.769-14.361-1.315-3.326-3.646-5.645-6.796-7.183-1.346-.658-2.727-1.272-4.144-1.747-4.622-1.547-9.27-3.017-13.904-4.524-6.626-2.156-13.406-3.49-20.366-3.956-2.516-.169-5.1-.241-7.51-.889-5.694-1.529-11.303-3.373-16.946-5.094-.969-.295-1.932-.61-3.231-1.02ZM318.6 37.636c-.533-.376-.924-.859-1.386-.942-1.561-.281-3.151-.607-4.724-.583-7.87.126-15.738.407-23.61.531-6.667.107-13.343-.099-20.003.162-4.936.193-9.908.204-14.713 1.957-3.365 1.228-5.709 3.207-6.796 6.54-.485 1.482-.529 3.111-.769 4.674-.368 2.393-.435 4.88-1.145 7.167-5.034 16.214-9.883 32.476-14.394 48.85-3.258 11.831-7.709 23.33-11.499 35.017a68.445 68.445 0 0 0-2.443 10.097c-.707 4.366.232 8.584 2.007 12.621.601 1.368 1.597 2.194 2.927 2.861 5.264 2.64 10.852 2.774 16.51 2.219 3.421-.335 6.141-1.981 8.3-4.749 2.961-3.794 4.644-8.146 5.88-12.687 4.365-16.019 8.48-32.087 11.47-48.447 2.614-14.305 5.159-28.611 7.326-42.99.612-4.053.978-8.194 2.759-12.027 1.27-2.736 3.084-4.719 6.062-5.387 1.913-.428 3.863-.804 5.815-.928 4.773-.298 9.561-.363 14.336-.665a235.27 235.27 0 0 0 12.887-1.152c1.793-.214 3.705-.483 5.203-2.139Zm-213.57 308.667c1.87-.118 4.717-.057 7.48-.52 5.356-.896 10.665-2.064 15.983-3.175 1.149-.24 2.368-.393 2.891-1.865.164-.461 1.189-.741 1.865-.873 2.005-.398 2.465-.62 2.629-2.608.185-2.235.165-4.506.023-6.747-.454-7.214-1.147-14.414-1.492-21.631-.747-15.664-1.328-31.335-1.993-47.002-.247-5.817-.48-11.635-.834-17.444-.268-4.398-.783-8.78-1.072-13.177-.304-4.674-.337-9.37-.738-14.033-.338-3.92-.878-7.839-1.612-11.704-.964-5.079-5.057-8.591-10.187-9.333-7.731-1.116-15.356-.761-22.8 1.751-6.44 2.173-11.458 5.934-13.749 12.643-.332.976-.75 1.926-1.036 2.916-2.073 7.145-3.306 14.455-3.9 21.852-.547 6.831-.77 13.685-1.238 20.521-.827 12.08-1.804 24.148-2.586 36.232-.952 14.708-1.769 29.425-2.635 44.139-.167 2.829-.046 3.108 2.694 4.128 10.11 3.763 20.58 5.665 32.307 5.93Zm183.876-21.832c-.241-.599-.494-1.295-.798-1.969-2.937-6.499-6.158-12.884-8.764-19.512-4.255-10.828-7.997-21.853-12.163-32.717a481.042 481.042 0 0 0-23.981-52.781c-2.626-4.961-5.706-9.723-8.969-14.297-3.622-5.077-8.097-9.388-13.729-12.301-3.539-1.828-7.334-2.689-11.151-1.321-4.665 1.673-9.203 3.713-13.76 5.676-2.665 1.148-4.534 3.324-6.315 5.497-2.275 2.778-3.494 5.941-2.942 9.647.583 3.895.844 7.85 1.629 11.7 1.684 8.253 3.47 16.491 5.482 24.668 2.732 11.112 5.671 22.174 8.6 33.238 5.616 21.219 11.286 42.426 16.941 63.636.186.698.446 1.377.725 2.227.702-.173 1.234-.277 1.749-.434 13.28-4.024 26.53-8.144 39.843-12.049 7.916-2.321 15.924-4.32 23.899-6.43 1.486-.393 2.898-.81 3.704-2.478ZM96.377 153.517c.095-.585.248-1.122.26-1.663.172-7.891.317-15.783.49-23.675.024-1.023.096-2.061.314-3.055.077-.35.656-.59 1.344-1.161-.541 14.435-.472 28.374-.27 42.383 1.029.34 1.808.639 2.611.852 2.989.795 6.03 1.428 8.972 2.367 5.81 1.852 11.64 3.674 17.317 5.879 4.492 1.745 8.016 4.685 9.64 9.593 1.942 5.87 4.256 11.618 6.27 17.467.453 1.319 1.073 2.175 2.388 2.403 3.691.641 7.372 1.548 11.093 1.765 10.203.596 19.672-2.311 28.736-6.736.737-.36 1.311-1.042 1.996-1.523 2.216-1.557 4.291-3.43 6.71-4.565 5.336-2.502 10.848-4.628 16.523-7.007.855-7.788.006-15.842-.374-23.869-.384-8.147-1.523-16.254-2.213-24.389-.679-8.007-2.145-15.886-4.014-23.895 1.732-.082 1.898.857 2.076 1.764.936 4.784 1.822 9.579 2.814 14.353.484 2.33.188 4.848 1.496 7.137 1.811-.639 3.453-1.337 5.16-1.791 2.103-.557 3.346-1.768 4.024-3.849 3.167-9.725 6.453-19.412 9.583-29.15.34-1.058.192-2.434-.158-3.525a150.264 150.264 0 0 0-3.616-10.067c-2.129-5.312-4.187-10.668-6.68-15.811-1.496-3.089-3.491-6.036-5.735-8.64-4.58-5.316-10.654-7.134-17.526-6.314-5.213.622-10.401 1.476-15.619 2.052-1.965.218-2.905 1.037-3.578 2.89-1.179 3.248-2.366 6.585-4.174 9.496-5.78 9.314-13.979 13.05-24.96 10.961-8.753-1.665-15.183-6.596-20.229-13.66-.701-.982-1.379-1.98-2.165-3.113-.873.224-1.683.392-2.466.643-2.41.774-4.806 1.59-7.214 2.372-11.236 3.652-22.701 6.71-33.15 12.425-2.864 1.567-5.522 3.524-8.213 5.391-1.679 1.166-2.528 2.868-3.106 4.863-3.272 11.287-5.613 22.78-7.808 34.309-.79 4.147-1.67 8.285-2.228 12.467-.502 3.759-.245 4.062 3.154 5.609 7.54 3.433 15.41 5.905 23.516 7.552 2.898.59 5.884 1.176 9.01.465Zm-7.197 41.072c-2.19 0-4.242.058-6.29-.013a662.634 662.634 0 0 1-12.918-.566c-.925-.05-1.854-.295-2.753-.55-8.015-2.28-9.695-6.142-9.409-13.18.153-3.741.788-7.463 1.213-11.193.31-2.704.596-5.413.97-8.108.149-1.075-.156-1.766-1.083-2.338-.954-.588-1.819-1.324-2.712-2.008-1.949-1.49-2.517-3.526-1.9-5.78a33.71 33.71 0 0 1 2.177-5.776c.401-.826 1.393-1.368 1.834-1.777 1.935-9.999 3.683-19.784 5.76-29.496 1.552-7.244 3.556-14.392 5.308-21.594.486-1.999 1.388-3.738 3.034-4.935 2.726-1.98 5.432-4.037 8.358-5.684 6.984-3.927 14.489-6.636 22.132-8.984 4.484-1.378 8.903-2.966 13.402-4.284 3.7-1.086 6.936-3.124 10.396-4.7 2.391-1.088 4.782-2.183 7.188-3.238.371-.162.831-.12 1.524-.206-.649 2.389-2.676 2.472-4.118 3.251-1.471.795-3.027 1.43-4.847 2.277.513 1.102.828 2.061 1.36 2.879 5.61 8.657 13.455 13.748 23.83 14.57 6.07.481 11.258-1.653 15.541-5.937 3.597-3.6 5.877-7.99 7.366-12.812.186-.598.182-1.258.264-1.866-1.823-1.033-3.989.485-6.02-1.118.765-.349 1.131-.618 1.529-.682 2.676-.429 5.355-.835 8.04-1.208 4.178-.581 8.35-1.222 12.542-1.667 3.347-.356 6.722-.657 10.081-.627 4.842.044 8.832 2.308 12.304 5.526 2.505 2.321 4.612 5.005 6.025 8.099 2.687 5.884 5.217 11.842 7.736 17.802 1.023 2.419 1.842 4.923 2.782 7.376.154.402.463.744 1.005 1.587.487-1.222.872-2.015 1.127-2.848 3.866-12.657 7.775-25.303 11.523-37.997.79-2.674 1.044-5.518 1.42-8.301.719-5.31 2.908-9.401 8.377-11.208 3.329-1.102 6.683-1.833 10.185-1.937 6.664-.199 13.332-.316 19.985-.69 3.168-.177 6.3-.92 9.462-1.3 8.199-.986 16.395-2.035 24.694-1.447 1.935.138 3.722.595 5.225 1.82 1.345 1.097 1.407 2.674-.017 3.552-3.562 2.196-7.068 4.595-11.56 4.503-1.398-.03-2.799.29-4.204.376-4.211.258-8.428.443-12.637.725-4.208.282-8.416.57-12.609 1-3.223.331-5.122 2.256-6.267 5.299-1.577 4.19-1.98 8.59-2.636 12.929-2.134 14.107-4.665 28.14-7.257 42.17-3.022 16.361-7.173 32.43-11.677 48.419-.833 2.958-2.113 5.825-3.46 8.601-3.133 6.454-8.349 9.463-15.58 9.599-7.17.135-13.433-2.188-19.355-5.884-.635-.396-1.237-.845-1.861-1.261-.072-.048-.178-.049-.514-.135-.091.607-.256 1.194-.255 1.779.012 6.48.052 12.962.079 19.442.008 2.089.148 2.396 2.048 2.649 4.563.605 8.293 2.894 11.76 5.694 6.237 5.037 10.878 11.399 14.799 18.306 7.243 12.754 13.332 26.068 19.347 39.434 6.679 14.842 11.437 30.397 17.454 45.476 3.478 8.712 7.535 17.194 11.319 25.784.757 1.719 1.682 3.105 3.889 3.03 1.101-.038 1.691.775 1.75 1.838.175 3.187.359 6.376.426 9.567.031 1.457-1.063 2.009-2.33 2.421-3.922 1.28-7.813 2.654-11.721 3.977-2.68.906-2.699.897-2.758 3.736-.034 1.69-.022 3.382-.006 5.072.003.266.134.529.195.755.21.115.36.267.522.28 1.463.115 3.42-.344 4.283.427 1.371 1.226 2.039 3.255 2.954 4.97.481.902.766 1.915 1.291 2.787 6.019 9.994 12.723 19.515 20.017 28.617.577.721 1.327 1.317 2.046 1.908 6.381 5.259 11.91 11.195 15.088 18.99.948 2.325 1.997 4.574 1.574 7.292-.502 3.209-1.432 4.535-4.549 4.326-1.895-.126-3.698.063-5.547.224-1.208.106-2.496.166-3.643-.144-1.885-.51-3.664-.355-5.556-.087-1.428.201-2.943-.276-4.425-.385-1.081-.077-2.199-.217-3.248-.031-2.601.462-5.155.919-7.802.207-1.268-.342-2.535-.265-3.753.6-2.273 1.614-4.855 1.745-7.553 1.289-.959-.161-2.115-.147-2.974.245-2.854 1.303-5.677 1.117-8.48.08-1.741-.644-3.391-.779-5.215-.375-2.707.603-5.446.597-7.887-.992-1.194-.777-2.284-.536-3.478-.147-3.197 1.044-6.423 1.266-9.679.256-1.615-.499-2.452-1.573-2.664-3.256-1.566-12.517-4.572-24.687-8.884-36.535-1.244-3.42-2.63-6.788-3.924-10.191-.3-.788-.533-1.607-.725-2.427-.489-2.088-.847-4.147-2.189-6.004-.875-1.213-1.04-2.94-1.612-4.716-1.529.389-2.847.785-4.19 1.051-2.582.51-3.494-.075-3.877-2.667-.372-2.505-.555-5.039-.818-7.559-.163-1.554.23-2.865 1.858-3.365 1.57-.487 1.69-1.463 1.329-2.841-2.11-8.079-4.122-16.186-6.281-24.252-5.17-19.311-10.446-38.593-15.584-57.911-1.76-6.619-3.304-13.298-4.811-19.98-.45-1.997-1.464-3.284-3.122-4.41-4.449-3.02-9.438-4.117-14.66-4.28-10.83-.338-21.317 1.508-31.358 5.581-2.507 1.017-4.831 2.508-7.165 3.903-.519.31-.992 1.126-1.025 1.735-.099 1.777.019 3.567.083 5.351.327 9.012.58 18.028 1.015 27.036.655 13.602 1.431 27.198 2.171 40.794.291 5.347.657 10.691.916 16.038.072 1.477-.114 2.963-.19 4.627.699.054 1.228.12 1.758.132 1.389.029 2.135.771 2.069 2.111-.172 3.557-.294 7.127-.715 10.66-.257 2.15-1.712 3.414-3.995 3.717-3.239.432-6.458 1.015-9.928 1.573l-.758 9.987c.634.076.98.112 1.324.162 2.076.308 2.401.699 2.131 2.747-.578 4.373-1.214 8.739-1.772 13.114-.569 4.474-1.025 8.966-.393 13.469.123.873.531 1.801 1.068 2.505 3.245 4.26 5.435 8.94 6.414 14.243.358 1.952 1.371 3.783 2.131 5.792-.065 1.276-.273 2.818-.194 4.346.138 2.609-.459 3.724-2.973 4.259-1.331.283-2.753.162-4.136.187-1.299.021-2.604-.055-3.901-.004-3.05.121-6.101.441-9.145.39-1.664-.028-3.3-.385-4.991-.007-.792.178-1.751.156-2.5-.129-1.342-.51-2.558-.316-3.83.109-1.455.487-2.866.557-4.38-.014-.89-.336-1.977-.181-2.977-.196-1.952-.034-3.904-.022-5.856-.055-.369-.007-.785-.286-1.095-.184-3.011.99-6.09.442-9.14.453-.925.003-1.85-.175-2.776-.196-.988-.021-2.055-.185-2.952.116-2.42.812-4.536.547-6.65-.925-.753-.524-1.89-.658-2.856-.67-1.011-.013-2.018.395-3.04.513-2.926.336-4.122-.454-4.468-3.3-.315-2.589-.42-5.144.682-7.729 2.276-5.328 5.131-10.241 9.157-14.424 1.083-1.125 1.568-2.378 1.923-3.921 1.867-8.122 2.597-16.302 1.96-24.614-.157-2.059.044-2.176 2.96-3.208-.499-3.164-1.03-6.384-1.506-9.612-.199-1.343-.924-1.816-2.243-2.02-1.938-.297-3.862-.792-5.727-1.403-2.085-.681-2.487-1.184-2.334-3.27.305-4.208.761-8.406 1.225-12.6.201-1.81 1.076-3.185 3.096-3.474.231-2.557.515-4.977.658-7.404.637-10.878 1.186-21.76 1.86-32.635.634-10.216 1.404-20.425 2.076-30.639.63-9.558 1.19-19.12 1.812-28.678.551-8.456 1.873-16.799 4.214-24.94 1.59-5.525 4.211-10.45 9.396-13.571 1.974-1.187 1.335-3.015 1.026-4.807Z" clip-rule="evenodd"/><path fill="#000" fill-rule="evenodd" d="M241.882 370.877c-.476.346-.757.698-.952.657-.26-.057-.513-.389-.648-.664-.044-.091.302-.538.44-.523.303.03.587.251 1.16.53ZM286.175 366.465c-.379.151-.667.368-.816.297-.164-.078-.237-.419-.266-.656-.008-.062.336-.267.436-.223.208.093.36.309.646.582ZM173.365 10.289c-.279 1.903-.838 3.442-1.576 4.682a55.715 55.715 0 0 0-.078-2.079c1.177-2.32 1.777-4.926 1.332-6.793a9.312 9.312 0 0 1 .322 4.19Zm-10.154 8.921c-2.339-.243-5.977-1.653-6.722-3.669-.272-.73-.139-1.498.378-2.283-.364 1.136-.064 2.833 1.393 3.87 2.615 1.858 7.314 2.07 10.037.06a9.248 9.248 0 0 0 1.306-1.198c-.003.5-.019 1.001-.034 1.503-1.937 1.477-4.283 1.935-6.358 1.717Zm-3.282-17.552c1.29-1.005 2.886-1.447 4.758-1.34-2.595.104-5.429 1.456-7.316 5.337.416-1.422 1.206-2.945 2.558-3.997Zm13.075 4.297c-.014-.06-.034-.118-.051-.176.021.056.032.118.051.176ZM168.156.727c-3.486-1.165-6.318-.928-8.408.7-1.555 1.21-2.408 2.979-2.794 4.565-.092.011-.183.023-.275.033-2.87-1.07-5.828-.658-8.263.7-1.093.612-1.699 1.385-2.785 2.013-.802.494-1.604.988-2.406 1.484-2.418 2.034-4.443 4.345-4.459 7.534-.004.929.312 3.24.787 5.46-.408-.067-.65-.089-.864-.16-3.414-1.13-6.015.792-5.883 4.387.097 2.674 1.38 4.738 3.751 5.852 1.384.652 1.704 1.412 1.583 2.816-.764 8.893-2.21 17.678-4.026 26.41-.211 1.005-.03 2.09-.03 3.214 1.849-.063 1.778-1.21 1.988-2.18 1.957-9.088 3.456-18.247 4.28-27.512.257-2.897.227-2.984-2.559-4.426-2.142-1.11-3.384-3.493-2.622-5.314.261-.62.898-1.388 1.467-1.487.507-.088 1.212.595 1.724 1.054.329.296.378.906.711 1.193.508.438 1.152.718 1.738 1.065.061-.122.131-.242.202-.363.044.07.088.147.133.202.068-.283.147-.557.22-.836.105-.206.195-.413.229-.63.021-.137.039-.276.06-.415 2.388-8.009 7.328-13.859 15.301-17.385.072.056.32.32.625.466.397.19.86.242 1.257.431 1.141.545 1.932 1.646 1.269 2.616-.884 1.288-1.985 1.35-2.508.156-.027-.06-.176.042-.268.066l-.105-.1c-1.069 1.126-1.408 2.238-1.013 3.307.823 2.224 4.645 3.618 6.969 3.859.332.034.672.053 1.016.053 1.8 0 3.712-.5 5.358-1.685a51.652 51.652 0 0 1-.166 2.673c-.706 7.675-1.713 15.305-5.176 22.35-1.596 3.245-3.268 3.968-6.822 2.873-2.612-.807-5.105-1.872-7.215-3.69-.606-.52-1.364-1.394-2.124-.388-.693.916.194 1.581.852 2.067 1.127.83 2.281 1.663 3.526 2.293 3.116 1.58 6.365 2.725 9.92 2.07.324.948.597 1.645.804 2.36 1.242 4.329 2.444 8.669 3.72 12.986.318 1.072.245 2.485 2.472 3.043-.169-1.285-.187-2.19-.42-3.038-1.29-4.702-2.662-9.383-3.939-14.09-.279-1.027-.877-2.028-.127-3.214 2.953-4.684 4.363-9.93 5.368-15.31.95-5.07 1.594-10.171 1.56-15.314.885-1.335 1.55-3.047 1.866-5.209.649-4.431-1.56-8.292-5.499-9.605Z" clip-rule="evenodd"/><path fill="#000" fill-rule="evenodd" d="m160.63 20.399 1.795 7.104-2.619.263.824-7.367Z" clip-rule="evenodd"/><path fill="#000" fill-rule="evenodd" d="m160.635 20.469-.813 7.282 2.589-.258-1.776-7.024Zm-.828 7.309a.015.015 0 0 1-.009-.004c-.003-.002-.004-.006-.003-.01l.823-7.367c0-.004.005-.01.011-.01.006 0 .012.004.013.01l1.796 7.103c0 .004 0 .007-.002.01-.003.003-.006.006-.01.006l-2.617.262h-.002ZM156.386 14.683s.512 2.118.121 2.656c-1.882-.162-5.972.61-8.415 3.149.356-3.176 8.294-5.805 8.294-5.805Z" clip-rule="evenodd"/><path fill="#000" fill-rule="evenodd" d="M156.378 14.7c-.175.06-2.08.71-3.999 1.706-1.178.612-2.131 1.233-2.832 1.844-.862.752-1.346 1.493-1.439 2.204 1.368-1.408 3.145-2.171 4.398-2.565 1.095-.343 2.719-.67 3.995-.563.359-.513-.082-2.447-.123-2.626Zm-8.286 5.802a.019.019 0 0 1-.006-.001c-.005-.003-.007-.009-.007-.013.082-.728.57-1.487 1.451-2.256.703-.614 1.659-1.236 2.837-1.847a31.02 31.02 0 0 1 4.016-1.712.013.013 0 0 1 .011 0 .012.012 0 0 1 .005.008c.002.005.129.536.206 1.127.106.796.077 1.314-.088 1.54-.002.003-.007.004-.012.004-1.274-.11-2.897.218-3.991.56-1.259.396-3.046 1.164-4.414 2.585a.01.01 0 0 1-.008.005ZM162.937 14.114s-.466 1.815-.138 2.282c1.738.159 4.383 1.17 6.131 2.412-.397-1.91-5.993-4.694-5.993-4.694Z" clip-rule="evenodd"/><path fill="#000" fill-rule="evenodd" d="M162.805 16.384c1.783.166 4.399 1.192 6.104 2.396-.433-1.835-5.655-4.491-5.964-4.647-.044.174-.438 1.81-.14 2.252Zm6.124 2.437a.022.022 0 0 1-.008-.003c-1.703-1.21-4.335-2.245-6.124-2.409a.012.012 0 0 1-.01-.005c-.137-.196-.155-.642-.055-1.325.075-.508.192-.963.193-.967.001-.004.002-.006.006-.009a.015.015 0 0 1 .012.002c.014.005 1.416.706 2.848 1.63 1.324.854 2.944 2.08 3.15 3.072.001.003-.001.008-.005.011-.002.002-.004.003-.007.003ZM160.54 32.47a.249.249 0 0 1-.228-.15c-.006-.014-.6-1.339-1.908-1.797-.871-.307-1.868-.17-2.968.403a.25.25 0 0 1-.23-.442c1.229-.64 2.362-.785 3.367-.43 1.515.535 2.168 2.004 2.195 2.066a.249.249 0 0 1-.228.35ZM154.761 24.338c-.652.04-1.301-.08-1.906-.28.223.065.462.102.711.102 1.237 0 2.245-.883 2.245-1.969 0-.437-.34-.96-.662-1.322 1.586.147 2.979.972 3.494 1.311-.461.546-1.892 2.036-3.882 2.158Zm-3.38-2.688a2.93 2.93 0 0 0-.06.541c0 .789.531 1.47 1.296 1.783-1.169-.433-2.135-1.13-2.547-1.454a6.925 6.925 0 0 1 1.311-.87Zm7.772.279c-.082-.063-2.073-1.551-4.412-1.58-3.211-.04-5.151 1.924-5.232 2.008a.252.252 0 0 0 .014.36c.102.09 2.436 2.128 4.982 2.128.095 0 .19-.003.285-.008 2.671-.166 4.346-2.467 4.416-2.565a.249.249 0 0 0-.053-.343ZM165.714 23.836c-.57.041-1.143-.099-1.667-.318.09.017.182.03.275.03a1.81 1.81 0 0 0 1.807-1.807 1.78 1.78 0 0 0-.429-1.168c.112-.008.224-.012.338-.012 1.258 0 2.409.887 2.813 1.236-.358.497-1.522 1.923-3.137 2.04Zm-3.764-1.693c.131-.112.327-.27.58-.441a2.284 2.284 0 0 0 .759 1.431 8.445 8.445 0 0 1-1.339-.99Zm7.405-.562c-.063-.062-1.552-1.518-3.317-1.518-2.73 0-4.556 1.825-4.631 1.901a.25.25 0 0 0-.001.35c.022.021.539.55 1.327 1.063.982.64 1.914.966 2.776.966.082 0 .162-.004.241-.01 2.207-.158 3.584-2.351 3.642-2.444a.25.25 0 0 0-.037-.308Z" clip-rule="evenodd"/><path fill="#2761F3" fill-rule="evenodd" d="M171.213 27.864c-.629.553-1.371.752-2.27.605-3.572-.58-5.659-4.097-6.463-7.328 5.156-.236 9.596-.438 10.817-.493-.013 1.223-.193 5.548-2.084 7.216Zm-11.776-5.173c.14-.45.266-.918.384-1.407.524.01 1.447-.012 2.019-.082.104.423.227.849.372 1.273l-2.775.216Zm-5.822 6.024c-3.513.337-6.55-2.577-7.173-6.824 3.3-.16 8.085-.383 12.723-.597-.599 2.411-2.19 7.097-5.55 7.421Zm20.317-8.41-.01-.326-.322.015c-.1.005-5.201.235-11.266.513l-.011-.053-.285.066-2.461.114-.254-.018-.008.03c-4.858.223-9.901.459-13.249.622l-.338.018.04.339c.257 2.256 1.186 4.288 2.614 5.722 1.318 1.324 2.962 2.034 4.685 2.034.202 0 .406-.01.607-.03 2.337-.224 4.299-2.376 5.549-6.001l3.217-.25c1.112 2.838 3.201 5.48 6.401 6.001 1.082.176 2.02-.078 2.789-.757 1.031-.906 1.729-2.543 2.08-4.861.256-1.698.223-3.118.222-3.178Z" clip-rule="evenodd"/></svg>