<svg xmlns="http://www.w3.org/2000/svg" width="513" height="528" fill="none"><path fill="#000" fill-rule="evenodd" d="M307.35 4.482c0-.484.031-.84-.023-1.447-.044-.502.133-2.823-2.651-2.308-.251.046-.518.21-1.137.501 1.679.934 3.482 1.283 3.811 3.254Zm-31.97 14.72c1.059-2.441 1.57-4.975 1.393-7.625-1.475 2.372-.996 5.073-1.393 7.626Zm26.22 51.05-5.092-17.345c-3.715.817-6.772-.561-9.776-2.028-1.092-.534-2.07-1.324-3.039-2.076-.598-.466-1.421-1.103-.594-1.883.264-.249 1.257.077 1.802.359 2.019 1.041 3.966 2.225 5.994 3.25.767.389 1.665.587 2.527.71 1.922.273 3.469-.5 4.293-2.282.958-2.069 1.904-4.166 2.579-6.336 1.868-6.002 2.462-12.225 2.933-18.457.066-.874.087-1.772-.031-2.637-.768-5.64-2.616-6.653-7.048-6.58-4.255.069-8.34 1.103-12.308 2.676-3.971 1.572-5.368 4.818-5.964 8.646-.404 2.595-.746 5.2-1.118 7.814-1.639.604-2.171-.422-2.7-1.451-.396-.771-.68-1.782-1.851-1.452-1.106.312-1.378 1.28-1.383 2.303-.012 2.103 1.04 3.594 2.992 4.181 1.745.525 2.133 1.606 1.971 3.182-.434 4.2-.699 8.425-1.322 12.595-.688 4.602-1.678 9.161-2.593 13.727-.173.862-.612 1.672-.966 2.599-1.479-.737-1.284-1.666-1.096-2.642.866-4.484 1.841-8.955 2.522-13.47.681-4.503 1.057-9.054 1.567-13.575-.86-.466-1.548-.7-2.053-1.144-.847-.745-1.78-1.506-2.321-2.462-2.153-3.787-.291-7.001 4.634-7.537.205-1.974.478-4.034.619-6.104.237-3.498.081-7.059.699-10.483.363-2.018 1.185-3.811 2.419-5.57.601-.86 1.762-.78 2.433-.898 1.73-.304 3.476-.567 5.225-.722 4.261-.378 8.174-2.015 12.203-3.242 2.099-.638 4.195-1.325 6.339-1.767 2.463-.507 3.56.225 3.724 2.75.159 2.43-.076 4.899-.309 7.334-.503 5.248-1.087 10.488-1.69 15.726-.716 6.211-2.198 12.275-3.863 18.28-.582 2.096-1.525 4.156-2.667 6.006-.911 1.477-.795 2.712-.352 4.21 1.322 4.466 2.543 8.961 3.793 13.449.23.823.654 1.734-1.132 2.346Z" clip-rule="evenodd"/><path fill="#000" fill-rule="evenodd" d="m294.712 26.817 1.681 6.656-2.453.246.772-6.902Z" clip-rule="evenodd"/><path fill="#000" fill-rule="evenodd" d="m294.716 26.883-.762 6.822 2.426-.241-1.664-6.581Zm-.776 6.847a.013.013 0 0 1-.008-.003c-.003-.002-.004-.006-.003-.01l.771-6.901c0-.005.005-.009.011-.01.005.001.011.004.012.009l1.682 6.655c0 .003 0 .007-.002.01a.014.014 0 0 1-.009.004l-2.452.246h-.002ZM290.735 21.462s.479 1.985.114 2.489c-1.764-.152-5.595.571-7.884 2.95.333-2.976 7.77-5.439 7.77-5.439Z" clip-rule="evenodd"/><path fill="#000" fill-rule="evenodd" d="M290.728 21.478c-.164.056-1.948.665-3.746 1.598-1.104.574-1.996 1.155-2.654 1.728-.807.705-1.26 1.398-1.347 2.064 1.281-1.319 2.946-2.033 4.12-2.402 1.026-.322 2.547-.628 3.742-.527.337-.482-.076-2.293-.115-2.461Zm-7.763 5.435h-.005c-.005-.003-.007-.008-.007-.013.077-.681.534-1.392 1.36-2.113.658-.575 1.553-1.158 2.658-1.73a28.973 28.973 0 0 1 3.762-1.604c.003-.002.006-.002.01 0a.011.011 0 0 1 .005.007c.001.005.12.502.193 1.056.099.745.071 1.231-.083 1.442-.002.004-.006.005-.011.005-1.193-.104-2.714.203-3.739.525-1.179.37-2.854 1.09-4.135 2.421a.01.01 0 0 1-.008.004ZM296.873 20.93s-.437 1.7-.13 2.137c1.628.15 4.107 1.097 5.744 2.26-.372-1.79-5.614-4.398-5.614-4.398Z" clip-rule="evenodd"/><path fill="#000" fill-rule="evenodd" d="M296.749 23.056c1.671.156 4.121 1.117 5.719 2.244-.406-1.719-5.298-4.207-5.588-4.353-.04.163-.41 1.695-.131 2.11Zm5.738 2.283a.017.017 0 0 1-.008-.002c-1.595-1.135-4.062-2.104-5.737-2.258-.004 0-.007 0-.009-.004-.129-.184-.146-.602-.052-1.242.071-.475.18-.902.181-.906a.013.013 0 0 1 .005-.008l.011.001c.013.006 1.327.662 2.669 1.527 1.24.8 2.758 1.95 2.951 2.879.001.003-.002.007-.005.01l-.006.003ZM294.626 38.125a.232.232 0 0 1-.213-.14c-.006-.013-.563-1.254-1.788-1.683-.816-.288-1.75-.16-2.78.377a.234.234 0 0 1-.216-.413c1.152-.6 2.213-.736 3.154-.403 1.419.5 2.032 1.877 2.057 1.935a.233.233 0 0 1-.214.327ZM289.214 30.507c-.611.038-1.219-.076-1.786-.262.209.06.433.095.666.095 1.159 0 2.103-.827 2.103-1.844 0-.41-.318-.9-.62-1.239 1.486.138 2.791.91 3.273 1.229-.431.51-1.772 1.907-3.636 2.021Zm-3.167-2.518a2.795 2.795 0 0 0-.056.507c0 .739.498 1.376 1.214 1.67-1.095-.405-2-1.058-2.386-1.362a6.503 6.503 0 0 1 1.228-.814Zm7.281.261c-.077-.06-1.942-1.453-4.133-1.48-3.008-.037-4.826 1.803-4.902 1.881a.237.237 0 0 0-.065.172.237.237 0 0 0 .079.166c.095.084 2.282 1.993 4.667 1.993.089 0 .178-.002.267-.008 2.502-.155 4.072-2.31 4.137-2.402a.233.233 0 0 0-.05-.322ZM299.475 30.037c-.534.039-1.072-.092-1.563-.298.085.016.171.027.258.027a1.695 1.695 0 0 0 1.291-2.786c.105-.007.21-.011.316-.011 1.18 0 2.257.831 2.636 1.158-.336.466-1.426 1.801-2.938 1.91Zm-3.527-1.586c.122-.105.306-.253.543-.413a2.141 2.141 0 0 0 .711 1.34 7.925 7.925 0 0 1-1.254-.927Zm6.938-.527c-.06-.058-1.455-1.422-3.109-1.422-2.557 0-4.267 1.71-4.337 1.781a.234.234 0 0 0-.002.327c.021.021.506.516 1.243.997.921.6 1.794.905 2.601.905.077 0 .152-.004.226-.01 2.067-.148 3.358-2.202 3.412-2.29a.235.235 0 0 0-.034-.288ZM254.329 525.052c.591.098 1.259.275 1.935.308 2.364.115 4.729.209 7.094.252 1.046.018 2.116-.006 3.135-.211.428-.087.752-.693 1.546-1.486-2.934-.226-5.258-.436-7.586-.577-1.662-.1-3.329-.127-4.993-.155-1.186-.021-1.567.577-1.131 1.869Zm135.286-270.228c-.276-2.789-4.48-9.935-6.842-11.63-.648 3.241 3.36 10.054 6.842 11.63ZM12.683 374.696c-1.467-5.109-4-9.608-7.425-13.6-.737-.858-1.5-.716-2.24.27l9.665 13.33ZM404.2 245.27c2.233-1.314 2.519-1.7 1.493-3.35-1.661-2.672-3.577-5.185-5.412-7.747-.09-.126-.437-.07-1.079-.149 1.089 4.204 2.566 7.917 4.998 11.246Zm-2.494 1.511c-2.359-3.69-4.802-7.189-8.038-10.481-.846 1.731-.414 2.965.217 4.105a61.13 61.13 0 0 0 2.885 4.699c.533.784 1.247 1.458 1.937 2.12.916.882 1.848.886 2.999-.443ZM89.467 169.32c.147.13.292.259.439.387 7.004-3.633 13.374-8.261 19.817-12.823-.709.04-1.337.251-1.94.52-2.803 1.254-5.543 2.679-8.414 3.75-3.684 1.375-6.302 4.057-8.978 6.708-.4.395-.62.968-.924 1.458Zm298.518 70.028c-1.072.65-1.276 1.597-.864 2.703 1.522 4.089 3.713 7.706 7.412 10.212.46.313 1.031.462 1.606.713.28-2.597-4.646-10.689-8.154-13.628Zm-270.547-85.286c-3.496 3.612-8.256 5.178-10.074 9.888-.166.43-.769.679-1.125 1.053-1.809 1.892-2.983 4.092-3.506 7.205.715-.647 1.048-.914 1.341-1.219 4.243-4.424 8.455-8.882 12.741-13.268.936-.957 1.039-1.923.623-3.659Zm13.87-21.549a49066.48 49066.48 0 0 0 7.988 15.293c1.298-1.036 2.288-1.825 3.302-2.636-2.04-5.243-4.563-9.913-7.533-14.558l-3.757 1.901ZM14.647 386.386l-.912.087c.076 1.372.068 2.755.246 4.113.34 2.612.74 5.217 1.196 7.811 1.575 8.932 2.236 17.938 2.262 26.999.022 7.729.054 15.458.098 23.188.003.657.127 1.312.194 1.969.475-1.788.725-3.525.753-5.264.246-15.813.367-31.627-1.65-47.354-.498-3.878-1.446-7.701-2.187-11.549Zm368.279-187.937c-5.451 4.866-11.46 7.939-17.89 10.775l1.85 4.25c1.184-.455 2.128-.7 2.955-1.156 3.383-1.868 6.773-3.733 10.079-5.736 1.994-1.206 4.083-2.416 4.878-5.117l-1.872-3.016ZM273.969 523.505c22.716 2.321 45.465 1.249 68.215.249-2.162-.767-66.417-1.088-68.215-.249Zm-40.42-372.113c-5.086 6.652-11.384 12.221-16.53 19.115 7.508.079 23.121-7.75 27.266-13.516-3.486-1.816-6.96-3.629-10.736-5.599Zm54.704 319.501c-9.862-.547-19.43.638-29.331.566l.749 9.362c9.555.185 18.645-1.12 27.954-2.165l.628-7.763Zm-51.668-325.214c-1.588 3.238-1.539 3.822 1.46 5.269 4.583 2.211 9.214 4.348 13.944 6.213 14.432 5.69 29.534 9.035 44.607 12.461a8.223 8.223 0 0 0 1.569.175c2.228.073 2.955-.81 2.674-3.46-22.627-2.971-43.825-10.66-64.254-20.658Zm-116.066 25.807.542.023c.33-.575.748-1.116.974-1.73 1.244-3.382 2.554-6.745 3.623-10.184 1.228-3.945 3.317-7.143 6.904-9.301 1.265-.761 2.467-1.627 3.838-2.539-1.982-4.547-4.228-8.747-6.823-12.889-1.216.588-2.176 1.012-3.1 1.504-13.773 7.333-26.79 15.864-39.45 24.955-.8.574-1.412 1.413-2.111 2.127l.327.559c1.153-.294 2.353-.468 3.448-.905 3.267-1.302 6.52-2.646 9.729-4.084 6.019-2.698 12.003-5.473 18.002-8.215 3.294-1.505 4.006-.987 3.762 2.728-.007.089-.02.176-.022.264-.093 4.747-.229 9.495-.245 14.242-.004 1.147.39 2.297.602 3.445Zm138.12 297.268c2.237.111 4.237.344 6.227.284 7.108-.215 14.214-.524 21.32-.817.666-.029 1.324-.2 1.925-.296l1.052-21.113c-3.36-.827-29.661-.21-32.007.721l1.483 21.221ZM71.829 357.311c-7.519-8.933-12.425-19.146-19.8-27.738-5.033 3.902-9.469 8.02-13.678 12.385-.643.667-1.058 1.552-1.547 2.288 5.295 8.578 9.82 17.422 15.634 25.791l19.392-12.726ZM367.07 216.394c3.26 8.781 5.673 18.23 12.89 25.631 1.047-1.929 2.548-2.263 4.23-1.622 2.401-3.973 3.378-4.369 6.386-2.699 1.283-4.265 2.252-4.636 6.024-2.459l1.852-4.856c-.647-.803-1.504-1.801-2.281-2.855-.457-.62-.579-1.335.23-1.814.702-.415 1.357-.274 1.851.4.207.283.347.617.562.891 1.34 1.691 2.962 3.046 5.046 3.669 2.774.831 4.777 2.479 6.132 5.034.613 1.157 1.429 2.217 2.23 3.261.547.713 1.228 1.32 1.849 1.975l.522-.367c-.478-.996-.899-2.023-1.442-2.982-2.071-3.663-3.819-7.587-6.379-10.875-2.675-3.441-6.013-6.413-9.304-9.316-3.661-3.228-6.899-6.764-9.574-10.836-.369-.559-.81-1.072-1.154-1.523-3.283 2.07-6.343 4.137-9.532 5.976-3.257 1.876-6.642 3.528-10.138 5.367ZM20.91 448.924c1.685-1.47 2.703-3.003 3.43-4.656 1.236-2.81 2.42-5.66 3.363-8.578a1864.163 1864.163 0 0 0 9.036-28.662c1.438-4.705 2.551-9.509 3.94-14.23 1.462-4.974 3.943-9.38 7.717-13.014 1.505-1.45 2.922-2.989 4.472-4.584-1.22-1.857-2.433-3.575-3.515-5.372a4657.354 4657.354 0 0 1-12.862-21.503c-1.016-1.703-2.05-3.382-3.576-4.89-7.365 7.418-15.955 12.432-25.248 15.879l8.697 15.523c.067-.007.401-.047.735-.068 2.276-.14 2.785.567 1.762 2.551-.603 1.171-1.25 2.332-2.005 3.408-.723 1.035-.756 2.002-.472 3.217 1.002 4.276 2.036 8.557 2.73 12.889 1.83 11.411 1.705 22.957 2.004 34.463.148 5.7-.12 11.412-.208 17.627Zm320.783 71.614c-.558-1.409-1.594-2.207-2.602-2.989-3.917-3.047-8.172-5.482-12.924-6.987-2.849-.902-5.702-1.796-8.557-2.678-5.984-1.846-11.762-4.161-17.192-7.312-3.555-2.062-5.942-4.976-6.565-9.075-.407-2.677-.518-5.399-.731-8.103-.059-.756-.01-1.52-.01-2.577-12.669.894-24.975 2.996-37.758 2.577.419 1.235.693 2.049.973 2.861 1.133 3.279 1.799 6.636 1.335 10.108-.674 5.052-1.448 10.09-2.165 15.135-.418 2.936-.81 5.875-1.257 9.124l14.579.836c.54-1.366.978-2.696 1.6-3.933.272-.54.922-.892 1.401-1.328.392.515.947.976 1.135 1.555.258.791.237 1.672.366 2.786h68.372ZM363.05 207.28c6.705-2.641 12.8-5.865 18.099-10.478.317-.276.491-.713.748-1.064 1.681-2.311 1.309-4.924.782-7.388-1.82-8.512-3.516-17.067-5.815-25.453-3.711-13.541-9.318-26.358-16.258-38.558-3.708-6.518-6.83-13.268-9.583-20.243-2.124-5.38-4.818-10.541-7.391-15.734-.603-1.22-1.532-2.584-2.676-3.168-2.902-1.476-5.615-3.197-8.263-5.066-.705-.497-1.576-.776-2.394-1.097a227.999 227.999 0 0 0-5.422-2.067c-6.44-2.356-12.901-4.654-19.312-7.082-1.133-.429-1.812-.006-2.651.487-9.621 5.666-19.452 5.982-29.487 1.142-.536-.26-1.154-.471-1.739-.481-2.974-.052-5.95.003-8.923-.05-1.127-.02-2.281-.109-3.368-.378-2.696-.665-5.382-.789-8.111-.297-2.337.423-4.667.922-7.025 1.18-6.522.71-12.407 3.082-17.968 6.468-2.85 1.735-5.822 3.276-8.76 4.866-9.128 4.94-18.398 9.637-27.362 14.858-8.09 4.711-16.374 8.902-25.184 12.058-2.151.772-4.256 1.674-6.378 2.529-5.077 2.05-9.87 4.621-14.351 7.782-2.586 1.823-4.598 4.073-5.744 7.049-.664 1.722-.668 3.286.324 5.018 1.877 3.275 3.62 6.648 5.131 10.105.811 1.852 2.014 2.837 3.856 3.147 5.236.88 10.497 1.298 15.727.022 6.164-1.505 12.137-3.598 17.947-6.153 5.513-2.426 10.347-5.967 15.317-9.296 8.072-5.405 16.565-9.933 25.955-12.728 6.316-1.88 12.582-3.988 18.437-7.105 1.633-.869 3.362-1.633 3.625-3.822.037-.319.267-.694.525-.887.323-.241.909-.549 1.126-.416.371.229.631.753.768 1.204.087.29-.077.696-.216 1.011-.988 2.249-2.077 4.457-2.974 6.74-.631 1.61-1.255 3.292-1.44 4.989-.197 1.812-.004 3.697.251 5.519.399 2.847-.185 5.433-1.688 7.82-.746 1.187-1.652 2.274-2.482 3.409-.519.709-1.307 1.36-1.482 2.147-.336 1.507-.601 3.142-.335 4.623.132.731 1.449 1.362 2.34 1.824 2.576 1.336 5.162 2.668 7.824 3.815 15.96 6.877 32.263 12.631 49.553 15.203 5.97.887 11.04-.544 15.246-5.01 5.548-5.89 9.541-12.824 13.493-19.786.595-1.047.833-2.303 1.178-3.48.691-2.359 1.162-4.801 2.059-7.078.895-2.278 2.141-4.429 3.38-6.55.229-.391 1.27-.655 1.744-.474.737.277.79 1.053.32 1.776-.43.661-.884 1.323-1.201 2.041-1.06 2.405-2.219 4.784-3.052 7.27-.996 2.979-1.694 6.057-2.552 9.205 1.368 1.949 1.428 1.945 1.53 4.426.322 7.979 2.586 15.455 6.33 22.407 2.577 4.782 5.686 9.29 8.733 13.803 2.946 4.361 6.008 8.651 9.216 12.821 3.25 4.228 7.497 7.646 10.023 12.625ZM83.131 368.781c.851-.697 1.52-1.233 2.176-1.783 5.93-4.978 11.785-10.052 17.805-14.919 11.975-9.683 24.107-19.173 36.051-28.896 10.101-8.22 20.046-16.633 30.026-25.002 13.685-11.48 27.533-22.778 40.95-34.566 13.744-12.078 26.951-24.766 40.582-36.977 12.405-11.113 24.434-22.571 35.22-35.285.283-.334.561-.757.934-.907.422-.167 1.103-.266 1.387-.039.296.236.457.978.31 1.355-.248.632-.754 1.177-1.209 1.708-8.705 10.181-18.027 19.759-28.005 28.7-4.26 3.817-8.46 7.701-12.729 11.508-.991.883-1.463 1.825-1.487 3.183-.057 3.078-.347 6.15-.443 9.228-.279 8.882-.444 17.771-.771 26.651-.567 15.39-1.426 30.769-1.785 46.162-.435 18.65-.423 37.309-.708 55.963-.218 14.254-.552 28.505-.926 42.755-.184 7.034-.578 14.063-.862 21.095-.053 1.315-.126 2.642-.022 3.952.146 1.813.478 2.105 2.275 2.214 1.315.078 2.64.071 3.959.046 12.229-.227 24.456-.449 36.683-.723 2.353-.052 4.703-.327 7.211-.51.275-1.421.596-2.689.762-3.979.85-6.63 1.687-13.263 2.48-19.9 1.441-12.047 2.975-24.086 4.232-36.154 1.303-12.509 2.493-25.036 3.424-37.579 1.026-13.859 2.167-27.735 2.423-41.618.387-21.115.161-42.243-.005-63.363-.105-13.373-.497-26.745-.907-40.114-.228-7.47-.72-14.935-1.169-22.399-.12-1.998-.517-3.981-.77-5.834-18.21-3.7-36.059-7.931-53.102-14.775-5.065 5.158-10.881 8.756-17.18 11.58-4.507 2.022-9.123 3.713-14.219 3.554-.807-.025-1.812.617-2.433 1.242-2.975 2.997-5.843 6.102-8.761 9.157-10.575 11.077-21.327 21.991-31.684 33.267-10.305 11.217-20.624 22.411-31.711 32.86-8.835 8.328-17.792 16.53-26.802 24.671-8.356 7.549-16.904 14.882-25.274 22.417-8.306 7.477-16.454 15.129-24.751 22.617-3.062 2.762-6.35 5.271-9.791 8.108.854 1.497 1.606 2.945 2.483 4.312.806 1.257 1.783 2.403 2.625 3.638 5.009 7.34 9.942 14.732 15.02 22.023 2.659 3.813 5.562 7.457 8.488 11.356ZM241.91 238.034c-2.662 2.393-5.396 4.714-7.977 7.194-22.747 21.852-47.12 41.818-71.542 61.731-12.482 10.176-24.812 20.54-37.29 30.72-10.025 8.179-20.188 16.186-30.252 24.316-2.874 2.322-5.587 4.84-8.428 7.206-1.058.88-2.264 1.585-3.663 2.548l-9.853-12.389-19.057 12.613 2.173 3.853c-1.851 1.793-3.559 3.539-5.364 5.178-4.19 3.806-6.534 8.667-8.11 13.973-.625 2.108-1.232 4.223-1.745 6.361-3.254 13.537-7.98 26.618-12.33 39.814a25.406 25.406 0 0 1-6.722 10.596 6.573 6.573 0 0 1-2.676 1.521c-2.263.613-3.585-.28-3.851-2.621-.248-2.18-.323-4.386-.34-6.583-.064-8.537-.025-17.073-.12-25.608-.083-7.321-1.136-14.548-2.312-21.759-.41-2.517-.706-5.053-1.126-7.567-.335-2.002-.005-3.845 1.008-5.589.962-1.658 1.909-3.324 3.088-5.379-2.836.802-3.956-.764-5.164-2.536-2.725-3.995-5.63-7.866-8.452-11.796a39.846 39.846 0 0 1-1.469-2.192c-.647-1.04-.328-1.924.686-2.421 1.257-.617 2.583-1.112 3.91-1.566 8.846-3.025 16.906-7.41 23.882-13.689a32.63 32.63 0 0 0 2.068-2.034c1.794-1.933 1.82-1.946 4.076-.441 5.115-4.557 10.157-9.176 15.34-13.63 4.937-4.247 10.178-8.147 15.004-12.51 11.032-9.975 21.827-20.211 32.846-30.2 5.734-5.199 11.809-10.02 17.609-15.148 18.938-16.746 36.986-34.388 53.945-53.159 8.492-9.4 17.534-18.302 26.19-27.559 10.88-11.633 21.632-23.386 32.405-35.118 1.604-1.746 3.177-3.562 4.473-5.534.883-1.343 1.529-2.95 1.006-4.723-.137-.462-.032-1.001-.016-1.506.133-3.886 1.875-6.989 4.434-9.84 1.814-2.024 2.569-4.563 2.208-7.367-.19-1.48-.376-2.994-.269-4.472.183-2.505.599-4.992.931-7.599.184.083.01-.071-.092-.033-6.197 2.249-12.33 4.687-18.592 6.739-9.381 3.074-18.002 7.6-25.941 13.365-10.006 7.265-21.147 11.814-33.087 14.61-5.692 1.332-11.368.826-16.982-.514-1.211-.29-2.069-.275-3.122.525-1.853 1.408-3.691 3.064-6.341 2.648-3.226 1.843-6.492 3.677-7.929 7.398-.98 2.541-1.777 5.154-2.707 7.716a146.442 146.442 0 0 1-2.295 5.898c-.265.641-.627 1.28-1.084 1.795-1.419 1.6-3.435 1.47-4.295-.472-.694-1.571-1.047-3.357-1.214-5.08-.203-2.079-.049-4.193-.049-6.753-.827.589-1.343.847-1.717 1.241-2.909 3.062-5.769 6.17-8.692 9.218a40.263 40.263 0 0 1-3.487 3.21c-.752.617-1.686 1.083-2.668.452-1.074-.69-1.083-1.807-.761-2.839.702-2.255 1.526-4.471 2.364-6.889-.538.265-1.113.506-1.646.818-3.188 1.865-6.354 3.767-9.556 5.606a6.968 6.968 0 0 1-2.214.808c-2.058.362-3.06-.74-2.415-2.721.426-1.312 1.107-2.539 1.712-3.89-1.275.066-2.487.233-3.686.168-2.161-.118-3.018-1.5-1.99-3.425.6-1.121 1.51-2.203 2.537-2.951 13.171-9.594 26.781-18.504 41.26-26.03.915-.476 1.789-.862 2.281-2.01.318-.741 1.417-1.249 2.267-1.641 2.871-1.328 5.447-2.692 6.541-6.148.826-2.614 3.187-4.343 5.428-5.963 6.048-4.372 12.761-7.459 19.727-9.972 9.64-3.48 18.727-8.001 27.572-13.18 8.952-5.24 18.261-9.873 27.404-14.792 2.554-1.375 5.12-2.74 7.595-4.251 5.551-3.387 11.435-5.793 17.935-6.611 3.315-.418 6.596-1.132 9.918-1.46 1.9-.189 3.903-.121 5.764.28 2.102.455 4.14.537 6.266.423 2.625-.138 5.266-.002 7.899.053.325.007.663.204.964.37 9.678 5.337 19.211 4.884 28.465-.95 1.615-1.019 2.585-.88 4.22-.132 3.586 1.641 7.371 2.851 11.083 4.216 4.291 1.58 8.65 2.994 12.869 4.749 3.228 1.344 6.291 3.085 9.409 4.686 3.022 1.552 5.082 4.08 6.553 7.035 2.155 4.327 4.405 8.64 6.108 13.15 2.871 7.596 6.309 14.87 10.27 21.962 8.411 15.05 14.736 30.925 18.533 47.815 1.953 8.679 3.811 17.345 4.759 26.196.108 1.02.425 2.09.922 2.983 3.277 5.882 7.246 11.185 12.494 15.538 3.037 2.518 5.719 5.471 8.5 8.287 3.221 3.262 4.722 7.592 6.933 11.479.778 1.369 1.382 2.845 1.998 4.3.483 1.138.469 2.243-.601 3.106-.967.782-2.248.904-3.391-.098-1.441-1.263-2.713-2.738-3.933-4.224-.774-.944-1.302-2.089-1.978-3.117-.949-1.444-2.217-2.421-4.536-2.809 1.191 1.718 2.133 3.026 3.02 4.372.87 1.319 1.81 2.615 2.495 4.03 1.212 2.51.338 4.638-2.141 5.89-.986.498-1.838 1.255-2.817 1.772-1.303.684-2.668 1.249-4.047 1.884-.584 4.665-1.535 5.188-6.396 3.437-.071.156-.187.307-.2.467-.227 2.833-1.589 3.651-4.134 2.339a8.679 8.679 0 0 1-2.462-1.949c-2.273-2.589-4.248-5.385-5.498-8.639-.242-.632-.568-1.309-1.05-1.756-3.869-3.593-6.72-7.898-8.866-12.673-1.226-2.725-2.259-5.535-3.349-8.32-1.316-3.357-2.568-6.74-3.907-10.088-.714-1.784-1.41-3.554-3.158-4.736-.825-.558-1.338-1.616-1.907-2.502-5.42-8.446-11.149-16.663-17.324-24.589-6.505-8.346-11.234-17.648-13.56-28.05-.44-1.968-.58-4.002-.931-5.993-.223-1.255-.581-2.488-1.033-4.375-.905 1.454-1.459 2.322-1.992 3.203-2.83 4.678-5.956 9.131-9.7 13.143-2.14 2.296-4.463 4.23-7.578 5.044-.668.176-1.288.533-1.586.659-2.198 3.878-1.711 7.673-1.305 11.572 1.123 10.77 1.523 21.579 1.401 32.418-.077 6.771.288 13.547.396 20.321.172 10.645.288 21.291.439 31.935.117 8.272.483 16.547.323 24.812-.269 13.81-.581 27.63-1.412 41.412-.829 13.78-2.296 27.522-3.522 41.277-.865 9.726-1.674 19.459-2.722 29.167-1.04 9.616-2.288 19.212-3.556 28.801-.808 6.096-2.056 12.142-2.678 18.255-.647 6.381-.803 12.813-1.13 19.225-.21 4.124-.344 8.252-.502 12.377-.012.335.067.671.136 1.308 1.014-.093 1.939-.199 2.864-.262 1.798-.12 2.611.633 2.609 2.437a7.78 7.78 0 0 1-.184 1.569c-.769 3.652-.098 7.186.93 10.67.831 2.819 3.01 4.482 5.43 5.845 4.771 2.686 9.806 4.757 15.025 6.404 4.024 1.271 8.05 2.549 12.034 3.939 4.456 1.554 8.366 4.095 11.999 7.06 1.947 1.591 3.443 3.538 3.881 6.105.423 2.491-.857 4.13-3.391 4.183-15.75.337-31.497.761-47.249.883-6.413.051-12.832-.584-19.25-.898-1.758-.086-3.356-.436-4.029-2.503-.356.326-.625.452-.676.638-.772 2.77-2.66 3.619-5.391 3.448-2.895-.18-5.808-.097-8.711-.153-.701-.015-1.416-.063-2.095-.219-2.202-.502-2.925-1.249-2.667-3.463.662-5.674 1.508-11.324 2.271-16.987.482-3.572.941-7.148 1.42-10.721.622-4.629-.715-8.885-2.474-13.061-.17-.404-.433-.772-.575-1.184-.465-1.344.111-2.028 1.533-1.827 1.078.152 2.152.334 3.584.559-.855-11.457-1.675-22.466-2.508-33.648-1.83 0-3.301-.013-4.771.003-2.552.03-5.108.192-7.654.091-4.021-.158-5.046-1.134-5.043-5.11.004-3.603.347-7.203.532-10.804.136-2.635.323-5.27.377-7.905.347-16.893.725-33.784.97-50.676.198-13.729.103-27.461.361-41.188.215-11.348.756-22.689 1.149-34.034.188-5.452.381-10.904.547-16.357.278-9.06.526-18.12.809-27.179.137-4.397.333-8.793.491-13.189.03-.861.004-1.724.004-2.586l-.602-.307Z" clip-rule="evenodd"/><path fill="#fff" fill-rule="evenodd" d="M83.131 368.781c-2.927-3.9-5.83-7.543-8.487-11.356-5.08-7.292-10.013-14.683-15.021-22.023-.843-1.234-1.819-2.38-2.626-3.638-.877-1.367-1.63-2.816-2.484-4.311 3.442-2.837 6.73-5.348 9.791-8.109 8.298-7.488 16.447-15.14 24.753-22.616 8.368-7.535 16.917-14.869 25.273-22.419 9.01-8.139 17.968-16.341 26.803-24.67 11.086-10.449 21.405-21.642 31.71-32.86 10.358-11.277 21.109-22.191 31.685-33.267 2.917-3.056 5.785-6.16 8.76-9.158.62-.624 1.625-1.266 2.433-1.242 5.097.16 9.712-1.531 14.219-3.552 6.299-2.826 12.116-6.422 17.179-11.582 17.044 6.844 34.894 11.076 53.104 14.776.251 1.854.65 3.837.77 5.835.448 7.462.94 14.928 1.168 22.398.409 13.368.802 26.741.908 40.113.165 21.122.392 42.249.005 63.363-.257 13.884-1.398 27.76-2.425 41.62-.929 12.541-2.119 25.068-3.423 37.578-1.257 12.068-2.791 24.106-4.232 36.155a2304.4 2304.4 0 0 1-2.48 19.9c-.166 1.289-.486 2.557-.761 3.979-2.508.183-4.858.457-7.213.51-12.226.274-24.454.494-36.681.722-1.319.025-2.644.032-3.959-.046-1.798-.109-2.131-.4-2.275-2.215-.106-1.309-.032-2.635.022-3.951.283-7.032.677-14.062.861-21.096.373-14.249.708-28.5.926-42.754.286-18.653.274-37.313.709-55.963.358-15.392 1.218-30.773 1.783-46.161.327-8.882.494-17.769.772-26.652.097-3.077.387-6.15.443-9.227.025-1.36.496-2.3 1.487-3.184 4.269-3.808 8.469-7.691 12.729-11.508a301.94 301.94 0 0 0 28.006-28.699c.454-.533.961-1.078 1.207-1.709.148-.376-.013-1.12-.308-1.355-.284-.228-.967-.129-1.388.038-.374.15-.651.574-.933.909-10.786 12.714-22.817 24.172-35.221 35.284-13.632 12.21-26.837 24.9-40.583 36.977-13.415 11.788-27.263 23.085-40.949 34.565-9.979 8.371-19.925 16.782-30.026 25.003-11.943 9.722-24.076 19.212-36.051 28.896-6.02 4.867-11.873 9.94-17.804 14.919-.657.551-1.325 1.086-2.176 1.783Z" clip-rule="evenodd"/><path fill="#2761F3" fill-rule="evenodd" d="M363.049 207.28c-2.525-4.978-6.772-8.397-10.023-12.625a256.36 256.36 0 0 1-9.215-12.821c-3.047-4.512-6.156-9.021-8.732-13.803-3.746-6.951-6.008-14.428-6.331-22.407-.101-2.48-.163-2.477-1.53-4.426.857-3.147 1.555-6.226 2.552-9.205.832-2.486 1.991-4.864 3.053-7.27.316-.718.769-1.379 1.2-2.041.47-.722.417-1.499-.319-1.776-.476-.181-1.515.084-1.744.475-1.24 2.12-2.485 4.271-3.382 6.549-.896 2.277-1.368 4.719-2.058 7.079-.345 1.176-.584 2.433-1.177 3.48-3.954 6.961-7.947 13.895-13.495 19.786-4.205 4.465-9.276 5.896-15.245 5.009-17.289-2.572-33.594-8.326-49.552-15.202-2.664-1.148-5.25-2.48-7.826-3.815-.891-.463-2.208-1.094-2.339-1.825-.266-1.48-.002-3.115.334-4.623.176-.787.963-1.438 1.482-2.147.83-1.135 1.737-2.221 2.484-3.408 1.503-2.387 2.085-4.973 1.686-7.821-.254-1.822-.448-3.707-.25-5.519.185-1.696.809-3.379 1.441-4.988.897-2.284 1.986-4.491 2.973-6.741.139-.314.303-.721.215-1.01-.137-.452-.396-.976-.767-1.205-.217-.133-.804.175-1.126.416-.258.193-.488.569-.526.888-.262 2.189-1.992 2.953-3.623 3.821-5.856 3.117-12.123 5.226-18.438 7.105-9.39 2.795-17.884 7.324-25.955 12.728-4.971 3.33-9.804 6.871-15.318 9.296-5.809 2.555-11.782 4.648-17.946 6.153-5.23 1.277-10.49.857-15.726-.022-1.844-.31-3.047-1.294-3.856-3.146-1.512-3.457-3.255-6.831-5.132-10.106-.992-1.732-.987-3.295-.324-5.017 1.147-2.976 3.157-5.227 5.743-7.05 4.482-3.161 9.274-5.732 14.353-7.782 2.12-.855 4.225-1.757 6.377-2.529 8.811-3.156 17.093-7.346 25.183-12.058 8.965-5.22 18.234-9.918 27.362-14.857 2.939-1.59 5.91-3.131 8.762-4.867 5.56-3.385 11.444-5.757 17.968-6.468 2.356-.258 4.688-.756 7.024-1.18 2.728-.491 5.416-.368 8.11.297 1.089.27 2.242.359 3.368.378 2.974.054 5.95-.001 8.924.05.584.01 1.203.222 1.739.481 10.034 4.84 19.866 4.524 29.488-1.141.838-.494 1.518-.916 2.65-.488 6.411 2.429 12.871 4.727 19.311 7.083 1.818.663 3.623 1.356 5.423 2.066.817.322 1.688.6 2.394 1.098 2.648 1.868 5.362 3.59 8.264 5.066 1.144.583 2.071 1.948 2.674 3.167 2.573 5.193 5.267 10.355 7.391 15.734 2.754 6.975 5.875 13.725 9.583 20.243 6.942 12.2 12.548 25.018 16.259 38.557 2.299 8.388 3.996 16.942 5.815 25.454.527 2.464.899 5.078-.783 7.389-.256.35-.43.787-.748 1.063-5.298 4.613-11.393 7.837-18.099 10.478ZM341.694 520.538h-68.372c-.129-1.114-.108-1.995-.365-2.785-.189-.581-.744-1.042-1.136-1.555-.478.436-1.129.786-1.401 1.328-.622 1.236-1.059 2.566-1.6 3.933l-14.579-.837c.447-3.248.839-6.188 1.256-9.123.718-5.046 1.491-10.084 2.166-15.135.464-3.473-.202-6.83-1.335-10.109-.28-.812-.553-1.625-.973-2.861 12.784.42 25.089-1.683 37.758-2.576 0 1.057-.049 1.82.01 2.576.213 2.704.324 5.426.731 8.104.624 4.098 3.01 7.012 6.566 9.074 5.43 3.152 11.208 5.466 17.191 7.313 2.855.881 5.708 1.774 8.556 2.676 4.753 1.506 9.008 3.942 12.926 6.988 1.007.783 2.043 1.581 2.601 2.989ZM20.911 448.925c.087-6.216.356-11.927.207-17.628-.298-11.506-.173-23.051-2.003-34.463-.694-4.331-1.728-8.613-2.73-12.889-.284-1.214-.251-2.182.472-3.216.753-1.077 1.4-2.238 2.005-3.408 1.023-1.985.513-2.692-1.763-2.552-.334.021-.667.061-.734.067l-8.698-15.522c9.294-3.446 17.883-8.46 25.248-15.878 1.527 1.508 2.56 3.186 3.576 4.89a4861.3 4861.3 0 0 0 12.862 21.502c1.083 1.797 2.295 3.516 3.516 5.372-1.55 1.595-2.967 3.135-4.472 4.584-3.774 3.635-6.256 8.041-7.718 13.014-1.388 4.722-2.501 9.526-3.94 14.23-2.93 9.579-5.951 19.131-9.035 28.662-.944 2.919-2.127 5.769-3.364 8.579-.726 1.651-1.744 3.185-3.429 4.656Z" clip-rule="evenodd"/><path fill="#fff" fill-rule="evenodd" d="M367.07 216.394c3.496-1.838 6.881-3.491 10.137-5.367 3.19-1.839 6.25-3.905 9.533-5.977.344.451.785.964 1.154 1.525 2.675 4.07 5.913 7.606 9.574 10.836 3.291 2.903 6.629 5.874 9.305 9.315 2.559 3.289 4.307 7.213 6.378 10.875.543.959.964 1.986 1.441 2.982l-.521.368c-.621-.655-1.302-1.264-1.849-1.975-.801-1.044-1.617-2.104-2.231-3.262-1.354-2.555-3.356-4.204-6.131-5.033-2.084-.623-3.706-1.979-5.046-3.67-.216-.274-.355-.608-.562-.891-.494-.673-1.149-.814-1.851-.399-.809.478-.686 1.193-.23 1.812.777 1.056 1.634 2.052 2.281 2.856l-1.852 4.856c-3.772-2.176-4.741-1.806-6.024 2.458-3.008-1.668-3.985-1.274-6.386 2.7-1.682-.64-3.183-.308-4.23 1.621-7.217-7.4-9.63-16.848-12.89-25.63ZM71.83 357.311c-6.753 4.431-12.972 8.513-19.391 12.727-5.816-8.37-10.34-17.214-15.635-25.791.488-.736.904-1.622 1.547-2.288 4.209-4.366 8.645-8.483 13.678-12.385 7.375 8.591 12.28 18.805 19.8 27.737ZM258.638 468.754c-.507-7.272-.995-14.249-1.483-21.22 2.347-.932 28.648-1.549 32.008-.721l-1.052 21.112c-.601.096-1.26.268-1.925.296-7.107.293-14.212.601-21.321.817-1.99.06-3.99-.173-6.227-.284ZM120.519 171.486c-.212-1.148-.606-2.298-.602-3.445.016-4.747.152-9.495.245-14.242.002-.089.015-.176.022-.264.244-3.716-.468-4.233-3.762-2.728-5.999 2.742-11.983 5.517-18.002 8.215-3.209 1.437-6.461 2.782-9.729 4.085-1.095.437-2.295.609-3.448.905l-.327-.56c.7-.714 1.311-1.553 2.112-2.127 12.659-9.091 25.676-17.622 39.449-24.956.924-.491 1.884-.916 3.1-1.504 2.595 4.143 4.841 8.342 6.823 12.889-1.37.912-2.573 1.78-3.838 2.54-3.587 2.158-5.676 5.357-6.904 9.302-1.069 3.437-2.379 6.801-3.623 10.184-.226.613-.644 1.155-.974 1.729a94.189 94.189 0 0 1-.542-.023ZM236.585 145.679c20.429 9.998 41.628 17.687 64.254 20.658.281 2.65-.445 3.533-2.674 3.46a8.091 8.091 0 0 1-1.569-.175c-15.073-3.426-30.175-6.771-44.607-12.461-4.729-1.865-9.361-4.002-13.943-6.213-2.999-1.445-3.048-2.031-1.461-5.269ZM288.253 470.893l-.628 7.764c-9.309 1.044-18.399 2.349-27.954 2.164l-.749-9.361c9.901.07 19.469-1.114 29.331-.567ZM233.549 151.393c3.775 1.969 7.25 3.783 10.734 5.599-4.143 5.765-19.757 13.595-27.265 13.515 5.147-6.893 11.444-12.462 16.531-19.114ZM273.97 523.504c1.798-.839 66.052-.517 68.215.25-22.75 1.001-45.5 2.071-68.215-.25Z" clip-rule="evenodd"/><path fill="#2761F3" fill-rule="evenodd" d="M382.927 198.449a3608.73 3608.73 0 0 0 1.871 3.015c-.795 2.702-2.883 3.912-4.877 5.119-3.306 2.001-6.697 3.866-10.081 5.736-.827.456-1.769.7-2.954 1.155l-1.849-4.25c6.429-2.835 12.439-5.908 17.89-10.775Z" clip-rule="evenodd"/><path fill="#fff" fill-rule="evenodd" d="M14.646 386.386c.741 3.848 1.689 7.67 2.186 11.549 2.019 15.727 1.898 31.542 1.65 47.353a21.66 21.66 0 0 1-.752 5.265c-.067-.656-.19-1.312-.194-1.969-.044-7.729-.076-15.459-.097-23.187-.026-9.062-.688-18.068-2.262-27.001a179.092 179.092 0 0 1-1.197-7.81c-.177-1.359-.17-2.741-.246-4.113l.912-.087Z" clip-rule="evenodd"/><path fill="#2761F3" fill-rule="evenodd" d="M131.307 132.513c1.354-.685 2.43-1.228 3.758-1.901 2.969 4.645 5.492 9.315 7.532 14.558l-3.302 2.637c-2.701-5.17-5.271-10.089-7.988-15.294Z" clip-rule="evenodd"/><path fill="#fff" fill-rule="evenodd" d="M117.438 154.062c.416 1.736.313 2.702-.623 3.66-4.286 4.385-8.498 8.842-12.741 13.268-.293.305-.626.571-1.341 1.217.523-3.112 1.697-5.312 3.506-7.203.356-.375.959-.624 1.125-1.055 1.817-4.709 6.578-6.275 10.074-9.887ZM387.985 239.349c3.507 2.938 8.433 11.03 8.154 13.628-.575-.251-1.147-.401-1.607-.714-3.698-2.506-5.889-6.122-7.412-10.211-.411-1.107-.208-2.054.865-2.703ZM89.468 169.321c.303-.49.524-1.064.923-1.458 2.676-2.651 5.294-5.334 8.978-6.708 2.872-1.072 5.611-2.497 8.415-3.75.602-.269 1.23-.481 1.94-.521-6.444 4.563-12.814 9.191-19.818 12.824l-.438-.387ZM401.706 246.781c-1.151 1.329-2.083 1.325-2.999.443-.689-.662-1.404-1.335-1.936-2.118a61.413 61.413 0 0 1-2.885-4.7c-.631-1.141-1.064-2.375-.217-4.106 3.236 3.292 5.679 6.791 8.037 10.481ZM404.202 245.27c-2.432-3.328-3.911-7.042-4.999-11.246.642.079.988.023 1.078.149 1.836 2.562 3.752 5.075 5.413 7.747 1.026 1.65.74 2.036-1.492 3.35ZM12.682 374.696l-9.664-13.329c.74-.988 1.503-1.13 2.24-.271 3.424 3.992 5.957 8.491 7.424 13.6ZM389.615 254.824c-3.481-1.576-7.491-8.388-6.842-11.63 2.362 1.695 6.567 8.842 6.842 11.63ZM254.329 525.052c-.436-1.292-.055-1.89 1.131-1.869 1.664.028 3.331.055 4.993.155 2.328.141 4.652.351 7.587.577-.795.793-1.119 1.399-1.547 1.486-1.019.205-2.089.229-3.135.211-2.365-.043-4.73-.137-7.093-.252-.676-.033-1.345-.21-1.936-.308ZM393.984 444.216c4.927 18.761 9.003 31.078 12.23 36.949a3701.42 3701.42 0 0 1 8.634 15.791c.321-8.009 1.265-12.706 2.834-14.092 2.353-2.08 2.056-3.584 7.091-1.699.509-6.081 2.187-15.711 5.034-28.888-2.67-2.236-4.686-4.923-6.05-8.061-1.363-3.139-2.022-8.111-1.977-14.917-6.939-8.359-10.725-13.599-11.356-15.722a484.033 484.033 0 0 1-2.451-8.638c5.216.289 8.821.819 10.815 1.59 1.995.771 3.99 1.57 5.985 2.398 6.555-9.969 11.928-15.675 16.119-17.116 6.287-2.161 11.367-7.457 26.686-5.897 2.893-4.072 12.679-15.688 15.147-16.477 1.808 3.142 2.659 5.983 2.554 8.525.361 6.122.988 9.903 1.881 11.343 1.34 2.16 11.537 9.906 12.472 14.356.935 4.451-1.461 16.074-7.519 27.07 4.816 8.94 6.584 17.245 7.519 22.922.624 3.785.935 12.475.935 26.07 2.801-1.218 5.075-1.282 6.82-.192 1.746 1.09 2.852 3.299 3.317 6.627l-5.881 18.559-10.153 14.72v3.433l-16.442 1.97-2.144-4.058c-7.096 2.193-11.765 3.29-14.008 3.29-2.242 0-6.977-.794-14.204-2.383l-1.435 4.552h-16.63v-3.371l-9.759-13.938c-7.885-5.257-14.605-14.512-20.16-27.767-5.555-13.254-7.523-25.57-5.904-36.949Z" clip-rule="evenodd"/><path fill="#000" fill-rule="evenodd" d="M394.291 449.853c-2.492 18.984 10.631 47.588 24.154 57.364-1.067-2.881-2.005-5.494-3.011-8.081-.376-.969-.799-1.952-1.386-2.804-6.32-9.181-11.199-19.115-14.946-29.566-1.944-5.423-3.182-11.099-4.811-16.913Zm100.445 68.192c.297-.227.535-.355.701-.545.464-.528.905-1.077 1.343-1.628 5.922-7.501 9.751-16.061 12.454-25.137.664-2.228.773-4.68.773-7.03.001-2.404-1.625-3.915-3.715-3.979-2.316-.071-4.097 1.243-4.536 3.47-.612 3.104-1.117 6.229-1.723 9.336-1.569 8.05-4 15.846-7.013 23.467-.12.303-.087.665-.133 1.067l1.849.979Zm-61.281 2.985c-.679-1.638-1.264-3.097-1.887-4.541-4.352-10.087-7.238-20.539-7.875-31.554-.035-.611-.065-1.246-.249-1.821-.655-2.032-2.109-2.502-3.833-1.278-1.506 1.069-2.326 2.577-2.812 4.327-1.095 3.943-.878 7.938.37 11.698 2.722 8.202 6.025 16.16 12.154 22.565 1.483 1.549 1.45 1.579 4.132.604Zm9.796-129.039c-1.831.771-3.355 1.063-4.417 1.922-2.933 2.376-5.832 4.836-8.433 7.56-1.729 1.811-3.02 4.076-4.326 6.246-.951 1.582-1.036 1.781-2.808 1.075-1.469-.583-2.864-1.358-4.344-1.907-3.237-1.201-6.573-1.484-10.195-1.062.775 1.944 1.411 3.577 2.075 5.197 2.22 5.413 5.302 10.363 8.983 14.84 1.496 1.819 2.487 3.482 2.576 5.761.031.79.153 1.576.258 2.361.508 3.842 1.225 7.635 2.676 11.257 1.07 2.67 2.697 4.715 5.683 5.356 1.973.423 3.915 1.03 5.906 1.316 4.001.574 8.018 1.097 12.046 1.433 5.626.47 11.276.569 16.785-.931 5.645-1.536 11.237-3.456 15.07-8.16 4.215-5.175 8.237-10.533 11.973-16.064 3.003-4.446 5.258-9.367 6.354-14.688 1.199-5.818.507-11.219-3.994-15.614-2.199-2.149-4.307-4.402-6.619-6.423-1.287-1.125-1.978-2.389-2.26-4.007a430.606 430.606 0 0 0-1.677-9.074c-.52-2.636-1.114-5.257-1.657-7.799-.334-.044-.45-.098-.505-.062-5.319 3.546-9.434 8.173-11.935 14.052-.656 1.541-1.519 1.998-2.902 2.06-.605.026-1.217-.154-1.828-.211-6.967-.657-13.683.236-20.048 3.262-1.193.567-2.415 1.159-2.437 2.304Zm2.217 133.678c.3-3.509.776-6.907.833-10.314.081-4.961.698-9.83 1.917-14.616 1.545-6.058 4.38-11.49 8.393-16.283.804-.96 1.584-2.121 3.564-2.189-.229 2.396-2.391 3.23-3.287 4.827-.945 1.684-2.109 3.247-3.028 4.942-.965 1.775-1.872 3.6-2.587 5.484-.684 1.801-1.171 3.688-1.598 5.569a59.304 59.304 0 0 0-1.051 5.972c-.235 1.92-.323 3.86-.383 5.794-.062 2.002-.014 4.008-.014 6.147 8.998 3.079 17.826 3.359 26.538-1.312-.23-2.189-.476-4.281-.666-6.377-.762-8.464-2.575-16.678-5.796-24.562a24.42 24.42 0 0 1-.954-2.737c-.241-.88.016-1.563 1.373-1.82.44 1.125.889 2.309 1.366 3.48 3.247 7.957 5.197 16.223 5.988 24.778.267 2.889.621 5.777 1.083 8.641.367 2.276.904 2.822 3.105 2.702 4.028-.215 8.047-.657 12.064-1.063.549-.054 1.063-.448 1.555-.668-.534-2.41-.534-2.41-2.4-3.208-1.633-.698-1.832-1.293-.963-2.747.403-.674.841-1.346 1.109-2.076 5.603-15.217 9.195-30.795 8.925-47.15-.182-10.991-2.61-21.427-6.845-31.501-.347-.825-.854-1.581-1.392-2.561-2.554 3.341-4.798 6.381-7.157 9.328-2.144 2.676-4.317 5.343-7.299 7.191-6.032 3.74-12.581 5.995-19.673 6.091-5.176.07-10.372-.325-15.535-.776-4.009-.35-7.981-1.109-12.372-1.743-.756 2.356-1.728 4.797-2.322 7.327-3.623 15.426-3.184 30.734 1.829 45.804 1.58 4.75 3.62 9.344 5.414 14.023.322.84.471 1.748.654 2.45-1.587 1.396-4.376.16-4.812 3.278 4.809.359 9.405.852 14.424-.125Zm29.694-3.932c-9.178 4.566-18.205 4.241-27.422 1.344-.107.883-.215 1.477-.245 2.075-.097 1.979-.489 2.608-2.399 2.657-4.393.112-8.792.118-13.185.015-2.004-.047-2.954-1.043-2.823-3.013.089-1.347-.486-2.168-1.275-2.998-2.628-2.762-4.785-5.851-6.55-9.228-.314-.601-.706-1.302-1.256-1.615-4.632-2.636-8.041-6.581-11.185-10.704-9.215-12.087-14.809-25.711-16.519-40.836a55.835 55.835 0 0 1 .468-15.788c.109-.634.439-1.231.885-2.435.695.96 1.232 1.41 1.384 1.966.532 1.948 1.023 3.916 1.366 5.906 2.128 12.352 6.486 23.901 12.457 34.878a444.268 444.268 0 0 0 3.832 6.926c.277.488.709.885 1.392 1.715.092-1.233.075-1.994.222-2.722.416-2.057.66-4.193 1.412-6.128 1.332-3.431 4.048-4.952 7.876-4.658.261-9.165 1.353-18.205 4.83-26.896-6.018-4.177-6.59-10.799-7.718-17.176-.076-.432-.095-.874-.13-1.312-.213-2.642-.97-4.85-2.771-7.091-3.905-4.856-7.267-10.156-9.41-16.11-.505-1.404-1.253-2.717-1.823-4.098-.738-1.788-.384-2.494 1.554-2.617 4.42-.283 8.806-.151 12.934 1.783.939.441 1.901.828 3.103 1.348 1.727-3.608 4.045-6.572 6.899-9.09 2.818-2.487 5.682-4.921 8.444-7.306-1.589-3.465-3.405-6.883-4.757-10.474-3.524-9.369-5.567-19.071-5.686-29.113-.083-6.945-.346-13.911.052-20.834.499-8.684 1.576-17.337 2.436-26 .911-9.193 2.144-18.371 1.705-27.637-.39-8.261-.96-16.523-3.085-24.569-1.574-5.956-4.429-11.301-8.297-16.066-5.165-6.364-11.994-9.572-20.107-10.21-.942-.075-2.508.447-2.374-1.19.106-1.298 1.497-.89 2.41-.819 10.001.772 17.896 5.151 23.625 13.497 4.483 6.528 7.094 13.713 8.215 21.487 1.284 8.902 2.079 17.858 1.513 26.841-.497 7.898-1.341 15.777-2.246 23.641-1.34 11.636-2.482 23.276-2.256 35.008.23 11.938 1.476 23.718 5.832 34.958 1.076 2.778 2.468 5.436 3.775 8.12.372.766.948 1.431 1.552 2.321 4.016-2.413 8.135-4.194 12.637-4.642 4.441-.443 8.915-.548 13.407-.803 2.13-2.957 4.26-6.283 6.77-9.293 2.522-3.028 5.567-5.556 9.415-7.657.384 1.033.78 1.777.932 2.568 1.132 5.871 2.167 11.76 3.358 17.617.193.941.879 1.885 1.569 2.603 2.13 2.219 4.375 4.329 6.574 6.482 5.108 5.005 6.078 11.109 4.594 17.787-1.078 4.855-3.284 9.271-5.687 13.588-.554.995-1.14 1.973-1.719 2.973 7.853 15.011 9.887 31.05 8.603 47.887 1.181-.327 1.918-.578 2.675-.732 3.495-.709 6.584 1.419 7.08 4.968.458 3.286-.075 6.505-1.119 9.62-3.124 9.321-7.166 18.166-13.558 25.774-.837.997-1.583 1.92-1.374 3.504.214 1.642-1.21 2.482-2.673 2.754-2.592.483-5.207.864-7.826 1.17-1.48.172-2.994.049-4.485.162-2.85.217-5.12-.446-5.827-4.083Z" clip-rule="evenodd"/><path fill="#000" fill-rule="evenodd" d="M468.569 436.68c-1.395 1.854-2.649 3.651-4.043 5.335-1.385 1.674-3.337 2.248-5.434 2.198-.458-.011-.903-.604-1.353-.927.41-.37.85-1.086 1.227-1.055 3.905.317 5.254-2.64 6.853-5.245.53-.867.527-1.797-.161-2.709-.896-1.185-1.683-2.454-2.557-3.744-3.929.238-7.691-.075-10.762-3.233.414-.771.61-1.5 1.077-1.944 1.972-1.875 3.91-3.82 6.093-5.423 1.133-.833 2.723-1.27 4.155-1.417 2.351-.242 4.297 1.788 3.997 4.132-.173 1.347-.814 2.66-1.393 3.918-.358.779-.995 1.426-1.615 2.279 1.113 1.589 2.155 3.204 3.33 4.718.852 1.1 2.168 1.362 3.569.624 1.149-.604 2.151-1.495 3.19-2.296.414-.319.7-.833 1.145-1.075.399-.216.934-.18 1.408-.255-.051.529.088 1.203-.186 1.564-2.378 3.133-4.495 4.205-8.54 4.555ZM474.477 386.277c1.201-3.126 3.495-5.427 5.92-8.315.456.983.922 1.536.934 2.097.038 1.833-.073 3.672-.157 5.506-.058 1.247-.707 1.971-1.997 1.905-1.541-.078-3.158.094-4.7-1.193ZM414.849 412.827c.798-1.485 1.63-1.894 2.966-1.265 1.186.557 2.468.916 3.707 1.362 1.133.408 1.411 1.215 1.073 2.309-.026.083-.033.18-.081.249-.721 1.052-1.233 2.604-2.227 3.029-1.347.576-1.904-1.194-2.665-2.075-.972-1.12-1.816-2.349-2.773-3.609ZM427.133 424.786c.488-3.907 1.955-6.98 3.806-9.885.17-.269.744-.28 1.131-.411.147.441.491.929.398 1.312-.16.663-.637 1.242-.9 1.891a324.314 324.314 0 0 0-2.394 6.09c-.124.322-.043.751-.224 1.015-.267.386-.685.665-1.039.991-.328-.422-.656-.844-.778-1.003ZM470.415 394.82c1.599.361 2.902.562 4.128.982.442.151.704.829 1.046 1.266-.496.212-1.06.697-1.479.593-2.521-.621-4.98-.725-7.477.146-.38.133-.978-.355-1.476-.556.324-.452.56-1.163.988-1.308 1.468-.502 3.004-.806 4.27-1.123ZM443.681 429.299c-1.308.026-3.756-2.157-3.909-3.488-.14-1.211 1.034-2.169 2.251-1.743 1.617.565 2.415 1.99 3.063 3.411.361.789-.548 1.801-1.405 1.82ZM470.484 406.53c1.341.035 3.006 1.898 2.897 3.243-.075.913-.567 1.439-1.481 1.541-1.477.163-3.439-1.465-3.535-2.925-.06-.939 1.021-1.888 2.119-1.859Z" clip-rule="evenodd"/></svg>