<svg width="25" height="24" fill="none" xmlns="http://www.w3.org/2000/svg"><g clip-path="url(#a)"><path d="M6.274 10.07c.018-2.119.055-4.247.111-6.365C8.495 2.449 10.568 1.201 12.604 0c2.035 1.201 4.117 2.449 6.218 3.705.065 2.118.102 4.246.111 6.364a322.327 322.327 0 0 0 5.67 3.155 144.197 144.197 0 0 1-.223 6.943A542.124 542.124 0 0 0 18.05 24c-1.775-1-3.597-2.045-5.447-3.127A495.12 495.12 0 0 1 7.158 24a541.556 541.556 0 0 0-6.33-3.833c-.13-2.311-.205-4.632-.223-6.943a359.616 359.616 0 0 0 5.67-3.155Zm6.33-8.53c-1.395.817-2.808 1.651-4.24 2.495 1.395.789 2.808 1.596 4.24 2.412a783.342 783.342 0 0 1 4.238-2.412c-1.431-.834-2.844-1.678-4.238-2.494Zm.669 6.072V12.5c1.44-.816 2.872-1.633 4.303-2.44-.009-1.623-.027-3.237-.055-4.86a1431.82 1431.82 0 0 0-4.248 2.412Zm5.503 14.453a377.413 377.413 0 0 1 4.312-2.577c.075-1.587.121-3.173.15-4.76-1.45.816-2.892 1.651-4.332 2.486-.038 1.614-.075 3.237-.13 4.851Zm3.792-8.456c-1.422-.779-2.854-1.586-4.285-2.393a718.604 718.604 0 0 0-4.313 2.449c1.431.816 2.853 1.623 4.266 2.411 1.45-.825 2.891-1.65 4.332-2.466ZM7.75 22.111c1.376-.77 2.77-1.578 4.183-2.394 0-1.632-.009-3.274-.009-4.906-1.432.816-2.863 1.632-4.276 2.42.028 1.624.056 3.257.102 4.88Zm3.486-8.447c-1.44-.816-2.872-1.641-4.313-2.448A291.96 291.96 0 0 1 2.64 13.61c1.44.806 2.89 1.632 4.332 2.466a540.592 540.592 0 0 0 4.266-2.412Z" fill="#323434" fill-opacity=".5"/></g><defs><clipPath id="a"><path fill="#fff" transform="matrix(-1 0 0 1 24.604 0)" d="M0 0h24v24H0z"/></clipPath></defs></svg>