<svg width="468" height="528" viewBox="0 0 468 528" fill="none" xmlns="http://www.w3.org/2000/svg">
<path fill-rule="evenodd" clip-rule="evenodd" d="M24.2147 245.932C20.4222 247.905 17.7936 250.768 17.0209 255.048C20.4298 252.809 22.4056 249.433 24.2147 245.932ZM45.4779 353.846C48.5294 355.648 51.3618 355.047 53.1142 352.414C54.1048 350.926 54.0678 350.007 52.9758 348.94C51.7868 347.778 50.733 347.695 49.2824 348.815C47.6118 350.104 46.4271 351.791 45.4779 353.846ZM42.1464 269.589C41.9437 269.895 41.753 270.086 41.6723 270.316C40.6141 273.349 39.4774 276.36 38.5435 279.432C37.0668 284.296 39.1047 287.172 42.9256 289.746C43.986 290.461 45.1216 290.358 46.0577 289.521C46.6941 288.953 47.3415 288.275 47.6739 287.51C49.2029 284.016 50.6174 280.472 52.08 276.95C52.5824 275.742 52.2565 274.723 51.3563 273.875C48.7593 271.429 45.7613 269.852 42.1464 269.589ZM2.52756 163.426C3.87783 164.786 5.12348 165.983 6.30592 167.241C9.34757 170.479 12.2552 173.851 15.4331 176.947C16.9588 178.432 18.8834 179.594 20.7938 180.578C22.8448 181.635 25.0364 181.496 26.9861 180.088C30.8494 177.296 31.3726 175.115 28.9783 170.985C25.6489 165.247 21.0532 160.637 15.784 156.671C15.2325 156.256 14.5895 155.96 13.9782 155.627C12.8753 155.024 11.7332 155.103 10.7502 155.777C7.66491 157.896 4.86847 160.332 2.52756 163.426ZM97.5391 514.636C97.6655 514.646 97.793 514.657 97.9194 514.667C98.0687 514.367 98.2812 514.084 98.3575 513.767C100.515 504.886 102.93 496.057 104.745 487.107C107.825 471.919 110.594 456.665 112.451 441.27C113.67 431.159 114.802 421.035 115.786 410.898C116.383 404.748 116.699 398.565 117.008 392.392C117.626 380.106 117.4 367.819 116.593 355.554C115.998 346.518 115.051 337.506 114.27 328.482C113.496 319.546 112.646 310.614 111.984 301.669C110.6 282.909 109.281 264.143 108.015 245.376C107.57 238.77 107.297 232.151 107.066 225.535C106.752 216.559 106.943 207.585 107.74 198.638C108.449 190.66 109.24 182.689 110.091 174.726C110.804 168.061 111.562 161.399 112.469 154.758C113.683 145.873 115.157 137.023 116.339 128.134C117.442 119.852 118.448 111.549 119.231 103.231C119.71 98.1244 119.838 92.9718 119.851 87.8388C119.863 83.2998 118.114 79.3242 114.841 76.1474C113.937 75.269 112.74 74.3808 111.556 74.1672C108.839 73.6757 106.049 73.5972 103.055 73.3313C102.578 75.5382 102.118 77.4671 101.75 79.4125C99.9355 88.9908 97.8595 98.5309 96.4133 108.166C94.3056 122.209 93.5035 136.396 92.6012 150.563C91.6094 166.136 91.131 181.728 91.58 197.326C91.9821 211.258 92.5815 225.186 93.2932 239.105C93.5449 244.047 94.3568 248.961 94.9802 253.88C95.075 254.628 95.3017 255.342 94.3939 255.571C93.4817 255.801 93.1842 255.01 93.0229 254.337C92.6971 252.987 92.3189 251.625 92.2197 250.248C91.6814 242.781 91.1681 235.312 90.7518 227.838C90.4172 221.838 90.148 215.83 90.0041 209.822C89.7502 199.202 89.3056 188.572 89.5083 177.957C89.7513 165.335 90.4695 152.716 91.2204 140.109C91.7435 131.335 92.5118 122.567 93.4545 113.825C94.6598 102.648 97.0225 91.6564 99.2675 80.6537C99.7339 78.3706 100.186 76.0831 100.659 73.7226C98.6398 73.1145 96.6007 72.9085 95.1012 73.7117C92.6862 75.002 90.1774 76.5604 88.9176 79.1618C87.5739 81.9354 85.5937 84.4452 85.2003 87.6601C85.1273 88.2617 84.6804 89.0997 84.1868 89.3079C83.1057 89.7656 82.9117 90.6484 82.6174 91.5442C75.1915 114.116 70.8268 137.214 70.7882 161.037C70.7647 176.56 71.739 192.037 73.6592 207.435C75.3386 220.909 77.139 234.375 79.2619 247.785C81.7521 263.514 84.8145 279.153 87.3199 294.88C89.6892 309.752 91.8732 324.657 93.7346 339.598C95.3605 352.643 96.6422 365.741 97.6709 378.845C98.5918 390.566 99.067 402.325 99.5487 414.074C100.591 439.435 99.8069 464.778 98.5733 490.112C98.1755 498.284 97.8813 506.462 97.5391 514.636ZM103.747 70.9131C105.856 71.1212 107.914 71.4318 109.98 71.5005C113.301 71.6138 115.733 73.2027 117.747 75.694C121.027 79.7514 122.367 84.4768 122.219 89.5705C122.05 95.3116 121.724 101.058 121.19 106.776C120.568 113.448 119.721 120.101 118.836 126.745C117.791 134.595 116.549 142.42 115.494 150.269C114.451 158.032 113.458 165.804 112.588 173.587C111.716 181.376 110.871 189.172 110.301 196.987C109.787 204.017 109.314 211.081 109.451 218.119C109.676 229.784 110.319 241.443 110.945 253.096C111.552 264.401 112.215 275.706 113.113 286.991C114.287 301.747 115.687 316.486 117.046 331.229C118.718 349.365 120.148 367.514 119.695 385.752C119.41 397.249 118.736 408.724 117.336 420.146C116.066 430.517 114.94 440.908 113.513 451.257C112.504 458.584 111.252 465.886 109.833 473.145C107.698 484.076 105.382 494.973 103.018 505.856C102.038 510.359 100.683 514.777 99.5868 519.257C98.8719 522.176 99.5923 523.071 102.685 523.462C104.03 523.632 104.337 524.117 103.821 525.347C103.62 525.824 103.341 526.277 103.051 526.71C101.977 528.308 101.587 528.361 99.9606 527.201C99.7525 527.051 99.5291 526.923 99.3372 526.8C98.7542 527.039 98.2137 527.262 97.7679 527.446C97.5489 527.329 97.4225 527.304 97.4039 527.245C96.701 524.979 94.1225 523.479 94.5454 520.814C94.7917 519.269 94.3917 518.074 93.5188 516.936C88.6397 510.578 83.7628 504.22 78.8576 497.884C71.8709 488.861 64.6008 480.045 57.9213 470.802C48.4531 457.701 41.5513 443.29 37.6357 427.537C34.5003 414.919 33.6383 402.125 34.5504 389.169C35.1956 380.01 36.6167 371.008 39.3532 362.236C40.0267 360.078 40.8114 357.946 41.7061 355.872C42.1616 354.815 41.9709 354.149 41.2756 353.308C35.2359 346.013 32.3305 337.491 31.499 328.154C30.6696 318.852 31.4804 309.694 34.1897 300.768C35.2948 297.13 36.9753 293.665 38.5413 289.754C38.4759 289.659 38.1882 289.138 37.8133 288.691C35.4027 285.815 35.0354 282.548 36.1339 279.104C37.0581 276.203 38.1947 273.371 39.2246 270.502C39.4251 269.947 39.7837 269.332 39.6932 268.809C39.4164 267.208 40.3264 266.933 41.5012 267.105C43.1337 267.342 44.7401 267.755 46.3596 268.078C46.7759 268.159 47.2042 268.181 47.6652 268.236C48.5021 266.778 49.302 265.39 50.1292 263.95C51.2844 265.004 51.2844 265.004 49.7598 269.437C50.7101 270.215 51.7356 271 52.7012 271.854C54.4329 273.384 55.1227 275.315 54.3075 277.508C53.0041 281.01 51.546 284.457 50.1456 287.924C50.0486 288.165 49.9004 288.386 49.7641 288.609C47.3971 292.499 45.1717 293.279 40.5781 291.647C39.9831 292.709 39.2987 293.789 38.7505 294.936C36.2832 300.095 34.9417 305.593 34.193 311.222C33.1893 318.77 33.0432 326.331 34.5668 333.848C35.7231 339.548 37.8863 344.834 41.1765 349.642C41.571 350.216 41.9993 350.768 42.4428 351.304C42.6575 351.566 42.943 351.77 43.3691 352.156C43.9217 351.407 44.3848 350.704 44.9243 350.066C45.7667 349.072 46.5699 348.015 47.5518 347.172C50.005 345.068 52.08 345.118 54.2727 347.175C56.4218 349.192 56.6223 351.437 54.8797 353.943C52.8341 356.887 49.3097 358.049 45.9095 356.896C45.4223 356.731 44.9428 356.544 44.2116 356.277C43.8018 357.176 43.3702 358.003 43.0378 358.869C40.3068 365.985 38.8334 373.407 37.7697 380.918C36.7551 388.095 36.4805 395.317 36.6701 402.56C37.1736 421.75 42.3665 439.632 51.6451 456.384C56.6005 465.329 62.4931 473.632 68.8532 481.615C76.508 491.223 84.1955 500.806 91.8732 510.397C92.1347 510.725 92.4322 511.025 93.1439 511.189C92.8823 510.179 92.6502 509.159 92.3527 508.16C87.563 492.054 82.7809 475.948 77.964 459.851C74.1791 447.2 71.8567 434.314 71.1124 421.108C70.5315 410.799 71.181 400.563 72.1193 390.323C73.5263 374.977 75.7397 359.688 75.6961 344.234C75.6427 325.245 73.6145 306.504 68.0729 288.263C64.3675 276.063 59.0416 264.663 50.5935 254.967C48.149 252.162 45.3744 249.592 42.4951 247.227C39.3085 244.61 35.455 243.533 31.3028 243.514C29.3608 243.506 28.1936 244.258 27.143 245.981C25.153 249.235 22.8655 252.32 20.5224 255.338C19.765 256.313 18.5368 257.07 17.3685 257.551C15.4102 258.356 14.0512 257.291 14.2299 255.206C14.3106 254.273 14.5983 253.316 14.9884 252.462C17.0296 247.998 20.323 244.709 24.8196 242.794C26.3322 242.15 27.1931 241.241 27.8383 239.828C30.9791 232.941 32.7359 225.692 33.5751 218.206C34.6202 208.868 34.3477 199.59 32.07 190.433C31.3148 187.399 30.3601 184.425 28.4748 181.754C28.0345 181.879 27.6934 181.922 27.4046 182.066C23.1587 184.182 19.2332 183.384 15.7044 180.539C13.7482 178.962 12.0187 177.091 10.2826 175.261C7.22463 172.038 4.23856 168.749 1.22525 165.485C-0.311381 163.82 -0.454146 163.42 1.09011 161.757C3.33511 159.341 5.6771 156.988 8.19238 154.862C11.2743 152.255 13.9182 152.14 17.1626 154.764C20.5333 157.489 23.6763 160.531 26.6733 163.669C28.4573 165.537 29.9536 167.75 31.2494 169.998C33.1969 173.379 34.1755 176.873 30.4909 179.662C30.4909 180.083 30.4255 180.291 30.5007 180.417C34.3641 186.973 35.5912 194.226 36.2015 201.663C37.021 211.663 36.1306 221.498 33.477 231.16C32.7871 233.672 31.7747 236.095 30.8985 238.554C30.6108 239.36 30.2882 240.152 29.8773 241.224C30.7285 241.293 31.3736 241.403 32.0177 241.391C36.8532 241.306 41.0566 243.017 44.811 245.929C50.1772 250.091 54.3533 255.322 58.1229 260.911C65.5881 271.978 70.0334 284.311 73.0468 297.185C76.8164 313.288 78.4119 329.656 78.219 346.182C78.1002 356.292 77.1357 366.35 76.0742 376.404C74.785 388.616 73.3802 400.83 73.45 413.141C73.5383 428.836 75.9402 444.18 80.4988 459.201C85.0739 474.279 89.5802 489.377 94.1214 504.465C94.3634 505.272 94.6347 506.07 95.306 506.824C95.451 504.959 95.6537 503.097 95.7333 501.231C96.8983 473.893 98.1526 446.556 97.3691 419.182C96.8917 402.548 96.1485 385.923 94.4386 369.363C92.8921 354.38 91.4231 339.382 89.4832 324.448C87.8474 311.85 85.6504 299.321 83.583 286.782C80.4531 267.799 76.9308 248.876 74.1289 229.846C72.164 216.505 71.035 203.037 69.6891 189.609C68.3998 176.758 68.2854 163.86 68.7987 150.965C69.4471 134.702 72.3002 118.777 76.7979 103.163C78.8914 95.8914 81.4502 88.7543 83.7879 81.5539C84.1737 80.366 84.8439 79.4778 85.8138 78.6256C87.5717 77.0846 89.2162 75.3736 90.6787 73.5493C92.077 71.8067 93.8762 71.228 95.9207 71.0689C97.2219 70.9675 98.533 70.9686 99.8407 70.9839C100.896 70.9948 101.421 70.5294 101.605 69.493C101.893 67.8649 102.275 66.2552 102.606 64.6369C102.747 63.9416 102.846 63.1013 103.777 63.2201C104.893 63.3618 104.712 64.3383 104.597 65.0815C104.369 66.5429 104.018 67.9837 103.756 69.4396C103.683 69.8483 103.747 70.281 103.747 70.9131Z" fill="black"/>
<path fill-rule="evenodd" clip-rule="evenodd" d="M240.711 522.017L293.816 521.336L295.139 518.309L298.236 520.39L315.865 520.163L333.4 519.505H390.015C384.978 512.589 377.892 507.312 368.759 503.677C359.626 500.041 351.074 495.536 343.103 490.162L344.85 474.066L315.363 475.909L299.49 478.418L282.52 475.871C283.949 489.814 283.949 497.834 282.52 499.933C281.091 502.031 267.194 508.555 240.827 519.505L240.711 522.017Z" fill="#2761F3"/>
<path fill-rule="evenodd" clip-rule="evenodd" d="M209.107 85.0665L230.155 70.6731L241.345 87.7211L262.614 67.7906C275.206 58.152 282.274 53.3327 283.816 53.3327C285.359 53.3327 288.563 54.0626 293.428 55.5224C303.694 64.6043 311.885 68.6937 318.003 67.7906C324.12 66.8875 328.115 65.3003 329.985 63.0288C332.86 58.0843 335.126 55.2322 336.785 54.4724C339.273 53.3327 345.388 52.3107 347.749 52.3107C350.11 52.3107 361.001 56.9215 363.85 59.9752C365.749 62.0109 375.309 70.6994 392.528 86.0405L409.971 61.5206L427.068 72.651L407.077 108.6C402.239 116.767 398.383 121.217 395.508 121.948C392.633 122.68 388.605 121.493 383.424 118.388L362.343 101.475L359.32 118.388L352.59 150.219L277.152 151.483C273.379 138.191 271.492 131.165 271.492 130.404C271.492 129.644 270.293 121.771 267.897 106.787L249.209 120.851C245.524 123.258 242.223 124.462 239.306 124.462C236.389 124.462 230.628 118.863 222.023 107.667L209.107 85.0665Z" fill="#2761F3"/>
<path fill-rule="evenodd" clip-rule="evenodd" d="M277.476 152.573H352.079V157.74C354.501 163.284 355.987 167.11 356.536 169.218C357.084 171.327 358.385 191.864 360.437 230.83L365.606 326.113L371.407 388.199L374.758 424.269L320.321 425.972L310.131 426.114L250.002 425.972L246.16 422.536L250.002 380.325C253.223 335.343 255.902 301.606 258.04 279.114C260.178 256.622 262.312 239.707 264.444 228.37C267.835 199.95 269.816 184.695 270.384 182.604C270.953 180.513 273.754 171.364 278.786 155.157L277.476 152.573Z" fill="white"/>
<path fill-rule="evenodd" clip-rule="evenodd" d="M462.168 51.0632C459.016 50.2425 455.897 49.297 452.622 48.3548C456.77 48.4962 460.801 48.5294 464.584 50.1752C464.58 50.4502 464.576 50.7252 464.571 51.0014C463.768 51.0334 462.914 51.2576 462.168 51.0632ZM446.651 53.5717C441.885 53.6291 437.93 55.5909 434.282 58.5146C432.392 60.0301 431.049 61.888 429.95 64.0308C428.88 66.1207 427.611 68.1078 426.345 70.2838C421.949 67.7422 417.82 65.3563 413.464 62.839C414.08 61.9289 414.57 61.1214 415.142 60.3803C417.178 57.7414 419.217 55.106 421.3 52.5069C422.74 50.7109 424.533 49.6858 426.94 49.7587C430.764 49.8736 434.603 49.6604 438.418 49.888C444.491 50.2492 450.553 50.8456 456.614 51.3847C457.447 51.4587 458.257 51.7735 459.077 51.9778C459.088 52.159 459.099 52.3401 459.11 52.5213C458.085 52.7322 457.067 53.0647 456.031 53.1332C452.909 53.3409 449.78 53.5342 446.651 53.5717ZM407.174 67.9874C408.304 66.409 409.286 65.036 410.391 63.4918C416.02 66.684 421.453 69.7635 427.185 73.0143C425.923 75.2356 424.94 76.9664 423.861 78.8641C418.248 75.2057 412.863 71.6954 407.174 67.9874ZM403.831 113.101C402.231 115.395 400.468 117.607 398.545 119.627C395.892 122.418 392.652 123.411 389.052 121.571C386.816 120.428 384.523 119.253 382.593 117.667C376.505 112.666 370.58 107.46 364.584 102.343C363.938 101.793 363.24 101.308 362.183 100.5C360.427 106.256 360.088 111.903 358.664 117.294C357.202 122.829 355.654 128.346 354.403 133.932C353.177 139.413 352.279 144.968 351.224 150.555H323.15C323.055 149.755 322.919 149.087 322.906 148.416C322.686 136.767 322.576 125.113 322.244 113.466C321.917 101.998 321.35 90.5371 320.925 79.0728C320.838 76.7312 320.913 74.3851 320.913 71.5452C323.194 72.9624 325.088 74.1509 326.994 75.3184C330.161 77.258 330.141 77.2315 332.75 74.4867C336.977 70.0386 341.237 65.6247 345.478 61.1921C345.84 60.8132 346.185 60.4134 346.502 59.9937C347.246 59.0062 347.024 58.1678 346.011 57.5647C344.533 56.6855 343.028 55.856 341.249 54.8431C343.433 53.6866 345.38 53.6325 347.368 53.8324C352.756 54.3703 357.382 56.7794 361.563 60.0632C364.171 62.1111 366.669 64.3423 368.981 66.7271C374.179 72.0898 379.571 77.2094 385.492 81.7547C387.486 83.2845 389.297 85.0585 391.277 86.796C390.559 87.9359 389.88 88.8527 389.389 89.8622C389.166 90.3184 389.076 91.2043 389.341 91.4683C389.999 92.1233 390.595 91.56 391.032 90.9491C393.081 88.0938 395.158 85.2584 397.161 82.37C399.815 78.5438 402.411 74.6744 405.031 70.8217C405.277 70.4605 405.511 70.0927 405.835 69.6001C411.577 73.3291 417.048 76.8803 422.458 80.3928C422.377 80.9539 422.409 81.2411 422.296 81.4465C416.384 92.1454 410.83 103.06 403.831 113.101ZM357.479 180.747C357.929 194.867 358.148 208.996 358.777 223.107C359.291 234.657 360.239 246.186 361.041 257.72C361.769 268.198 362.442 278.681 363.353 289.143C364.555 302.941 365.785 316.741 367.335 330.503C368.887 344.263 370.955 398.831 372.562 412.586C373.009 416.405 372.631 420.325 372.631 424.442H321.237C321.169 422.885 321.049 421.318 321.043 419.751C320.97 402.798 321.064 344.975 320.806 328.027C320.621 315.937 319.945 303.858 319.532 291.771C319.297 284.889 319.208 278.001 318.949 271.119C318.617 262.299 318.16 253.484 317.792 244.665C317.445 236.358 317.375 228.031 319.259 219.895C320.288 215.45 321.872 211.116 323.463 206.83C325.739 200.701 326.925 194.482 326.267 187.908C325.898 184.225 325.859 180.51 325.67 176.808C325.647 176.367 325.623 175.926 325.584 175.486C325.518 174.76 325.436 173.966 324.461 174.055C323.475 174.144 323.572 174.978 323.605 175.678C323.817 180.172 323.952 184.673 324.286 189.157C324.66 194.174 324.008 199.016 322.345 203.734C321.466 206.227 320.643 208.741 319.666 211.193C316.955 218.01 315.864 225.153 315.776 232.422C315.693 239.303 315.969 246.192 316.182 253.073C316.482 262.78 316.839 272.486 317.229 282.189C317.568 290.657 318.103 299.118 318.339 307.589C318.624 317.825 318.745 328.069 318.832 338.309C318.957 353.056 318.984 408.673 319.05 423.419C319.053 423.856 319.014 424.29 318.995 424.755C316.898 426.082 314.649 426.049 312.437 425.626C311.508 425.448 310.823 425.473 309.99 425.906C309.34 426.244 308.511 426.365 307.764 426.355C296.616 426.174 285.464 426.033 274.318 425.724C265.96 425.494 257.608 425.045 249.254 424.674C246.756 424.564 246.478 424.135 246.721 421.572C247.542 412.877 251.439 333.924 252.557 323.576C253.373 316.033 254.2 308.491 254.888 300.936C256.194 286.616 257.115 272.253 258.727 257.967C260.53 242.02 262.85 226.128 265.092 210.233C266.408 200.892 267.984 191.588 269.489 182.276C270.637 175.173 273.246 168.518 275.695 161.817C276.084 160.751 276.513 159.702 276.923 158.649C288.14 158.649 299.282 158.716 310.423 158.631C322.973 158.536 335.524 158.377 348.071 158.075C350.687 158.012 351.954 159.036 353.055 161.297C356.05 167.455 357.264 173.983 357.479 180.747ZM316.391 461.742C316.558 458.547 316.65 455.586 316.878 452.637C317.452 445.257 318.111 437.882 318.687 430.502C318.935 427.328 319.382 426.793 322.698 426.679C328.004 426.498 333.314 426.373 338.622 426.255C340.693 426.208 342.766 426.248 345.316 426.248C343.922 438.344 342.583 449.968 341.225 461.742H316.391ZM344.906 478.098C344.603 481.521 344.376 484.958 343.874 488.352C343.456 491.177 344.626 493.005 346.928 494.165C350.276 495.851 353.676 497.438 357.109 498.942C365.12 502.455 372.565 507.036 380.122 511.402C383.563 513.392 386.418 516.101 388.633 519.476C388.835 519.779 389.004 520.095 389.173 520.411C370.899 520.536 352.699 520.264 334.546 519.74C334.371 519.174 334.183 518.614 333.928 518.088C333.705 517.628 333.091 517.362 332.656 517.008C332.363 517.405 331.925 517.764 331.813 518.209C331.692 518.676 331.62 519.161 331.567 519.648C326.851 519.504 322.138 519.349 317.427 519.175C317.322 518.098 317.222 517.031 317.14 515.968C316.808 511.658 316.56 507.341 316.226 503.03C316.075 501.099 315.913 499.157 315.563 497.256C314.7 492.541 315.805 487.95 316.307 483.324C316.516 481.409 316.971 479.52 317.36 477.37C326.605 478.081 335.704 476.976 344.919 475.088C344.919 476.201 344.99 477.156 344.906 478.098ZM366.417 523.852C357.279 523.57 348.132 523.545 338.991 523.412C337.955 523.398 336.921 523.41 335.801 523.41C335.521 522.628 335.281 521.973 335.055 521.325C339.866 521.495 344.676 521.649 349.488 521.742C362.415 521.992 375.344 522.056 388.272 522.206C388.825 522.213 389.38 522.229 389.932 522.26C390.178 523.089 390.341 523.98 390.385 525C389.297 525 388.287 525.047 387.281 524.992C380.326 524.612 373.376 524.065 366.417 523.852ZM317.584 520.747C318.683 520.769 319.784 520.782 320.882 520.818C324.408 520.934 327.932 521.064 331.458 521.193C331.431 522.032 331.458 522.903 331.458 524.011C326.86 524.653 322.482 523.7 317.907 523.976C317.799 522.871 317.69 521.802 317.584 520.747ZM297.64 519.223C297.168 518.182 296.161 518.195 295.709 519.247C295.43 519.897 295.19 520.563 294.96 521.234C277.104 521.855 259.294 522.16 241.512 522.269C241.784 521.179 242.525 520.518 244.026 519.754C245.579 518.962 247.178 518.256 248.787 517.588C256.838 514.243 264.928 510.994 272.937 507.552C275.488 506.456 277.894 504.971 280.26 503.488C283.94 501.183 285.375 497.821 285.058 493.383C284.676 488.039 284.72 482.664 284.57 476.889C294.706 479.096 304.76 479.99 315.118 477.176C315.032 478.314 315.013 479.076 314.912 479.826C314.367 483.934 313.783 488.036 313.26 492.148C313.151 493.016 313.176 493.916 313.25 494.791C313.883 502.173 314.535 509.551 315.194 516.93C315.295 518.08 315.482 519.226 315.574 520.375C309.818 520.659 304.068 520.902 298.322 521.114C298.13 520.466 297.916 519.829 297.64 519.223ZM300.648 524.193C299.621 524.194 299.088 523.692 298.8 522.805C303.999 522.635 309.201 522.462 314.4 522.303C314.779 522.291 315.16 522.283 315.54 522.279C315.428 522.919 315.231 523.558 315.104 524.191C310.202 524.191 305.426 524.187 300.648 524.193ZM292.11 525.065C288.105 525.17 284.104 525.401 280.1 525.497C273.394 525.657 266.687 525.85 259.982 525.839C254.234 525.828 248.489 525.552 242.741 525.382C242.32 525.369 241.903 525.258 241.511 525.198C241.45 524.707 241.415 524.284 241.396 523.888C242.111 523.871 242.826 523.851 243.542 523.843C253.573 523.748 263.606 523.771 273.634 523.541C280.553 523.38 287.471 523.172 294.389 522.948C294.33 523.125 294.273 523.302 294.214 523.479C293.867 524.509 293.255 525.033 292.11 525.065ZM288.586 475.314C288.193 472.357 287.791 469.332 287.349 465.989C295.973 465.678 304.364 465.374 312.753 465.07C313.283 467.13 313.104 471.414 312.323 475.454C307.205 477.617 293.518 477.25 288.586 475.314ZM340.86 464.035C341.527 465.912 341.464 471.476 340.627 472.693C340.127 473.421 339.243 474.219 338.441 474.334C330.949 475.403 323.438 476.372 315.868 475.05C315.539 474.994 315.224 474.852 314.691 474.683C314.93 471.091 315.166 467.542 315.401 464.035H340.86ZM286.843 428.153C294.152 428.243 301.46 428.389 308.768 428.4C310.821 428.403 312.874 427.997 314.93 427.818C315.51 427.768 316.1 427.861 316.985 427.903C316.706 431.824 316.453 435.581 316.169 439.335C315.685 445.749 315.182 452.161 314.688 458.573C314.633 459.276 314.629 459.986 314.532 460.682C314.285 462.476 314.031 462.757 312.238 462.904C309.726 463.111 307.209 463.283 304.69 463.382C299.909 463.57 295.126 463.701 290.343 463.842C289.316 463.873 288.287 463.848 286.961 463.848C285.561 451.958 284.126 440.29 283.117 428.151C284.611 428.151 285.728 428.14 286.843 428.153ZM347.479 152.732C350.123 152.75 350.355 153.059 350.044 156.114C326.331 156.38 302.595 157.042 278.645 156.767C278.539 155.651 278.459 155.043 278.431 154.433C278.417 154.095 278.486 153.754 278.542 153.142C280.211 153.003 281.83 152.81 283.457 152.739C300.091 152.005 316.728 152.826 333.364 152.699C338.069 152.663 342.774 152.7 347.479 152.732ZM269.148 108.444C269.078 108.009 269.072 107.552 268.931 107.142C268.61 106.199 267.946 105.922 267.101 106.455C266.59 106.779 266.18 107.261 265.707 107.651C261.181 111.38 256.776 115.278 252.073 118.762C249.438 120.715 246.379 122.144 243.375 123.503C240.644 124.737 237.885 124.156 235.406 122.521C234.318 121.804 233.25 121.001 232.338 120.071C227.552 115.194 217.824 100.985 214.809 94.529C221.366 89.8622 227.952 85.1723 234.721 80.3519C236.687 83.3409 238.545 86.1962 240.436 89.0283C241.456 90.5548 242.496 92.0703 243.615 93.5206C243.854 93.8265 244.48 93.8254 244.928 93.9646C245.043 93.5084 245.337 93.0003 245.228 92.606C245.047 91.9432 244.622 91.3446 244.275 90.7326C243.139 88.719 243.146 88.0706 244.687 86.2879C245.951 84.8287 247.28 83.4215 248.669 82.085C257.332 73.7433 266.401 65.8887 276.16 58.8791C278.952 56.8733 281.891 55.1347 285.42 54.9071C286.583 54.8331 287.761 55.001 288.931 55.0585C288.988 55.2352 289.045 55.413 289.101 55.5898C288.081 56.5087 287.079 57.4476 286.036 58.3401C284.704 59.4767 283.293 60.5216 282.005 61.7057C280.58 63.0146 280.743 63.8077 282.471 64.6107C289.7 67.9675 296.499 72.0655 302.922 76.8063C303.908 77.5331 304.844 78.3284 305.79 79.1082C307.404 80.4403 307.737 80.4933 309.331 79.0463C311.147 77.3972 312.862 75.6376 314.634 73.9388C315.817 72.8033 317.021 71.691 318.49 70.3103C320.33 97.2076 320.287 123.698 320.904 150.517C306.425 150.78 292.157 149.587 277.762 151.159C277.457 150.346 277.152 149.647 276.928 148.921C274.768 141.916 273.397 134.728 272.188 127.508C271.124 121.162 270.157 114.8 269.148 108.444ZM229.939 72.6652C231.254 74.7319 232.368 76.4804 233.679 78.5404C227.006 83.3 220.48 87.9558 213.891 92.6568C212.024 91.0088 211.454 88.8416 210.196 87.008C216.771 82.2319 223.171 77.5817 229.939 72.6652ZM197.664 68.6424C195.606 66.6619 192.947 65.6115 190.12 65.3099C186.053 64.8758 181.961 64.6704 177.89 64.2617C175.213 63.9922 172.551 63.5669 169.894 63.1362C169.274 63.0356 168.702 62.628 167.517 62.0968C168.739 61.5875 169.385 61.1755 170.079 61.0562C171.621 60.7912 173.187 60.5316 174.745 60.5194C183.365 60.4487 191.985 60.3758 200.604 60.4576C206.351 60.5106 212.094 60.8685 217.841 60.9955C220.922 61.064 223.358 61.8648 224.831 64.9885C225.792 67.0275 227.345 68.7805 228.802 70.9068C222.212 75.7304 216.089 80.6711 209.076 85.0408C207.805 82.7278 206.538 80.6513 205.494 78.4675C203.628 74.5662 200.685 71.5518 197.664 68.6424ZM183.47 58.4208C181.57 58.4208 179.67 58.3567 177.774 58.4362C175.261 58.5423 172.737 58.6317 170.253 58.983C169.025 59.1564 167.733 59.7021 166.728 60.4399C165.527 61.3225 164.579 61.2805 163.227 60.4057C166.432 57.5448 176.624 56.501 183.47 58.4208ZM205.434 46.4671C210.679 49.7819 214.422 54.4741 219.121 58.7532C215.856 59.1719 213.284 59.205 211.338 56.5121C209.807 54.3935 207.975 52.5014 206.407 50.4071C205.654 49.4009 204.956 48.2278 205.434 46.4671ZM315.064 68.9959C315.318 69.0401 315.565 69.1251 316.171 69.2853C313.552 72.4874 310.651 75.1262 307.574 77.891C300.32 71.9937 292.451 67.2264 283.792 62.8755C286.622 60.4653 289.161 58.3026 291.931 55.9443C294.936 58.1391 298.041 60.0953 300.785 62.48C304.955 66.1041 309.751 68.0702 315.064 68.9959ZM332.514 61.5423C333.52 59.8468 335.016 58.4274 336.396 56.9881C337.396 55.9443 338.618 55.7411 339.958 56.5253C341.382 57.3582 342.859 58.0927 344.607 59.0272C339.688 64.286 334.947 69.3571 330.138 74.4999C327.129 73.3015 323.626 70.9918 322.34 69.4355C322.42 69.3007 322.481 69.0688 322.586 69.0478C327.051 68.1056 330.185 65.4668 332.514 61.5423ZM429.79 46.8327C430.776 45.1991 435.991 42.3449 439.632 41.5518C437.167 44.7617 433.059 46.9056 429.79 46.8327ZM461.902 47.2646C456.648 46.2462 451.343 46.2186 446.015 46.5047C443.197 46.656 440.362 46.5312 437.371 46.5312C438.866 45.1461 440.333 43.9399 441.594 42.5437C442.095 41.9892 442.496 40.909 442.312 40.2495C442.008 39.1604 440.81 39.1251 439.858 39.3338C438.677 39.5923 437.438 39.8662 436.403 40.4572C431.557 43.2241 426.717 46.0121 421.995 48.99C420.338 50.0349 418.995 51.526 417.881 53.3121C416.121 56.131 413.925 58.6693 411.892 61.3534C411.151 61.1976 410.503 61.0607 409.623 60.8751C403.987 68.9484 398.373 76.9885 392.686 85.1314C392.113 84.7514 391.732 84.5559 391.416 84.2831C383.524 77.4723 375.377 70.9642 368.271 63.2466C364.809 59.4867 360.69 56.4613 356.063 54.2621C351.731 52.202 347.21 50.9086 342.395 52.0739C337.38 53.2867 333.18 55.7786 330.67 60.5835C328.989 63.8022 326.528 66.1616 322.953 66.7768C315.719 68.0216 309.118 66.1925 303.2 61.8769C300.523 59.9252 297.984 57.7801 295.343 55.7742C291.798 53.0813 287.812 52.0916 283.498 53.1696C281.577 53.649 279.68 54.43 277.941 55.3876C275.963 56.4789 274.111 57.8409 272.307 59.2227C261.659 67.3777 251.333 75.9094 242.349 85.9819C242.183 86.1675 241.916 86.2603 241.476 86.5331C240.959 85.8626 240.394 85.2264 239.938 84.5172C237.089 80.0769 234.385 75.5327 231.399 71.1906C228.279 66.6553 225.712 61.7157 221.386 58.0507C217.047 54.3736 213.019 50.3188 208.824 46.4638C208.122 45.8188 207.327 45.2024 206.467 44.8224C204.374 43.899 202.917 44.9749 203.267 47.2481C203.463 48.5238 203.895 49.8559 204.568 50.9417C205.628 52.6483 206.968 54.177 208.217 55.761C208.894 56.6192 209.625 57.4355 210.569 58.5511C209.034 58.5511 207.991 58.6516 206.974 58.5334C201.616 57.9138 196.26 57.2742 190.913 56.5717C183.641 55.6163 176.354 54.7448 169.042 55.856C166.85 56.1884 164.658 56.9903 162.651 57.9679C160.633 58.9509 160.697 61.085 162.599 62.3641C163.157 62.7385 163.868 62.8909 164.523 63.1008C165.015 63.2577 165.626 63.2046 166.018 63.4841C169.416 65.9152 173.382 65.9649 177.273 66.3085C181.437 66.6752 185.612 66.9314 189.773 67.339C192.252 67.582 194.568 68.5253 196.401 70.2087C199.311 72.8795 201.89 75.8552 203.831 79.3788C206.975 85.0817 210.186 90.7459 213.461 96.3726C218.249 104.595 223.338 112.622 229.597 119.795C231.132 121.556 232.987 123.11 234.922 124.412C237.578 126.201 240.603 126.694 243.675 125.55C245.707 124.792 247.741 123.952 249.62 122.873C255.032 119.766 259.705 115.636 264.409 111.563C265.183 110.892 265.976 110.243 266.732 109.607C267.046 109.899 267.257 109.998 267.282 110.134C267.556 111.605 267.833 113.075 268.044 114.555C269.926 127.661 272.044 140.713 276.153 153.343C276.376 154.023 276.299 154.922 276.061 155.613C275.344 157.685 274.459 159.696 273.673 161.745C270.29 170.571 267.652 179.595 266.355 189.005C265.235 197.131 263.889 205.225 262.771 213.352C260.702 228.38 258.464 243.394 256.785 258.469C255.175 272.934 254.231 287.475 252.9 301.973C252.208 309.53 251.337 317.068 250.503 324.61C249.745 331.449 245.22 417.266 244.714 422.891C244.526 424.963 245.07 425.808 247.012 426.414C247.584 426.592 248.205 426.659 248.807 426.681C254.641 426.907 260.478 427.091 266.31 427.333C270.576 427.508 274.84 427.745 279.104 427.978C279.695 428.01 280.279 428.18 280.834 428.279C282.651 443.874 284.453 459.344 286.259 474.852C285.927 474.903 285.674 474.996 285.43 474.974C282.867 474.742 282.175 475.474 282.47 478.077C282.609 479.303 282.739 480.534 282.783 481.767C282.937 486.177 283.04 490.59 283.189 495.001C283.277 497.601 282.276 499.672 280.19 501.114C278.467 502.305 276.717 503.533 274.817 504.365C266.269 508.106 257.66 511.708 249.079 515.371C246.914 516.296 244.722 517.168 242.626 518.231C239.729 519.699 239.292 522.058 239.368 524.908C239.412 526.458 240.548 527.381 242.121 527.426C247.781 527.594 253.444 527.905 259.104 527.865C269.734 527.79 280.363 527.495 290.992 527.324C293.543 527.283 295.647 526.683 296.298 523.775C296.32 523.676 296.552 523.627 296.868 523.455C297.362 526.201 299.363 526.352 301.57 526.336C311.047 526.27 320.524 526.267 330.002 526.236C331.506 526.231 332.894 525.923 333.545 524.737C334.595 525.017 335.395 525.351 336.218 525.42C337.429 525.522 338.656 525.452 339.875 525.425C353.833 525.115 367.757 525.683 381.674 526.755C385.201 527.026 388.763 526.796 392.549 526.796C392.669 523.846 391.927 521.11 390.354 518.606C388.066 514.958 384.979 512.114 381.338 509.92C377.896 507.847 374.405 505.846 370.868 503.943C366.641 501.67 362.367 499.483 358.067 497.356C354.938 495.807 351.696 494.495 348.575 492.929C345.787 491.526 345.61 490.825 345.952 487.645C346.407 483.437 346.717 479.214 347.086 474.996C347.117 474.646 347.155 474.287 347.117 473.94C347.015 473.008 346.559 472.492 345.551 472.663C344.74 472.801 343.924 472.906 343.121 473.023C343.205 457.267 345.527 442.033 347.475 426.321C348.577 426.321 349.437 426.308 350.297 426.323C357.007 426.439 363.717 426.569 370.427 426.673C371.646 426.693 372.876 426.701 374.085 426.561C375.564 426.389 375.775 425.933 375.563 424.439C375.294 422.527 375.066 420.608 374.915 418.685C374.744 416.486 374.818 414.26 374.54 412.078C372.961 399.648 371.249 346.365 369.705 333.932C368.639 325.351 367.651 316.757 366.845 308.149C366.113 300.329 365.702 292.478 365.097 284.645C364.165 272.591 362.989 260.551 362.281 248.482C361.365 232.885 360.797 217.264 360.102 201.653C359.705 192.746 359.438 183.832 358.951 174.93C358.627 169 356.594 163.522 353.605 158.483C352.325 156.327 351.961 154.325 352.616 151.987C353.092 150.294 353.519 148.583 353.881 146.861C355.315 140.047 356.458 133.157 358.204 126.427C359.843 120.109 361.613 113.838 362.647 107.38C362.804 106.394 363.106 105.433 363.426 104.107C364.871 105.265 365.976 106.103 367.027 107.005C371.882 111.17 376.716 115.361 381.569 119.528C384.345 121.908 387.486 123.608 391.077 124.257C392.227 124.465 393.618 124.524 394.632 124.056C397.97 122.518 401.24 120.683 403.34 117.516C407.131 111.802 410.891 106.055 414.368 100.144C418.691 92.7905 422.723 85.2606 426.863 77.7982C427.793 76.1225 428.663 74.4127 429.53 72.7735C428.974 72.1715 428.572 71.7341 428.194 71.3243C429.617 68.786 430.87 66.2543 432.389 63.8961C435.504 59.0592 439.799 55.9995 445.64 55.5809C447.898 55.4196 450.172 55.2286 452.429 55.3136C456.885 55.4837 460.965 53.902 465.15 52.7786C465.478 52.6914 465.788 52.4859 466.07 52.2816C467.684 51.1063 467.643 49.4163 465.863 48.5548C464.62 47.9528 463.257 47.5264 461.902 47.2646Z" fill="black"/>
<path fill-rule="evenodd" clip-rule="evenodd" d="M315.771 94.967C315.831 95.3602 316.252 95.6982 316.639 96.2206C317.064 95.76 317.593 95.2951 317.545 95.2233C317.254 94.7859 316.833 94.438 316.455 94.0603C316.209 94.3651 315.731 94.7064 315.771 94.967Z" fill="black"/>
<path fill-rule="evenodd" clip-rule="evenodd" d="M316.817 132.383C317.205 131.763 317.662 131.355 317.618 131.013C317.574 130.672 317.032 130.395 316.707 130.089C316.403 130.444 315.903 130.776 315.857 131.163C315.821 131.463 316.355 131.83 316.817 132.383Z" fill="black"/>
<path fill-rule="evenodd" clip-rule="evenodd" d="M317.649 122.422C317.661 122.153 317.066 121.579 316.901 121.634C316.493 121.768 315.934 122.159 315.897 122.498C315.861 122.83 316.397 123.225 316.872 123.837C317.248 123.2 317.632 122.819 317.649 122.422Z" fill="black"/>
<path fill-rule="evenodd" clip-rule="evenodd" d="M315.892 139.906C315.872 140.201 316.289 140.527 316.516 140.838C316.875 140.568 317.235 140.297 317.775 139.89C317.26 139.522 316.932 139.105 316.648 139.135C316.355 139.166 315.913 139.614 315.892 139.906Z" fill="black"/>
<path fill-rule="evenodd" clip-rule="evenodd" d="M317.287 104.161C316.705 103.863 316.294 103.479 316.051 103.569C315.679 103.705 315.425 104.167 315.121 104.491C315.417 104.717 315.769 105.177 315.997 105.119C316.4 105.02 316.725 104.606 317.287 104.161Z" fill="black"/>
<path fill-rule="evenodd" clip-rule="evenodd" d="M316.843 77.4143C316.739 77.0951 316.429 76.8444 316.201 76.5672C315.969 76.7792 315.599 76.9625 315.547 77.2144C315.5 77.4297 315.815 77.7235 316.065 78.1421C316.43 77.8119 316.881 77.5313 316.843 77.4143Z" fill="black"/>
<path fill-rule="evenodd" clip-rule="evenodd" d="M316.52 84.4528C316.272 84.5389 316.115 84.8879 315.918 85.1242C316.156 85.3109 316.386 85.6334 316.635 85.6489C316.928 85.6676 317.236 85.4191 318.012 85.0812C317.019 84.6416 316.714 84.3843 316.52 84.4528Z" fill="black"/>
<path fill-rule="evenodd" clip-rule="evenodd" d="M317.109 113.229C316.884 113.301 316.606 113.691 316.626 113.919C316.645 114.134 317.003 114.445 317.245 114.48C317.537 114.521 317.863 114.317 318.571 114.094C317.584 113.488 317.289 113.172 317.109 113.229Z" fill="black"/>
<path fill-rule="evenodd" clip-rule="evenodd" d="M213.339 88.2798C213.581 88.5515 213.805 89.0187 214.068 89.0419C214.376 89.0695 214.718 88.7116 215.259 88.3958C214.786 88.0092 214.488 87.5796 214.218 87.5951C213.912 87.6138 213.631 88.0346 213.339 88.2798Z" fill="black"/>
<path fill-rule="evenodd" clip-rule="evenodd" d="M422.224 73.9793C422.173 73.6568 421.753 73.1919 421.464 73.1676C421.168 73.1433 420.836 73.5795 420.52 73.8137C420.793 74.1859 421.067 74.5558 421.504 75.1489C421.864 74.5978 422.266 74.2532 422.224 73.9793Z" fill="black"/>
<path fill-rule="evenodd" clip-rule="evenodd" d="M294.593 28.496C292.01 29.6643 290.651 29.7668 289.285 30.2114C277.334 34.1064 260.726 25.5274 257.796 40.1406C258.155 36.8974 259.738 33.1386 266.096 30.3127C268.978 29.0322 273.191 29.2338 277.653 29.4474C283.345 29.721 289.23 30.0022 293.522 27.4073C295.206 26.3905 296.53 24.9378 297.584 23.362C297.519 23.7379 297.49 24.1412 297.506 24.5727C297.513 24.7635 297.538 24.9455 297.56 25.1307C297.01 26.5813 295.899 27.9054 294.593 28.496ZM252.626 62.1275C236.169 67.3956 232.051 79.8477 236.589 90.3829C235.782 89.426 234.932 88.1597 234.041 86.5805C226.953 74.0042 242.896 64.0902 251.463 58.7632C251.936 58.4701 252.387 58.1889 252.815 57.9208C256.457 55.6333 257.844 53.0603 258.258 50.5265C258.825 54.8508 258.536 60.2366 252.626 62.1275ZM299.044 20.8674C299.02 20.8859 298.996 20.9023 298.973 20.9208C299.008 20.8456 299.045 20.7726 299.08 20.6974C299.067 20.7551 299.056 20.8107 299.044 20.8674ZM335.585 32.172C333.326 28.8186 333.035 25.1514 333.223 21.1529C333.225 21.1279 333.228 21.1017 333.229 21.0766C333.298 20.4827 333.361 19.8888 333.414 19.2937C333.929 15.6134 335.116 11.0243 333.197 6.92551C332.024 4.84507 330.31 3.28991 328.137 2.18485C324.876 0.526164 317.567 -1.52158 310.839 1.70315C308.876 2.5641 307.187 3.73455 305.828 5.26246C303.889 7.44207 302.301 10.6189 301.102 13.8272L300.967 13.8076C300.965 13.824 300.916 14.1302 300.815 14.6184C300.25 16.2117 299.785 17.7898 299.421 19.2425C299.127 19.9803 298.78 20.7432 298.379 21.5049C298.15 21.7937 297.965 22.1261 297.822 22.4977C296.726 24.3166 295.279 26.0276 293.381 27.1752C289.159 29.7253 283.317 29.4464 277.666 29.175C273.171 28.9603 268.926 28.7565 265.985 30.0643C258.605 33.3435 257.539 37.8716 257.433 41.4506C257.424 41.7764 257.442 42.1208 257.47 42.4739C257.397 43.2673 257.345 44.0955 257.338 45.0023C257.334 45.7935 257.772 47.4598 258.102 49.4683C257.909 52.2625 256.699 55.1592 252.67 57.6898C252.243 57.9579 251.792 58.239 251.319 58.5333C242.675 63.9071 226.588 73.9105 233.806 86.7146C234.908 88.673 235.958 90.1518 236.953 91.173C242.845 103.536 260.752 112.886 284.556 104.071C301.396 97.0765 310.481 77.388 308.641 61.8953C307.36 51.1237 304.176 47.9905 303.165 43.579C303.709 39.9172 304.175 36.2435 304.504 32.5469C304.742 29.8616 304.713 29.7809 302.131 28.4437C300.145 27.4139 298.992 25.2037 299.7 23.5156C299.941 22.9391 300.531 22.2286 301.06 22.137C301.529 22.0553 302.184 22.6874 302.658 23.1146C302.964 23.3881 304.385 24.8855 304.929 25.207C305.179 24.7057 305.572 24.2273 305.656 23.6998C305.675 23.5745 305.692 23.4491 305.71 23.3238C305.948 22.6536 306.182 21.9321 306.314 21.4592C307.106 18.617 307.776 15.7224 308.818 12.9718C309.811 10.3519 311.82 10.7889 314.726 10.5502C317.314 10.3377 323.071 9.65656 324.801 7.07263C325.812 9.58681 327.082 10.2745 328.125 10.8063C331.45 12.5031 331.342 16.9583 331.075 18.9014C330.022 26.5714 328.752 34.2077 324.753 41.0484C324.66 41.2075 324.585 41.3667 324.518 41.5258C323.467 42.1491 322.171 42.1382 320.306 41.5639C317.882 40.8163 315.572 39.8268 313.613 38.143C313.052 37.6602 312.35 36.8494 311.645 37.7812C311.003 38.6312 311.825 39.2503 312.434 39.6982C313.481 40.4687 314.55 41.2402 315.704 41.8244C318.445 43.2128 321.298 44.223 324.396 43.8067C324.455 44.0454 324.53 44.2873 324.628 44.5347C325.641 47.1241 326.493 49.7767 327.434 52.3955C327.488 52.5426 327.555 52.6897 327.615 52.8347C328.104 54.5511 328.593 56.2654 329.1 57.9764C329.394 58.9703 329.325 60.2802 331.391 60.7979C331.233 59.6046 331.217 58.7654 331.002 57.9808C330.611 56.5575 330.208 55.1374 329.807 53.7174C333.081 51.601 335.465 48.9517 336.793 45.1559C337.431 43.3283 339.802 36.602 335.585 32.172Z" fill="black"/>
<path fill-rule="evenodd" clip-rule="evenodd" d="M323.188 17.827L324.852 24.4141L322.424 24.6581L323.188 17.827Z" fill="black"/>
<path fill-rule="evenodd" clip-rule="evenodd" d="M323.192 17.8919L322.438 24.6435L324.838 24.4049L323.192 17.8919ZM322.424 24.6686C322.422 24.6686 322.418 24.6675 322.416 24.6653C322.413 24.6631 322.412 24.6599 322.413 24.6555L323.176 17.8254C323.176 17.8211 323.181 17.8167 323.187 17.8156C323.192 17.8167 323.197 17.82 323.199 17.8244L324.864 24.4114C324.864 24.4147 324.864 24.418 324.861 24.4212C324.859 24.4234 324.856 24.4256 324.853 24.4256L322.426 24.6686H322.424Z" fill="black"/>
<path fill-rule="evenodd" clip-rule="evenodd" d="M319.251 12.5269C319.251 12.5269 319.725 14.4905 319.363 14.9895C317.618 14.8392 313.826 15.5551 311.56 17.9088C311.89 14.9645 319.251 12.5269 319.251 12.5269Z" fill="black"/>
<path fill-rule="evenodd" clip-rule="evenodd" d="M319.244 12.5418C319.081 12.5974 317.315 13.1999 315.536 14.124C314.444 14.6917 313.56 15.267 312.909 15.8337C312.111 16.5311 311.662 17.2176 311.576 17.8768C312.844 16.5714 314.492 15.8642 315.653 15.4991C316.669 15.181 318.175 14.878 319.357 14.9772C319.69 14.501 319.282 12.7085 319.244 12.5418ZM311.56 17.9215C311.558 17.9215 311.555 17.9204 311.555 17.9204C311.551 17.9182 311.548 17.9128 311.548 17.9084C311.625 17.2339 312.077 16.53 312.894 15.8173C313.546 15.2474 314.432 14.671 315.525 14.1044C317.386 13.1367 319.23 12.5222 319.248 12.5167C319.251 12.5156 319.255 12.5156 319.258 12.5178C319.26 12.5189 319.262 12.5211 319.263 12.5243C319.264 12.5287 319.382 13.0212 319.454 13.5693C319.552 14.307 319.525 14.7876 319.372 14.9968C319.37 15.0001 319.366 15.0012 319.361 15.0012C318.18 14.8987 316.675 15.2028 315.661 15.5209C314.494 15.8871 312.836 16.5997 311.568 17.9171C311.566 17.9204 311.563 17.9215 311.56 17.9215Z" fill="black"/>
<path fill-rule="evenodd" clip-rule="evenodd" d="M325.327 11.999C325.327 11.999 324.894 13.6815 325.198 14.1152C326.81 14.2623 329.263 15.2005 330.883 16.3512C330.515 14.5805 325.327 11.999 325.327 11.999Z" fill="black"/>
<path fill-rule="evenodd" clip-rule="evenodd" d="M325.205 14.104C326.858 14.2576 329.283 15.2089 330.864 16.3247C330.462 14.6238 325.621 12.1611 325.334 12.0162C325.294 12.1774 324.928 13.6943 325.205 14.104ZM330.883 16.3629C330.881 16.3629 330.877 16.3618 330.875 16.3607C329.296 15.2383 326.855 14.2783 325.197 14.1269C325.194 14.1269 325.19 14.1258 325.188 14.1225C325.061 13.9405 325.044 13.5265 325.137 12.8934C325.207 12.4226 325.315 12.0009 325.316 11.9966C325.317 11.9933 325.318 11.9911 325.321 11.9889C325.324 11.9878 325.329 11.9878 325.332 11.99C325.345 11.9955 326.645 12.6449 327.973 13.5014C329.2 14.2936 330.703 15.4301 330.894 16.3498C330.895 16.3531 330.893 16.3574 330.889 16.3607C330.887 16.3618 330.885 16.3629 330.883 16.3629Z" fill="black"/>
<path fill-rule="evenodd" clip-rule="evenodd" d="M323.103 29.0195C323.014 29.0195 322.929 28.9672 322.892 28.8811C322.886 28.8681 322.335 27.64 321.122 27.215C320.315 26.9306 319.391 27.057 318.371 27.5888C318.258 27.6476 318.119 27.604 318.059 27.4907C318 27.3774 318.044 27.2379 318.157 27.1791C319.297 26.5852 320.347 26.4512 321.279 26.7802C322.684 27.276 323.289 28.6381 323.314 28.6959C323.366 28.8136 323.311 28.9498 323.195 28.9999C323.165 29.013 323.134 29.0195 323.103 29.0195Z" fill="black"/>
<path fill-rule="evenodd" clip-rule="evenodd" d="M317.744 21.4791C317.14 21.5162 316.538 21.4039 315.977 21.2198C316.184 21.2797 316.405 21.3135 316.636 21.3135C317.784 21.3135 318.718 20.4951 318.718 19.4883C318.718 19.0829 318.403 18.598 318.104 18.2624C319.575 18.3986 320.866 19.1636 321.344 19.4785C320.917 19.9841 319.589 21.3658 317.744 21.4791ZM314.611 18.987C314.576 19.1603 314.555 19.3499 314.555 19.4883C314.555 20.2195 315.048 20.8504 315.757 21.1413C314.673 20.7403 313.777 20.0941 313.395 19.7934C313.617 19.6038 314.031 19.2856 314.611 18.987ZM321.817 19.2453C321.74 19.1864 319.894 17.8069 317.726 17.7797C314.749 17.7437 312.95 19.5646 312.875 19.6419C312.831 19.6877 312.808 19.7487 312.81 19.8119C312.813 19.8751 312.841 19.934 312.888 19.9765C312.983 20.0593 315.147 21.9488 317.507 21.9488C317.595 21.9488 317.683 21.9466 317.772 21.9411C320.247 21.7875 321.801 19.6539 321.866 19.5635C321.939 19.461 321.917 19.3205 321.817 19.2453Z" fill="black"/>
<path fill-rule="evenodd" clip-rule="evenodd" d="M327.902 21.014C327.373 21.0522 326.842 20.9225 326.356 20.7187C326.44 20.7351 326.525 20.746 326.611 20.746C327.535 20.746 328.287 19.9941 328.287 19.0711C328.287 18.6669 328.145 18.2866 327.889 17.988C327.992 17.9815 328.096 17.9771 328.202 17.9771C329.369 17.9771 330.435 18.7998 330.81 19.1234C330.478 19.5844 329.399 20.9061 327.902 21.014ZM324.412 19.4438C324.533 19.3403 324.715 19.1943 324.949 19.0352C324.994 19.4242 325.161 19.8143 325.425 20.1314C325.497 20.2186 325.572 20.2937 325.653 20.3624C325.091 20.0311 324.644 19.6541 324.412 19.4438ZM331.278 18.9229C331.219 18.8652 329.838 17.5151 328.202 17.5151C325.67 17.5151 323.978 19.2073 323.908 19.2782C323.82 19.3686 323.82 19.5124 323.907 19.6018C323.928 19.6225 324.407 20.1118 325.137 20.588C326.048 21.1818 326.912 21.4837 327.711 21.4837C327.787 21.4837 327.862 21.4804 327.935 21.4749C329.981 21.3278 331.258 19.2945 331.311 19.2084C331.368 19.1169 331.353 18.9981 331.278 18.9229Z" fill="black"/>
</svg>
